<svg width="64" height="65" viewBox="0 0 64 65" fill="none" xmlns="http://www.w3.org/2000/svg">
<g clip-path="url(#clip0_103_344)">
<path d="M25.5999 0.5H63.9999V64.5H25.5874L25.5999 0.5Z" fill="#FF0000"/>
<path d="M-0.000195312 0.5H25.5998V64.5H-0.0126953L-0.000195312 0.5Z" fill="#006600"/>
<path fill-rule="evenodd" clip-rule="evenodd" d="M36.7251 41.325C32.4251 41.2 12.7251 28.9 12.6001 26.9375L13.6751 25.125C15.6251 27.9625 35.7751 39.925 37.7501 39.5L36.7251 41.325Z" fill="#FFFF00" stroke="black" stroke-width="0.0875" stroke-linecap="round" stroke-linejoin="round"/>
<path fill-rule="evenodd" clip-rule="evenodd" d="M13.4501 24.8749C13.0626 25.9124 18.5876 29.3249 25.2376 33.3749C31.8876 37.4124 37.6126 39.9124 38.0501 39.5624L38.2376 39.1999C38.1626 39.3249 37.9626 39.3624 37.6626 39.2749C35.8626 38.7499 31.1751 36.5999 25.3751 33.0874C19.5751 29.5749 14.5251 26.3249 13.7501 24.9499C13.6862 24.8221 13.6561 24.6801 13.6626 24.5374H13.6376L13.4751 24.8249L13.4501 24.8749ZM36.8251 41.3749C36.7501 41.5124 36.6126 41.5124 36.3626 41.4999C34.7501 41.3124 29.8626 38.9374 24.1126 35.4874C17.3876 31.4624 11.8376 27.7999 12.4501 26.8499L12.6126 26.5499L12.6376 26.5624C12.1001 28.1874 23.5876 34.7499 24.2626 35.1749C30.9001 39.2999 36.5126 41.6999 37.0126 41.0749L36.8251 41.3749Z" fill="#FFFF00" stroke="black" stroke-width="0.0875" stroke-linecap="round" stroke-linejoin="round"/>
<path fill-rule="evenodd" clip-rule="evenodd" d="M25.6254 28.1249C29.9129 28.0874 35.2254 27.5374 38.2754 26.3249L37.6254 25.2499C35.8129 26.2499 30.4879 26.9124 25.5879 26.9999C19.7879 26.9499 15.7004 26.4124 13.6504 25.0374L13.0254 26.1749C16.8004 27.7624 20.6504 28.1124 25.6254 28.1249Z" fill="#FFFF00" stroke="black" stroke-width="0.0875" stroke-linecap="round" stroke-linejoin="round"/>
<path fill-rule="evenodd" clip-rule="evenodd" d="M38.4628 26.3499C38.3503 26.5124 36.3628 27.1999 33.4253 27.6999C30.8352 28.0884 28.2194 28.2806 25.6003 28.2749C23.0924 28.2861 20.5867 28.1274 18.1003 27.7999C15.0378 27.3124 13.4378 26.6374 12.8503 26.3999L13.0003 26.1124C14.6626 26.7676 16.3948 27.229 18.1628 27.4874C20.6286 27.81 23.1135 27.9645 25.6003 27.9499C28.1985 27.9516 30.7932 27.7594 33.3628 27.3749C36.3628 26.8874 38.0128 26.2624 38.2378 25.9749L38.4628 26.3499ZM37.8753 25.2499C37.5503 25.4999 35.9253 26.0874 33.0753 26.5374C30.612 26.891 28.1264 27.0665 25.6378 27.0624C23.2381 27.0806 20.8403 26.9261 18.4628 26.5999C15.5503 26.2249 14.0128 25.5374 13.4628 25.3374L13.6253 25.0499C14.0503 25.2749 15.5503 25.8749 18.5003 26.2999C20.8669 26.6066 23.2515 26.7528 25.6378 26.7374C28.1056 26.7408 30.5704 26.5653 33.0128 26.2124C35.8878 25.8124 37.4378 25.0874 37.6753 24.8999L37.8753 25.2499ZM11.5003 33.2999C14.1503 34.7249 20.0128 35.4499 25.5753 35.4999C30.6378 35.4999 37.2378 34.7124 39.7003 33.3999L39.6253 31.9749C38.8628 33.1874 31.8003 34.3499 25.5253 34.2999C19.2503 34.2499 13.4253 33.2749 11.4878 32.0249V33.2999" fill="#FFFF00"/>
<path d="M11.5003 33.2999C14.1503 34.7249 20.0128 35.4499 25.5753 35.4999C30.6378 35.4999 37.2378 34.7124 39.7003 33.3999L39.6253 31.9749C38.8628 33.1874 31.8003 34.3499 25.5253 34.2999C19.2503 34.2499 13.4253 33.2749 11.4878 32.0249V33.2999M38.4628 26.3499C38.3503 26.5124 36.3628 27.1999 33.4253 27.6999C30.8352 28.0884 28.2194 28.2806 25.6003 28.2749C23.0924 28.2861 20.5867 28.1274 18.1003 27.7999C15.0378 27.3124 13.4378 26.6374 12.8503 26.3999L13.0003 26.1124C14.6626 26.7676 16.3948 27.229 18.1628 27.4874C20.6286 27.81 23.1135 27.9645 25.6003 27.9499C28.1985 27.9516 30.7932 27.7594 33.3628 27.3749C36.3628 26.8874 38.0128 26.2624 38.2378 25.9749L38.4628 26.3499ZM37.8753 25.2499C37.5503 25.4999 35.9253 26.0874 33.0753 26.5374C30.612 26.891 28.1264 27.0665 25.6378 27.0624C23.2381 27.0806 20.8403 26.9261 18.4628 26.5999C15.5503 26.2249 14.0128 25.5374 13.4628 25.3374L13.6253 25.0499C14.0503 25.2749 15.5503 25.8749 18.5003 26.2999C20.8669 26.6066 23.2515 26.7528 25.6378 26.7374C28.1056 26.7408 30.5704 26.5653 33.0128 26.2124C35.8878 25.8124 37.4378 25.0874 37.6753 24.8999L37.8753 25.2499Z" stroke="black" stroke-width="0.0875" stroke-linecap="round" stroke-linejoin="round"/>
<path fill-rule="evenodd" clip-rule="evenodd" d="M39.8377 33.0999V33.4374C39.4627 33.8874 37.1377 34.5624 34.2252 35.0249C31.3403 35.4439 28.4278 35.6445 25.5127 35.6249C22.0877 35.6249 19.3627 35.3749 17.2377 35.0499C15.1988 34.8181 13.206 34.283 11.3252 33.4624V33.0624C12.6252 33.9249 16.1127 34.5499 17.2877 34.7374C19.3877 35.0624 22.1002 35.2999 25.5127 35.2999C29.1002 35.2999 31.9752 35.0499 34.1752 34.7124C36.2752 34.4124 39.2502 33.6249 39.8377 33.0999ZM39.8377 31.8874V32.2374C39.4627 32.6749 37.1377 33.3499 34.2252 33.8124C31.3403 34.2314 28.4278 34.432 25.5127 34.4124C22.0877 34.4124 19.3627 34.1624 17.2502 33.8499C15.2065 33.615 13.2093 33.0757 11.3252 32.2499V31.8499C12.6252 32.7124 16.1127 33.3499 17.2877 33.5249C19.4002 33.8499 22.1127 34.0999 25.5127 34.0999C29.1002 34.0999 31.9752 33.8499 34.1752 33.4999C36.2752 33.1999 39.2502 32.4124 39.8377 31.8874ZM25.5627 41.0749C19.4877 41.0374 14.2752 39.4249 13.1752 39.1499L13.9752 40.3999C15.9127 41.2249 21.0002 42.4499 25.6252 42.3124C30.2502 42.1749 34.2877 41.8124 37.1252 40.4374L37.9502 39.1249C36.0127 40.0374 29.4127 41.0749 25.5752 41.0749" fill="#FFFF00"/>
<path d="M25.5627 41.0749C19.4877 41.0374 14.2752 39.4249 13.1752 39.1499L13.9752 40.3999C15.9127 41.2249 21.0002 42.4499 25.6252 42.3124C30.2502 42.1749 34.2877 41.8124 37.1252 40.4374L37.9502 39.1249C36.0127 40.0374 29.4127 41.0749 25.5752 41.0749M39.8377 33.0999V33.4374C39.4627 33.8874 37.1377 34.5624 34.2252 35.0249C31.3403 35.4439 28.4278 35.6445 25.5127 35.6249C22.0877 35.6249 19.3627 35.3749 17.2377 35.0499C15.1988 34.8181 13.206 34.283 11.3252 33.4624V33.0624C12.6252 33.9249 16.1127 34.5499 17.2877 34.7374C19.3877 35.0624 22.1002 35.2999 25.5127 35.2999C29.1002 35.2999 31.9752 35.0499 34.1752 34.7124C36.2752 34.4124 39.2502 33.6249 39.8377 33.0999ZM39.8377 31.8874V32.2374C39.4627 32.6749 37.1377 33.3499 34.2252 33.8124C31.3403 34.2314 28.4278 34.432 25.5127 34.4124C22.0877 34.4124 19.3627 34.1624 17.2502 33.8499C15.2065 33.615 13.2093 33.0757 11.3252 32.2499V31.8499C12.6252 32.7124 16.1127 33.3499 17.2877 33.5249C19.4002 33.8499 22.1127 34.0999 25.5127 34.0999C29.1002 34.0999 31.9752 33.8499 34.1752 33.4999C36.2752 33.1999 39.2502 32.4124 39.8377 31.8874Z" stroke="black" stroke-width="0.0875" stroke-linecap="round" stroke-linejoin="round"/>
<path fill-rule="evenodd" clip-rule="evenodd" d="M37.4378 40.1374C37.316 40.3229 37.191 40.5063 37.0628 40.6874C35.6444 41.1579 34.1951 41.5297 32.7253 41.7999C30.3667 42.2339 27.9734 42.4514 25.5753 42.4499C20.1878 42.3749 15.7753 41.3249 13.7003 40.4249L13.5253 40.1374L13.5628 40.0874L13.8378 40.1999C17.633 41.4575 21.6022 42.1113 25.6003 42.1374C28.1003 42.1499 30.6003 41.8499 32.6128 41.4999C35.7128 40.8749 36.9628 40.4124 37.3503 40.1999L37.4378 40.1374ZM38.1503 38.9624H38.1628C38.0723 39.1214 37.9806 39.2797 37.8878 39.4374C37.1753 39.6874 35.2253 40.2624 32.3878 40.6624C30.5128 40.9124 29.3503 41.1624 25.6378 41.2374C21.3841 41.1915 17.157 40.5606 13.0753 39.3624L12.9253 39.0499C17.0712 40.1877 21.34 40.8173 25.6378 40.9249C29.0378 40.8499 30.4878 40.5999 32.3378 40.3374C35.6503 39.8374 37.3128 39.2874 37.8128 39.1249C37.8089 39.1164 37.8048 39.1081 37.8003 39.0999L38.1503 38.9624Z" fill="#FFFF00" stroke="black" stroke-width="0.075" stroke-linecap="round" stroke-linejoin="round"/>
<path fill-rule="evenodd" clip-rule="evenodd" d="M38.2251 32.1749C38.2501 36.1749 36.2001 39.7749 34.5501 41.3624C32.1264 43.7196 28.8932 45.0612 25.5126 45.1124C21.4751 45.1874 17.6751 42.5499 16.6501 41.3999C14.6501 39.1374 13.0251 36.2749 12.9751 32.3999C13.2251 28.0249 14.9376 24.9874 17.4251 22.8999C19.8321 20.92 22.8585 19.8493 25.9751 19.8749C29.1501 19.9624 32.8751 21.5249 35.4376 24.6249C37.1126 26.6499 37.8501 28.8499 38.2251 32.1874V32.1749ZM25.5501 18.4749C33.3001 18.4749 39.6751 24.7874 39.6751 32.5124C39.652 36.2434 38.1536 39.8137 35.5072 42.4437C32.8607 45.0738 29.2812 46.5499 25.5501 46.5499C17.8001 46.5499 11.4751 40.2499 11.4751 32.5124C11.4751 24.7749 17.8001 18.4749 25.5501 18.4749Z" fill="#FFFF00" stroke="black" stroke-width="0.0875" stroke-linecap="round" stroke-linejoin="round"/>
<path fill-rule="evenodd" clip-rule="evenodd" d="M25.5875 18.4249C33.3375 18.4249 39.6625 24.7624 39.6625 32.5124C39.6625 40.2624 33.3375 46.5999 25.5875 46.5999C21.8521 46.5899 18.2728 45.1008 15.6327 42.4584C12.9925 39.8159 11.5066 36.2352 11.5 32.4999C11.5099 28.7667 12.9973 25.1892 15.6371 22.5494C18.2768 19.9096 21.8543 18.4223 25.5875 18.4124V18.4249ZM11.8125 32.5124C11.8125 40.0874 18.0375 46.2874 25.5875 46.2874C33.1375 46.2874 39.35 40.0874 39.35 32.5124C39.35 24.9374 33.1375 18.7499 25.5875 18.7499C21.9404 18.763 18.4462 20.2168 15.866 22.7946C13.2859 25.3723 11.829 28.8652 11.8125 32.5124Z" fill="#FFFF00" stroke="black" stroke-width="0.0875" stroke-linecap="round" stroke-linejoin="round"/>
<path fill-rule="evenodd" clip-rule="evenodd" d="M25.6 19.5999C32.6625 19.5999 38.4875 25.4124 38.4875 32.4999C38.4875 39.5999 32.6625 45.3999 25.6 45.3999C22.1806 45.39 18.9039 44.0281 16.4848 41.6114C14.0657 39.1946 12.7007 35.9192 12.6875 32.4999C12.6875 25.4124 18.5125 19.5999 25.5875 19.5999H25.6ZM13 32.4999C13 39.4249 18.6875 45.0874 25.6 45.0874C32.5 45.0874 38.1875 39.4249 38.1875 32.4999C38.1875 25.5749 32.5 19.9124 25.5875 19.9124C18.675 19.9124 13 25.5749 13 32.4999Z" fill="#FFFF00" stroke="black" stroke-width="0.0875" stroke-linecap="round" stroke-linejoin="round"/>
<path fill-rule="evenodd" clip-rule="evenodd" d="M26.1627 18.375H24.9502V46.675H26.1627V18.375Z" fill="#FFFF00" stroke="black" stroke-width="0.0875" stroke-linecap="round" stroke-linejoin="round"/>
<path fill-rule="evenodd" clip-rule="evenodd" d="M26.0379 18.2124H26.3504V46.8374H26.0379V18.2124ZM24.8379 18.2124H25.1504V46.8374H24.8379V18.2124Z" fill="#FFFF00" stroke="black" stroke-width="0.0875" stroke-linecap="round" stroke-linejoin="round"/>
<path fill-rule="evenodd" clip-rule="evenodd" d="M39.6752 33.0624V31.9999L38.8252 31.2124L33.9877 29.9249L27.0127 29.2124L18.6377 29.6374L12.6502 31.0624L11.4502 31.9624V32.9999L14.5002 31.6249L21.7502 30.4999H28.7252L33.8502 31.0624L37.4002 31.9249L39.6752 33.0624Z" fill="#FFFF00" stroke="black" stroke-width="0.0875" stroke-linecap="round" stroke-linejoin="round"/>
<path fill-rule="evenodd" clip-rule="evenodd" d="M25.5877 30.3375C28.6438 30.325 31.6945 30.597 34.7002 31.15C37.3377 31.675 39.2002 32.3375 39.8252 33.075V33.45C39.0752 32.525 36.5752 31.85 34.6377 31.45C32.1002 30.9625 28.8877 30.65 25.5877 30.65C22.0877 30.65 18.8377 30.9875 16.3377 31.475C14.3377 31.875 11.6627 32.6625 11.3252 33.45V33.075C11.5127 32.525 13.5002 31.7125 16.3002 31.15C19.3644 30.5941 22.4735 30.3221 25.5877 30.3375ZM25.5877 29.125C28.6479 29.1132 31.7027 29.3852 34.7127 29.9375C37.3377 30.4625 39.2127 31.125 39.8377 31.875V32.2375C39.0752 31.3125 36.5627 30.6375 34.6377 30.25C32.1002 29.75 28.8877 29.4375 25.5877 29.4375C22.4939 29.4279 19.4057 29.7041 16.3627 30.2625C14.4252 30.6375 11.6377 31.4625 11.3252 32.2375V31.8625C11.5127 31.325 13.5502 30.4875 16.3002 29.95C19.3641 29.3899 22.4731 29.1137 25.5877 29.125ZM25.5252 22.9625C30.7627 22.9375 35.3377 23.7 37.4252 24.775L38.1877 26.0875C36.3752 25.1125 31.4377 24.0875 25.5252 24.25C20.7127 24.275 15.5752 24.775 12.9877 26.15L13.9002 24.625C16.0252 23.525 21.0252 22.975 25.5252 22.9625Z" fill="#FFFF00" stroke="black" stroke-width="0.0875" stroke-linecap="round" stroke-linejoin="round"/>
<path fill-rule="evenodd" clip-rule="evenodd" d="M25.5879 24.05C28.5879 24.05 31.4629 24.2125 33.7629 24.625C35.9004 25.025 37.9504 25.625 38.2379 25.95L38.4629 26.35C37.7504 25.8875 35.9879 25.3625 33.7129 24.9375C31.0266 24.5096 28.3075 24.3214 25.5879 24.375C22.2129 24.375 19.5879 24.5375 17.3379 24.9375C14.9629 25.375 13.3129 26.0125 12.9004 26.3125L13.1254 25.9C13.9129 25.4875 15.1754 25 17.2879 24.625C19.6129 24.2 22.2504 24.075 25.5879 24.05ZM25.5879 22.85C28.2279 22.8084 30.8667 22.9924 33.4754 23.4C35.2129 23.7375 36.9254 24.2625 37.5629 24.725L37.8879 25.25C37.3254 24.625 35.2129 24.0375 33.3379 23.7125C31.1629 23.3375 28.4504 23.1875 25.5879 23.1625C22.5879 23.1625 19.8129 23.35 17.6629 23.7375C15.6129 24.1375 14.2879 24.6 13.7254 24.9625L14.0129 24.5125C14.7879 24.1125 16.0379 23.7375 17.6129 23.425C19.7754 23.0375 22.5754 22.85 25.5879 22.85ZM32.5879 38.3625C30.2767 37.964 27.9326 37.7882 25.5879 37.8375C16.8504 37.9375 14.0379 39.625 13.6879 40.1375L13.0379 39.075C15.2504 37.4625 20.0004 36.5625 25.6254 36.65C28.5379 36.7 31.0504 36.9 33.1754 37.3L32.5754 38.3625" fill="#FFFF00"/>
<path d="M32.5879 38.3625C30.2767 37.964 27.9326 37.7882 25.5879 37.8375C16.8504 37.9375 14.0379 39.625 13.6879 40.1375L13.0379 39.075C15.2504 37.4625 20.0004 36.5625 25.6254 36.65C28.5379 36.7 31.0504 36.9 33.1754 37.3L32.5754 38.3625M25.5879 24.05C28.5879 24.05 31.4629 24.2125 33.7629 24.625C35.9004 25.025 37.9504 25.625 38.2379 25.95L38.4629 26.35C37.7504 25.8875 35.9879 25.3625 33.7129 24.9375C31.0266 24.5096 28.3075 24.3214 25.5879 24.375C22.2129 24.375 19.5879 24.5375 17.3379 24.9375C14.9629 25.375 13.3129 26.0125 12.9004 26.3125L13.1254 25.9C13.9129 25.4875 15.1754 25 17.2879 24.625C19.6129 24.2 22.2504 24.075 25.5879 24.05ZM25.5879 22.85C28.2279 22.8084 30.8667 22.9924 33.4754 23.4C35.2129 23.7375 36.9254 24.2625 37.5629 24.725L37.8879 25.25C37.3254 24.625 35.2129 24.0375 33.3379 23.7125C31.1629 23.3375 28.4504 23.1875 25.5879 23.1625C22.5879 23.1625 19.8129 23.35 17.6629 23.7375C15.6129 24.1375 14.2879 24.6 13.7254 24.9625L14.0129 24.5125C14.7879 24.1125 16.0379 23.7375 17.6129 23.425C19.7754 23.0375 22.5754 22.85 25.5879 22.85Z" stroke="black" stroke-width="0.0875" stroke-linecap="round" stroke-linejoin="round"/>
<path fill-rule="evenodd" clip-rule="evenodd" d="M25.5376 37.6874C27.9626 37.7249 30.3501 37.8124 32.6626 38.2499L32.4876 38.5499C30.197 38.1543 27.8743 37.9744 25.5501 38.0124C22.3251 37.9874 19.0501 38.2874 16.2251 39.0999C15.3251 39.3499 13.8501 39.9249 13.6876 40.3999L13.5251 40.1249C13.5751 39.8499 14.4751 39.2624 16.1501 38.7999C19.4001 37.8624 22.4376 37.7124 25.5251 37.6749L25.5376 37.6874ZM25.6501 36.4624C28.2104 36.4599 30.766 36.6816 33.2876 37.1249L33.1126 37.4374C30.6551 36.9878 28.1608 36.7702 25.6626 36.7874C22.4251 36.7874 19.0001 37.0249 15.8751 37.9249C14.8751 38.2249 13.1251 38.8499 13.0751 39.3499L12.9126 39.0624C12.9501 38.6124 14.4501 38.0124 15.8126 37.6124C19.0222 36.7729 22.3334 36.3858 25.6501 36.4624Z" fill="#FFFF00" stroke="black" stroke-width="0.075" stroke-linecap="round" stroke-linejoin="round"/>
<path fill-rule="evenodd" clip-rule="evenodd" d="M38.0502 39.2374L37.0002 40.8624L33.9877 38.1874L26.1627 32.9374L17.3502 28.0874L12.7627 26.5249L13.7377 24.7124L14.0752 24.5374L16.9252 25.2499L26.3002 30.0874L31.7127 33.4999L36.2502 36.7499L38.1002 38.8874L38.0502 39.2374Z" fill="#FFFF00" stroke="black" stroke-width="0.0875" stroke-linecap="round" stroke-linejoin="round"/>
<path fill-rule="evenodd" clip-rule="evenodd" d="M12.6003 26.5624C13.4128 26.0249 19.3128 28.6499 25.4753 32.3749C31.6378 36.1124 37.5253 40.3249 37.0003 41.1249L36.8253 41.3874L36.7378 41.4499C36.7628 41.4499 36.8503 41.3249 36.7378 41.0374C36.4628 40.1749 32.3003 36.8499 25.3628 32.6624C18.6128 28.6374 12.9878 26.2124 12.4253 26.9124L12.6003 26.5624ZM38.2628 39.2124C38.7628 38.2124 33.3003 34.0874 26.5128 30.0749C19.5753 26.1374 14.5628 23.8249 13.6503 24.5124L13.4503 24.8874C13.4503 24.8999 13.4503 24.8624 13.5003 24.8249C13.6628 24.6874 13.9378 24.6999 14.0628 24.6999C15.6378 24.7124 20.1378 26.7749 26.4378 30.3999C29.2003 31.9999 38.1128 37.7249 38.0753 39.3249C38.0753 39.4624 38.0878 39.4874 38.0378 39.5624L38.2628 39.2124Z" fill="#FFFF00" stroke="black" stroke-width="0.0875" stroke-linecap="round" stroke-linejoin="round"/>
<path d="M17.1479 34.059C17.1501 35.163 17.3711 36.2556 17.7983 37.2737C18.2256 38.2917 18.8505 39.2148 19.6368 39.9897C20.4137 40.7784 21.3389 41.4057 22.3592 41.8353C23.3795 42.2649 24.4747 42.4884 25.5817 42.4928C27.8222 42.4926 29.9709 41.6025 31.5551 40.0181C32.3387 39.239 32.9607 38.3127 33.3854 37.2925C33.8101 36.2723 34.029 35.1783 34.0298 34.0732V22.8092L17.1479 22.7808V34.059Z" fill="white" stroke="black" stroke-width="0.0995558"/>
<path d="M17.4609 34.0733C17.4639 35.1323 17.6766 36.1803 18.0867 37.1567C18.4968 38.1331 19.0962 39.0187 19.8503 39.7622C21.3645 41.2843 23.4206 42.1436 25.5676 42.1516C27.7108 42.1527 29.767 41.3037 31.285 39.7907C32.0365 39.0459 32.6332 38.1599 33.0409 37.1835C33.4485 36.2071 33.6589 35.1598 33.6601 34.1018V23.1506H17.4894V34.0733M30.4316 26.436V33.3907L30.4174 34.116C30.4222 34.7514 30.2987 35.3812 30.0543 35.9677C29.8099 36.5542 29.4497 37.0853 28.9952 37.5293C28.0908 38.4369 26.8631 38.9484 25.5818 38.9516C24.2449 38.9516 23.0645 38.3827 22.1827 37.5009C21.2752 36.5965 20.7636 35.3688 20.7605 34.0875V26.4075L30.4316 26.436Z" fill="#FF0000"/>
<path d="M17.4609 34.0733C17.4639 35.1323 17.6766 36.1803 18.0867 37.1567C18.4968 38.1331 19.0962 39.0187 19.8503 39.7622C21.3645 41.2843 23.4206 42.1436 25.5676 42.1516C27.7108 42.1527 29.767 41.3037 31.285 39.7907C32.0365 39.0459 32.6332 38.1599 33.0409 37.1835C33.4485 36.2071 33.6589 35.1598 33.6601 34.1018V23.1506H17.4894V34.0733M30.4316 26.436V33.3907L30.4174 34.116C30.4222 34.7514 30.2987 35.3812 30.0543 35.9677C29.8099 36.5542 29.4497 37.0853 28.9952 37.5293C28.0908 38.4369 26.8631 38.9484 25.5818 38.9516C24.2449 38.9516 23.0645 38.3827 22.1827 37.5009C21.2752 36.5965 20.7636 35.3688 20.7605 34.0875V26.4075L30.4316 26.436Z" stroke="black" stroke-width="0.0711113"/>
<path d="M18.5132 26.0091C18.5274 25.2269 19.0821 25.042 19.0821 25.042C19.0963 25.042 19.6936 25.2411 19.6936 26.0233H18.5132" fill="#FFFF00"/>
<path d="M18.0298 25.0562L17.9302 25.9522H18.5276C18.5276 25.2127 19.0965 25.0989 19.0965 25.0989C19.1107 25.0989 19.6654 25.2553 19.6796 25.9522H20.2769L20.1631 25.042H18.0298V25.0562ZM17.8876 25.9664H20.3054C20.348 25.9664 20.3907 26.0091 20.3907 26.066C20.3907 26.1371 20.348 26.1798 20.3054 26.1798H17.8876C17.8449 26.1798 17.8022 26.1371 17.8022 26.066C17.8022 26.0091 17.8449 25.9664 17.9018 25.9664H17.8876Z" fill="#FFFF00" stroke="black" stroke-width="0.0711113"/>
<path d="M18.7696 25.9522C18.7696 25.4829 19.0967 25.3549 19.0967 25.3549C19.0967 25.3549 19.4238 25.4971 19.4238 25.9522H18.7696ZM17.9447 24.6722H20.2629C20.3056 24.6722 20.3483 24.7291 20.3483 24.786C20.3483 24.8287 20.3056 24.8713 20.2629 24.8713H17.9447C17.902 24.8713 17.8594 24.8287 17.8594 24.7718C17.8594 24.7291 17.902 24.6864 17.9447 24.6864V24.6722ZM18.0016 24.8855H20.1918C20.2345 24.8855 20.2772 24.9282 20.2772 24.9851C20.2772 25.042 20.2345 25.0847 20.1918 25.0847H17.9874C17.9305 25.0847 17.902 25.042 17.902 24.9851C17.902 24.9282 17.9305 24.8855 17.9874 24.8855H18.0016ZM18.7127 23.378H18.8834V23.4918H19.0114V23.378H19.1963V23.506H19.3243V23.3638H19.4949V23.6482C19.4949 23.7051 19.4665 23.7335 19.4238 23.7335H18.798C18.7554 23.7335 18.7127 23.7051 18.7127 23.6624V23.378ZM19.3669 23.762L19.4096 24.6722H18.798L18.8407 23.7478H19.3669" fill="#FFFF00"/>
<path d="M19.3669 23.762L19.4096 24.6722H18.798L18.8407 23.7478H19.3669M18.7696 25.9522C18.7696 25.4829 19.0967 25.3549 19.0967 25.3549C19.0967 25.3549 19.4238 25.4971 19.4238 25.9522H18.7696ZM17.9447 24.6722H20.2629C20.3056 24.6722 20.3483 24.7291 20.3483 24.786C20.3483 24.8287 20.3056 24.8713 20.2629 24.8713H17.9447C17.902 24.8713 17.8594 24.8287 17.8594 24.7718C17.8594 24.7291 17.902 24.6864 17.9447 24.6864V24.6722ZM18.0016 24.8855H20.1918C20.2345 24.8855 20.2772 24.9282 20.2772 24.9851C20.2772 25.042 20.2345 25.0847 20.1918 25.0847H17.9874C17.9305 25.0847 17.902 25.042 17.902 24.9851C17.902 24.9282 17.9305 24.8855 17.9874 24.8855H18.0016ZM18.7127 23.378H18.8834V23.4918H19.0114V23.378H19.1963V23.506H19.3243V23.3638H19.4949V23.6482C19.4949 23.7051 19.4665 23.7335 19.4238 23.7335H18.798C18.7554 23.7335 18.7127 23.7051 18.7127 23.6624V23.378Z" stroke="black" stroke-width="0.0711113"/>
<path d="M18.627 24.1887V24.6723H18.0581V24.1887H18.627Z" fill="#FFFF00" stroke="black" stroke-width="0.0711113"/>
<path d="M18.627 24.1887V24.6723H18.0581V24.1887H18.627Z" fill="#FFFF00" stroke="black" stroke-width="0.0711113"/>
<path d="M17.9585 23.8188H18.1292V23.9611H18.2572V23.8188H18.4278V23.9611H18.5558V23.8188H18.7265V24.1033C18.7265 24.1602 18.6981 24.1886 18.6554 24.1886H18.0438C18.0212 24.1886 17.9995 24.1796 17.9835 24.1636C17.9675 24.1476 17.9585 24.1259 17.9585 24.1033V23.8188Z" fill="#FFFF00" stroke="black" stroke-width="0.0711113"/>
<path d="M17.9585 23.8188H18.1292V23.9611H18.2572V23.8188H18.4278V23.9611H18.5558V23.8188H18.7265V24.1033C18.7265 24.1602 18.6981 24.1886 18.6554 24.1886H18.0438C18.0212 24.1886 17.9995 24.1796 17.9835 24.1636C17.9675 24.1476 17.9585 24.1259 17.9585 24.1033V23.8188Z" fill="#FFFF00" stroke="black" stroke-width="0.0711113"/>
<path d="M19.0396 24.0464C19.0396 23.9611 19.1676 23.9611 19.1676 24.0464V24.274H19.0396V24.0464Z" fill="black"/>
<path d="M18.2856 24.3594C18.2856 24.2741 18.3994 24.2741 18.3994 24.3594V24.5301H18.2856V24.3594Z" fill="black"/>
<path d="M18.2856 24.3594C18.2856 24.2741 18.3994 24.2741 18.3994 24.3594V24.5301H18.2856V24.3594Z" fill="black"/>
<path d="M18.5132 26.0091C18.5274 25.2269 19.0821 25.042 19.0821 25.042C19.0963 25.042 19.6936 25.2411 19.6936 26.0233H18.5132" fill="#FFFF00"/>
<path d="M18.0298 25.0562L17.9302 25.9522H18.5276C18.5276 25.2127 19.0965 25.0989 19.0965 25.0989C19.1107 25.0989 19.6654 25.2553 19.6796 25.9522H20.2769L20.1631 25.042H18.0298V25.0562ZM17.8876 25.9664H20.3054C20.348 25.9664 20.3907 26.0091 20.3907 26.066C20.3907 26.1371 20.348 26.1798 20.3054 26.1798H17.8876C17.8449 26.1798 17.8022 26.1371 17.8022 26.066C17.8022 26.0091 17.8449 25.9664 17.9018 25.9664H17.8876Z" fill="#FFFF00" stroke="black" stroke-width="0.0711113"/>
<path d="M18.7696 25.9522C18.7696 25.4829 19.0967 25.3549 19.0967 25.3549C19.0967 25.3549 19.4238 25.4971 19.4238 25.9522H18.7696ZM17.9447 24.6722H20.2629C20.3056 24.6722 20.3483 24.7291 20.3483 24.786C20.3483 24.8287 20.3056 24.8713 20.2629 24.8713H17.9447C17.902 24.8713 17.8594 24.8287 17.8594 24.7718C17.8594 24.7291 17.902 24.6864 17.9447 24.6864V24.6722ZM18.0016 24.8855H20.1918C20.2345 24.8855 20.2772 24.9282 20.2772 24.9851C20.2772 25.042 20.2345 25.0847 20.1918 25.0847H17.9874C17.9305 25.0847 17.902 25.042 17.902 24.9851C17.902 24.9282 17.9305 24.8855 17.9874 24.8855H18.0016ZM18.7127 23.378H18.8834V23.4918H19.0114V23.378H19.1963V23.506H19.3243V23.3638H19.4949V23.6482C19.4949 23.7051 19.4665 23.7335 19.4238 23.7335H18.798C18.7554 23.7335 18.7127 23.7051 18.7127 23.6624V23.378ZM19.3669 23.762L19.4096 24.6722H18.798L18.8407 23.7478H19.3669" fill="#FFFF00"/>
<path d="M19.3669 23.762L19.4096 24.6722H18.798L18.8407 23.7478H19.3669M18.7696 25.9522C18.7696 25.4829 19.0967 25.3549 19.0967 25.3549C19.0967 25.3549 19.4238 25.4971 19.4238 25.9522H18.7696ZM17.9447 24.6722H20.2629C20.3056 24.6722 20.3483 24.7291 20.3483 24.786C20.3483 24.8287 20.3056 24.8713 20.2629 24.8713H17.9447C17.902 24.8713 17.8594 24.8287 17.8594 24.7718C17.8594 24.7291 17.902 24.6864 17.9447 24.6864V24.6722ZM18.0016 24.8855H20.1918C20.2345 24.8855 20.2772 24.9282 20.2772 24.9851C20.2772 25.042 20.2345 25.0847 20.1918 25.0847H17.9874C17.9305 25.0847 17.902 25.042 17.902 24.9851C17.902 24.9282 17.9305 24.8855 17.9874 24.8855H18.0016ZM18.7127 23.378H18.8834V23.4918H19.0114V23.378H19.1963V23.506H19.3243V23.3638H19.4949V23.6482C19.4949 23.7051 19.4665 23.7335 19.4238 23.7335H18.798C18.7554 23.7335 18.7127 23.7051 18.7127 23.6624V23.378Z" stroke="black" stroke-width="0.0711113"/>
<path d="M18.627 24.1887V24.6723H18.0581V24.1887H18.627Z" fill="#FFFF00" stroke="black" stroke-width="0.0711113"/>
<path d="M18.627 24.1887V24.6723H18.0581V24.1887H18.627Z" fill="#FFFF00" stroke="black" stroke-width="0.0711113"/>
<path d="M17.9585 23.8188H18.1292V23.9611H18.2572V23.8188H18.4278V23.9611H18.5558V23.8188H18.7265V24.1033C18.7265 24.1602 18.6981 24.1886 18.6554 24.1886H18.0438C18.0212 24.1886 17.9995 24.1796 17.9835 24.1636C17.9675 24.1476 17.9585 24.1259 17.9585 24.1033V23.8188Z" fill="#FFFF00" stroke="black" stroke-width="0.0711113"/>
<path d="M17.9585 23.8188H18.1292V23.9611H18.2572V23.8188H18.4278V23.9611H18.5558V23.8188H18.7265V24.1033C18.7265 24.1602 18.6981 24.1886 18.6554 24.1886H18.0438C18.0212 24.1886 17.9995 24.1796 17.9835 24.1636C17.9675 24.1476 17.9585 24.1259 17.9585 24.1033V23.8188Z" fill="#FFFF00" stroke="black" stroke-width="0.0711113"/>
<path d="M19.0396 24.0464C19.0396 23.9611 19.1676 23.9611 19.1676 24.0464V24.274H19.0396V24.0464Z" fill="black"/>
<path d="M18.2856 24.3594C18.2856 24.2741 18.3994 24.2741 18.3994 24.3594V24.5301H18.2856V24.3594Z" fill="black"/>
<path d="M18.2856 24.3594C18.2856 24.2741 18.3994 24.2741 18.3994 24.3594V24.5301H18.2856V24.3594Z" fill="black"/>
<path d="M21.0798 39.4569C20.5348 38.8956 20.7944 38.3717 20.7944 38.3717C20.8044 38.3616 21.3666 38.0781 21.9217 38.6293L21.0899 39.4669" fill="#FFFF00"/>
<path d="M20.063 39.1286L20.6286 39.8306L21.0495 39.4067C20.5248 38.8856 20.8449 38.4018 20.8449 38.4018C20.8549 38.3917 21.3568 38.1083 21.8613 38.5893L22.2822 38.1654L21.5561 37.6048L20.0529 39.1186L20.063 39.1286ZM20.6087 39.8709L22.3123 38.1553C22.3424 38.125 22.4027 38.1248 22.4431 38.1649C22.4935 38.215 22.4938 38.2753 22.4637 38.3056L20.76 40.0212C20.73 40.0515 20.6696 40.0517 20.6192 40.0016C20.5788 39.9615 20.5786 39.9012 20.6187 39.8608L20.6087 39.8709Z" fill="#FFFF00" stroke="black" stroke-width="0.0711113"/>
<path d="M21.2198 39.2352C20.8867 38.9045 21.0264 38.5822 21.0264 38.5822C21.0264 38.5822 21.3578 38.4503 21.6808 38.771L21.2198 39.2352ZM19.7303 38.9186L21.3638 37.2736C21.3938 37.2433 21.4643 37.2531 21.5046 37.2932C21.5349 37.3233 21.5351 37.3836 21.505 37.4139L19.8715 39.0589C19.8415 39.0891 19.7811 39.0893 19.7408 39.0493C19.7105 39.0192 19.7103 38.9589 19.7404 38.9286L19.7303 38.9186ZM19.9217 39.0285L21.465 37.4744C21.4951 37.4441 21.5554 37.4439 21.5958 37.484C21.6362 37.5241 21.6364 37.5844 21.6063 37.6147L20.053 39.1789C20.0129 39.2193 19.9626 39.2094 19.9222 39.1693C19.8818 39.1292 19.8716 39.079 19.9117 39.0386L19.9217 39.0285ZM19.3531 37.4616L19.4733 37.3405L19.5541 37.4207L19.6443 37.3299L19.5635 37.2497L19.6938 37.1185L19.7846 37.2087L19.8748 37.1179L19.7739 37.0177L19.8942 36.8966L20.096 37.097C20.1364 37.1371 20.1365 37.1773 20.1064 37.2076L19.6655 37.6516C19.6354 37.6819 19.5852 37.6921 19.5549 37.6621L19.3531 37.4616ZM20.0865 37.268L20.7625 37.8791L20.3316 38.3131L19.7057 37.6314L20.0765 37.258" fill="#FFFF00"/>
<path d="M20.0865 37.268L20.7625 37.8791L20.3316 38.3131L19.7057 37.6314L20.0765 37.258M21.2198 39.2352C20.8867 38.9045 21.0264 38.5822 21.0264 38.5822C21.0264 38.5822 21.3578 38.4503 21.6808 38.771L21.2198 39.2352ZM19.7303 38.9186L21.3638 37.2736C21.3938 37.2433 21.4643 37.2531 21.5046 37.2932C21.5349 37.3233 21.5351 37.3836 21.505 37.4139L19.8715 39.0589C19.8415 39.0891 19.7811 39.0893 19.7408 39.0493C19.7105 39.0192 19.7103 38.9589 19.7404 38.9286L19.7303 38.9186ZM19.9217 39.0285L21.465 37.4744C21.4951 37.4441 21.5554 37.4439 21.5958 37.484C21.6362 37.5241 21.6364 37.5844 21.6063 37.6147L20.053 39.1789C20.0129 39.2193 19.9626 39.2094 19.9222 39.1693C19.8818 39.1292 19.8716 39.079 19.9117 39.0386L19.9217 39.0285ZM19.3531 37.4616L19.4733 37.3405L19.5541 37.4207L19.6443 37.3299L19.5635 37.2497L19.6938 37.1185L19.7846 37.2087L19.8748 37.1179L19.7739 37.0177L19.8942 36.8966L20.096 37.097C20.1364 37.1371 20.1365 37.1773 20.1064 37.2076L19.6655 37.6516C19.6354 37.6819 19.5852 37.6921 19.5549 37.6621L19.3531 37.4616Z" stroke="black" stroke-width="0.0711113"/>
<path d="M19.8681 38.0934L20.2113 38.4341L19.8104 38.8378L19.4673 38.4971L19.8681 38.0934Z" fill="#FFFF00" stroke="black" stroke-width="0.0711113"/>
<path d="M19.8681 38.0934L20.2113 38.4341L19.8104 38.8378L19.4673 38.4971L19.8681 38.0934Z" fill="#FFFF00" stroke="black" stroke-width="0.0711113"/>
<path d="M19.1348 38.3071L19.255 38.186L19.3559 38.2862L19.4461 38.1954L19.3452 38.0952L19.4655 37.9741L19.5664 38.0743L19.6566 37.9835L19.5557 37.8833L19.6759 37.7622L19.8778 37.9626C19.9181 38.0027 19.9183 38.0429 19.8882 38.0732L19.4573 38.5071C19.4413 38.5232 19.4197 38.5323 19.397 38.5323C19.3744 38.5324 19.3527 38.5235 19.3366 38.5076L19.1348 38.3071Z" fill="#FFFF00" stroke="black" stroke-width="0.0711113"/>
<path d="M19.1348 38.3071L19.255 38.186L19.3559 38.2862L19.4461 38.1954L19.3452 38.0952L19.4655 37.9741L19.5664 38.0743L19.6566 37.9835L19.5557 37.8833L19.6759 37.7622L19.8778 37.9626C19.9181 38.0027 19.9183 38.0429 19.8882 38.0732L19.4573 38.5071C19.4413 38.5232 19.4197 38.5323 19.397 38.5323C19.3744 38.5324 19.3527 38.5235 19.3366 38.5076L19.1348 38.3071Z" fill="#FFFF00" stroke="black" stroke-width="0.0711113"/>
<path d="M20.0581 37.7004C19.9976 37.6402 20.0878 37.5494 20.1483 37.6095L20.3098 37.7699L20.2196 37.8607L20.0581 37.7004Z" fill="black"/>
<path d="M19.749 38.4557C19.6885 38.3956 19.7686 38.3149 19.8292 38.375L19.9503 38.4953L19.8701 38.576L19.749 38.4557Z" fill="black"/>
<path d="M19.749 38.4557C19.6885 38.3956 19.7686 38.3149 19.8292 38.375L19.9503 38.4953L19.8701 38.576L19.749 38.4557Z" fill="black"/>
<path d="M18.5132 26.0091C18.5274 25.2269 19.0821 25.042 19.0821 25.042C19.0963 25.042 19.6936 25.2411 19.6936 26.0233H18.5132" fill="#FFFF00"/>
<path d="M18.0298 25.0562L17.9302 25.9522H18.5276C18.5276 25.2127 19.0965 25.0989 19.0965 25.0989C19.1107 25.0989 19.6654 25.2553 19.6796 25.9522H20.2769L20.1631 25.042H18.0298V25.0562ZM17.8876 25.9664H20.3054C20.348 25.9664 20.3907 26.0091 20.3907 26.066C20.3907 26.1371 20.348 26.1798 20.3054 26.1798H17.8876C17.8449 26.1798 17.8022 26.1371 17.8022 26.066C17.8022 26.0091 17.8449 25.9664 17.9018 25.9664H17.8876Z" fill="#FFFF00" stroke="black" stroke-width="0.0711113"/>
<path d="M18.7696 25.9522C18.7696 25.4829 19.0967 25.3549 19.0967 25.3549C19.0967 25.3549 19.4238 25.4971 19.4238 25.9522H18.7696ZM17.9447 24.6722H20.2629C20.3056 24.6722 20.3483 24.7291 20.3483 24.786C20.3483 24.8287 20.3056 24.8713 20.2629 24.8713H17.9447C17.902 24.8713 17.8594 24.8287 17.8594 24.7718C17.8594 24.7291 17.902 24.6864 17.9447 24.6864V24.6722ZM18.0016 24.8855H20.1918C20.2345 24.8855 20.2772 24.9282 20.2772 24.9851C20.2772 25.042 20.2345 25.0847 20.1918 25.0847H17.9874C17.9305 25.0847 17.902 25.042 17.902 24.9851C17.902 24.9282 17.9305 24.8855 17.9874 24.8855H18.0016ZM18.7127 23.378H18.8834V23.4918H19.0114V23.378H19.1963V23.506H19.3243V23.3638H19.4949V23.6482C19.4949 23.7051 19.4665 23.7335 19.4238 23.7335H18.798C18.7554 23.7335 18.7127 23.7051 18.7127 23.6624V23.378ZM19.3669 23.762L19.4096 24.6722H18.798L18.8407 23.7478H19.3669" fill="#FFFF00"/>
<path d="M19.3669 23.762L19.4096 24.6722H18.798L18.8407 23.7478H19.3669M18.7696 25.9522C18.7696 25.4829 19.0967 25.3549 19.0967 25.3549C19.0967 25.3549 19.4238 25.4971 19.4238 25.9522H18.7696ZM17.9447 24.6722H20.2629C20.3056 24.6722 20.3483 24.7291 20.3483 24.786C20.3483 24.8287 20.3056 24.8713 20.2629 24.8713H17.9447C17.902 24.8713 17.8594 24.8287 17.8594 24.7718C17.8594 24.7291 17.902 24.6864 17.9447 24.6864V24.6722ZM18.0016 24.8855H20.1918C20.2345 24.8855 20.2772 24.9282 20.2772 24.9851C20.2772 25.042 20.2345 25.0847 20.1918 25.0847H17.9874C17.9305 25.0847 17.902 25.042 17.902 24.9851C17.902 24.9282 17.9305 24.8855 17.9874 24.8855H18.0016ZM18.7127 23.378H18.8834V23.4918H19.0114V23.378H19.1963V23.506H19.3243V23.3638H19.4949V23.6482C19.4949 23.7051 19.4665 23.7335 19.4238 23.7335H18.798C18.7554 23.7335 18.7127 23.7051 18.7127 23.6624V23.378Z" stroke="black" stroke-width="0.0711113"/>
<path d="M18.627 24.1887V24.6723H18.0581V24.1887H18.627Z" fill="#FFFF00" stroke="black" stroke-width="0.0711113"/>
<path d="M18.627 24.1887V24.6723H18.0581V24.1887H18.627Z" fill="#FFFF00" stroke="black" stroke-width="0.0711113"/>
<path d="M17.9585 23.8188H18.1292V23.9611H18.2572V23.8188H18.4278V23.9611H18.5558V23.8188H18.7265V24.1033C18.7265 24.1602 18.6981 24.1886 18.6554 24.1886H18.0438C18.0212 24.1886 17.9995 24.1796 17.9835 24.1636C17.9675 24.1476 17.9585 24.1259 17.9585 24.1033V23.8188Z" fill="#FFFF00" stroke="black" stroke-width="0.0711113"/>
<path d="M17.9585 23.8188H18.1292V23.9611H18.2572V23.8188H18.4278V23.9611H18.5558V23.8188H18.7265V24.1033C18.7265 24.1602 18.6981 24.1886 18.6554 24.1886H18.0438C18.0212 24.1886 17.9995 24.1796 17.9835 24.1636C17.9675 24.1476 17.9585 24.1259 17.9585 24.1033V23.8188Z" fill="#FFFF00" stroke="black" stroke-width="0.0711113"/>
<path d="M19.0396 24.0464C19.0396 23.9611 19.1676 23.9611 19.1676 24.0464V24.274H19.0396V24.0464Z" fill="black"/>
<path d="M18.2856 24.3594C18.2856 24.2741 18.3994 24.2741 18.3994 24.3594V24.5301H18.2856V24.3594Z" fill="black"/>
<path d="M18.2856 24.3594C18.2856 24.2741 18.3994 24.2741 18.3994 24.3594V24.5301H18.2856V24.3594Z" fill="black"/>
<path d="M32.6504 26.0091C32.6362 25.2269 32.0815 25.042 32.0815 25.042C32.0673 25.042 31.4699 25.2411 31.4699 26.0233H32.6504" fill="#FFFF00"/>
<path d="M33.1338 25.0562L33.2333 25.9522H32.636C32.636 25.2127 32.0671 25.0989 32.0671 25.0989C32.0529 25.0989 31.4982 25.2553 31.484 25.9522H30.8867L31.0004 25.042H33.1338V25.0562ZM33.276 25.9664H30.8582C30.8155 25.9664 30.7729 26.0091 30.7729 26.066C30.7729 26.1371 30.8155 26.1798 30.8582 26.1798H33.276C33.3187 26.1798 33.3613 26.1371 33.3613 26.066C33.3613 26.0091 33.3187 25.9664 33.2618 25.9664H33.276Z" fill="#FFFF00" stroke="black" stroke-width="0.0711113"/>
<path d="M32.3945 25.9522C32.3945 25.4829 32.0674 25.3549 32.0674 25.3549C32.0674 25.3549 31.7402 25.4971 31.7402 25.9522H32.3945ZM33.2194 24.6722H30.9011C30.8585 24.6722 30.8158 24.7291 30.8158 24.786C30.8158 24.8287 30.8585 24.8713 30.9011 24.8713H33.2194C33.262 24.8713 33.3047 24.8287 33.3047 24.7718C33.3047 24.7291 33.262 24.6864 33.2194 24.6864V24.6722ZM33.1625 24.8855H30.9722C30.9296 24.8855 30.8869 24.9282 30.8869 24.9851C30.8869 25.042 30.9296 25.0847 30.9722 25.0847H33.1767C33.2336 25.0847 33.262 25.042 33.262 24.9851C33.262 24.9282 33.2336 24.8855 33.1767 24.8855H33.1625ZM32.4514 23.378H32.2807V23.4918H32.1527V23.378H31.9678V23.506H31.8398V23.3638H31.6691V23.6482C31.6691 23.7051 31.6976 23.7335 31.7402 23.7335H32.366C32.4087 23.7335 32.4514 23.7051 32.4514 23.6624V23.378ZM31.7971 23.762L31.7545 24.6722H32.366L32.3234 23.7478H31.7971" fill="#FFFF00"/>
<path d="M31.7971 23.762L31.7545 24.6722H32.366L32.3234 23.7478H31.7971M32.3945 25.9522C32.3945 25.4829 32.0674 25.3549 32.0674 25.3549C32.0674 25.3549 31.7402 25.4971 31.7402 25.9522H32.3945ZM33.2194 24.6722H30.9011C30.8585 24.6722 30.8158 24.7291 30.8158 24.786C30.8158 24.8287 30.8585 24.8713 30.9011 24.8713H33.2194C33.262 24.8713 33.3047 24.8287 33.3047 24.7718C33.3047 24.7291 33.262 24.6864 33.2194 24.6864V24.6722ZM33.1625 24.8855H30.9722C30.9296 24.8855 30.8869 24.9282 30.8869 24.9851C30.8869 25.042 30.9296 25.0847 30.9722 25.0847H33.1767C33.2336 25.0847 33.262 25.042 33.262 24.9851C33.262 24.9282 33.2336 24.8855 33.1767 24.8855H33.1625ZM32.4514 23.378H32.2807V23.4918H32.1527V23.378H31.9678V23.506H31.8398V23.3638H31.6691V23.6482C31.6691 23.7051 31.6976 23.7335 31.7402 23.7335H32.366C32.4087 23.7335 32.4514 23.7051 32.4514 23.6624V23.378Z" stroke="black" stroke-width="0.0711113"/>
<path d="M32.5366 24.1887V24.6723H33.1055V24.1887H32.5366Z" fill="#FFFF00" stroke="black" stroke-width="0.0711113"/>
<path d="M32.5366 24.1887V24.6723H33.1055V24.1887H32.5366Z" fill="#FFFF00" stroke="black" stroke-width="0.0711113"/>
<path d="M33.2051 23.8188H33.0344V23.9611H32.9064V23.8188H32.7357V23.9611H32.6077V23.8188H32.4371V24.1033C32.4371 24.1602 32.4655 24.1886 32.5082 24.1886H33.1197C33.1424 24.1886 33.1641 24.1796 33.1801 24.1636C33.1961 24.1476 33.2051 24.1259 33.2051 24.1033V23.8188Z" fill="#FFFF00" stroke="black" stroke-width="0.0711113"/>
<path d="M33.2051 23.8188H33.0344V23.9611H32.9064V23.8188H32.7357V23.9611H32.6077V23.8188H32.4371V24.1033C32.4371 24.1602 32.4655 24.1886 32.5082 24.1886H33.1197C33.1424 24.1886 33.1641 24.1796 33.1801 24.1636C33.1961 24.1476 33.2051 24.1259 33.2051 24.1033V23.8188Z" fill="#FFFF00" stroke="black" stroke-width="0.0711113"/>
<path d="M32.124 24.0464C32.124 23.9611 31.996 23.9611 31.996 24.0464V24.274H32.124V24.0464Z" fill="black"/>
<path d="M32.8779 24.3594C32.8779 24.2741 32.7642 24.2741 32.7642 24.3594V24.5301H32.8779V24.3594Z" fill="black"/>
<path d="M32.8779 24.3594C32.8779 24.2741 32.7642 24.2741 32.7642 24.3594V24.5301H32.8779V24.3594Z" fill="black"/>
<path d="M32.6504 26.0091C32.6362 25.2269 32.0815 25.042 32.0815 25.042C32.0673 25.042 31.4699 25.2411 31.4699 26.0233H32.6504" fill="#FFFF00"/>
<path d="M33.1338 25.0562L33.2333 25.9522H32.636C32.636 25.2127 32.0671 25.0989 32.0671 25.0989C32.0529 25.0989 31.4982 25.2553 31.484 25.9522H30.8867L31.0004 25.042H33.1338V25.0562ZM33.276 25.9664H30.8582C30.8155 25.9664 30.7729 26.0091 30.7729 26.066C30.7729 26.1371 30.8155 26.1798 30.8582 26.1798H33.276C33.3187 26.1798 33.3613 26.1371 33.3613 26.066C33.3613 26.0091 33.3187 25.9664 33.2618 25.9664H33.276Z" fill="#FFFF00" stroke="black" stroke-width="0.0711113"/>
<path d="M32.3945 25.9522C32.3945 25.4829 32.0674 25.3549 32.0674 25.3549C32.0674 25.3549 31.7402 25.4971 31.7402 25.9522H32.3945ZM33.2194 24.6722H30.9011C30.8585 24.6722 30.8158 24.7291 30.8158 24.786C30.8158 24.8287 30.8585 24.8713 30.9011 24.8713H33.2194C33.262 24.8713 33.3047 24.8287 33.3047 24.7718C33.3047 24.7291 33.262 24.6864 33.2194 24.6864V24.6722ZM33.1625 24.8855H30.9722C30.9296 24.8855 30.8869 24.9282 30.8869 24.9851C30.8869 25.042 30.9296 25.0847 30.9722 25.0847H33.1767C33.2336 25.0847 33.262 25.042 33.262 24.9851C33.262 24.9282 33.2336 24.8855 33.1767 24.8855H33.1625ZM32.4514 23.378H32.2807V23.4918H32.1527V23.378H31.9678V23.506H31.8398V23.3638H31.6691V23.6482C31.6691 23.7051 31.6976 23.7335 31.7402 23.7335H32.366C32.4087 23.7335 32.4514 23.7051 32.4514 23.6624V23.378ZM31.7971 23.762L31.7545 24.6722H32.366L32.3234 23.7478H31.7971" fill="#FFFF00"/>
<path d="M31.7971 23.762L31.7545 24.6722H32.366L32.3234 23.7478H31.7971M32.3945 25.9522C32.3945 25.4829 32.0674 25.3549 32.0674 25.3549C32.0674 25.3549 31.7402 25.4971 31.7402 25.9522H32.3945ZM33.2194 24.6722H30.9011C30.8585 24.6722 30.8158 24.7291 30.8158 24.786C30.8158 24.8287 30.8585 24.8713 30.9011 24.8713H33.2194C33.262 24.8713 33.3047 24.8287 33.3047 24.7718C33.3047 24.7291 33.262 24.6864 33.2194 24.6864V24.6722ZM33.1625 24.8855H30.9722C30.9296 24.8855 30.8869 24.9282 30.8869 24.9851C30.8869 25.042 30.9296 25.0847 30.9722 25.0847H33.1767C33.2336 25.0847 33.262 25.042 33.262 24.9851C33.262 24.9282 33.2336 24.8855 33.1767 24.8855H33.1625ZM32.4514 23.378H32.2807V23.4918H32.1527V23.378H31.9678V23.506H31.8398V23.3638H31.6691V23.6482C31.6691 23.7051 31.6976 23.7335 31.7402 23.7335H32.366C32.4087 23.7335 32.4514 23.7051 32.4514 23.6624V23.378Z" stroke="black" stroke-width="0.0711113"/>
<path d="M32.5366 24.1887V24.6723H33.1055V24.1887H32.5366Z" fill="#FFFF00" stroke="black" stroke-width="0.0711113"/>
<path d="M32.5366 24.1887V24.6723H33.1055V24.1887H32.5366Z" fill="#FFFF00" stroke="black" stroke-width="0.0711113"/>
<path d="M33.2051 23.8188H33.0344V23.9611H32.9064V23.8188H32.7357V23.9611H32.6077V23.8188H32.4371V24.1033C32.4371 24.1602 32.4655 24.1886 32.5082 24.1886H33.1197C33.1424 24.1886 33.1641 24.1796 33.1801 24.1636C33.1961 24.1476 33.2051 24.1259 33.2051 24.1033V23.8188Z" fill="#FFFF00" stroke="black" stroke-width="0.0711113"/>
<path d="M33.2051 23.8188H33.0344V23.9611H32.9064V23.8188H32.7357V23.9611H32.6077V23.8188H32.4371V24.1033C32.4371 24.1602 32.4655 24.1886 32.5082 24.1886H33.1197C33.1424 24.1886 33.1641 24.1796 33.1801 24.1636C33.1961 24.1476 33.2051 24.1259 33.2051 24.1033V23.8188Z" fill="#FFFF00" stroke="black" stroke-width="0.0711113"/>
<path d="M32.124 24.0464C32.124 23.9611 31.996 23.9611 31.996 24.0464V24.274H32.124V24.0464Z" fill="black"/>
<path d="M32.8779 24.3594C32.8779 24.2741 32.7642 24.2741 32.7642 24.3594V24.5301H32.8779V24.3594Z" fill="black"/>
<path d="M32.8779 24.3594C32.8779 24.2741 32.7642 24.2741 32.7642 24.3594V24.5301H32.8779V24.3594Z" fill="black"/>
<path d="M30.0838 39.4569C30.6288 38.8956 30.3692 38.3717 30.3692 38.3717C30.3591 38.3616 29.797 38.0781 29.2419 38.6293L30.0737 39.4669" fill="#FFFF00"/>
<path d="M31.1006 39.1286L30.5349 39.8306L30.114 39.4067C30.6388 38.8856 30.3187 38.4018 30.3187 38.4018C30.3087 38.3917 29.8068 38.1083 29.3023 38.5893L28.8814 38.1654L29.6074 37.6048L31.1107 39.1186L31.1006 39.1286ZM30.5549 39.8709L28.8513 38.1553C28.8212 38.125 28.7609 38.1248 28.7205 38.1649C28.67 38.215 28.6698 38.2753 28.6999 38.3056L30.4035 40.0212C30.4336 40.0515 30.4939 40.0517 30.5444 40.0016C30.5848 39.9615 30.585 39.9012 30.5449 39.8608L30.5549 39.8709Z" fill="#FFFF00" stroke="black" stroke-width="0.0711113"/>
<path d="M29.9438 39.2352C30.2768 38.9045 30.1372 38.5822 30.1372 38.5822C30.1372 38.5822 29.8058 38.4503 29.4828 38.771L29.9438 39.2352ZM31.4333 38.9186L29.7998 37.2736C29.7697 37.2433 29.6993 37.2531 29.6589 37.2932C29.6287 37.3233 29.6285 37.3836 29.6585 37.4139L31.292 39.0589C31.3221 39.0891 31.3824 39.0893 31.4228 39.0493C31.4531 39.0192 31.4533 38.9589 31.4232 38.9286L31.4333 38.9186ZM31.2418 39.0285L29.6985 37.4744C29.6685 37.4441 29.6081 37.4439 29.5678 37.484C29.5274 37.5241 29.5272 37.5844 29.5573 37.6147L31.1106 39.1789C31.1507 39.2193 31.201 39.2094 31.2414 39.1693C31.2817 39.1292 31.292 39.079 31.2519 39.0386L31.2418 39.0285ZM31.8105 37.4616L31.6902 37.3405L31.6095 37.4207L31.5193 37.3299L31.6 37.2497L31.4698 37.1185L31.3789 37.2087L31.2887 37.1179L31.3897 37.0177L31.2694 36.8966L31.0676 37.097C31.0272 37.1371 31.0271 37.1773 31.0571 37.2076L31.4981 37.6516C31.5281 37.6819 31.5784 37.6921 31.6087 37.6621L31.8105 37.4616ZM31.077 37.268L30.4011 37.8791L30.832 38.3131L31.4579 37.6314L31.0871 37.258" fill="#FFFF00"/>
<path d="M31.077 37.268L30.4011 37.8791L30.832 38.3131L31.4579 37.6314L31.0871 37.258M29.9438 39.2352C30.2768 38.9045 30.1372 38.5822 30.1372 38.5822C30.1372 38.5822 29.8058 38.4503 29.4828 38.771L29.9438 39.2352ZM31.4333 38.9186L29.7998 37.2736C29.7697 37.2433 29.6993 37.2531 29.6589 37.2932C29.6287 37.3233 29.6285 37.3836 29.6585 37.4139L31.292 39.0589C31.3221 39.0891 31.3824 39.0893 31.4228 39.0493C31.4531 39.0192 31.4533 38.9589 31.4232 38.9286L31.4333 38.9186ZM31.2418 39.0285L29.6985 37.4744C29.6685 37.4441 29.6081 37.4439 29.5678 37.484C29.5274 37.5241 29.5272 37.5844 29.5573 37.6147L31.1106 39.1789C31.1507 39.2193 31.201 39.2094 31.2414 39.1693C31.2817 39.1292 31.292 39.079 31.2519 39.0386L31.2418 39.0285ZM31.8105 37.4616L31.6902 37.3405L31.6095 37.4207L31.5193 37.3299L31.6 37.2497L31.4698 37.1185L31.3789 37.2087L31.2887 37.1179L31.3897 37.0177L31.2694 36.8966L31.0676 37.097C31.0272 37.1371 31.0271 37.1773 31.0571 37.2076L31.4981 37.6516C31.5281 37.6819 31.5784 37.6921 31.6087 37.6621L31.8105 37.4616Z" stroke="black" stroke-width="0.0711113"/>
<path d="M31.2954 38.0934L30.9523 38.4341L31.3532 38.8378L31.6963 38.4971L31.2954 38.0934Z" fill="#FFFF00" stroke="black" stroke-width="0.0711113"/>
<path d="M31.2954 38.0934L30.9523 38.4341L31.3532 38.8378L31.6963 38.4971L31.2954 38.0934Z" fill="#FFFF00" stroke="black" stroke-width="0.0711113"/>
<path d="M32.0288 38.3071L31.9086 38.186L31.8076 38.2862L31.7174 38.1954L31.8184 38.0952L31.6981 37.9741L31.5972 38.0743L31.507 37.9835L31.6079 37.8833L31.4876 37.7622L31.2858 37.9626C31.2454 38.0027 31.2453 38.0429 31.2754 38.0732L31.7063 38.5071C31.7222 38.5232 31.7439 38.5323 31.7665 38.5323C31.7892 38.5324 31.8109 38.5235 31.827 38.5076L32.0288 38.3071Z" fill="#FFFF00" stroke="black" stroke-width="0.0711113"/>
<path d="M32.0288 38.3071L31.9086 38.186L31.8076 38.2862L31.7174 38.1954L31.8184 38.0952L31.6981 37.9741L31.5972 38.0743L31.507 37.9835L31.6079 37.8833L31.4876 37.7622L31.2858 37.9626C31.2454 38.0027 31.2453 38.0429 31.2754 38.0732L31.7063 38.5071C31.7222 38.5232 31.7439 38.5323 31.7665 38.5323C31.7892 38.5324 31.8109 38.5235 31.827 38.5076L32.0288 38.3071Z" fill="#FFFF00" stroke="black" stroke-width="0.0711113"/>
<path d="M31.1055 37.7004C31.166 37.6402 31.0758 37.5494 31.0153 37.6095L30.8538 37.7699L30.944 37.8607L31.1055 37.7004Z" fill="black"/>
<path d="M31.4145 38.4557C31.4751 38.3956 31.3949 38.3149 31.3344 38.375L31.2133 38.4953L31.2934 38.576L31.4145 38.4557Z" fill="black"/>
<path d="M31.4145 38.4557C31.4751 38.3956 31.3949 38.3149 31.3344 38.375L31.2133 38.4953L31.2934 38.576L31.4145 38.4557Z" fill="black"/>
<path d="M24.5435 32.8358C24.5409 33.136 24.6528 33.4259 24.8564 33.6465C24.9514 33.7527 25.0675 33.8379 25.1973 33.8967C25.3271 33.9554 25.4677 33.9865 25.6102 33.9878C25.9088 33.9878 26.1791 33.8456 26.3639 33.6465C26.5675 33.4259 26.6794 33.136 26.6768 32.8358V31.2998H24.5435V32.8358Z" fill="#003399"/>
<path d="M25.0415 32.0963C25.1593 32.0963 25.2548 32.0008 25.2548 31.883C25.2548 31.7652 25.1593 31.6697 25.0415 31.6697C24.9236 31.6697 24.8281 31.7652 24.8281 31.883C24.8281 32.0008 24.9236 32.0963 25.0415 32.0963Z" fill="white"/>
<path d="M26.2216 32.0963C26.3395 32.0963 26.435 32.0008 26.435 31.883C26.435 31.7652 26.3395 31.6697 26.2216 31.6697C26.1038 31.6697 26.0083 31.7652 26.0083 31.883C26.0083 32.0008 26.1038 32.0963 26.2216 32.0963Z" fill="white"/>
<path d="M25.6245 32.6652C25.7423 32.6652 25.8378 32.5697 25.8378 32.4519C25.8378 32.334 25.7423 32.2385 25.6245 32.2385C25.5066 32.2385 25.4111 32.334 25.4111 32.4519C25.4111 32.5697 25.5066 32.6652 25.6245 32.6652Z" fill="white"/>
<path d="M25.0415 33.2624C25.1593 33.2624 25.2548 33.1668 25.2548 33.049C25.2548 32.9312 25.1593 32.8357 25.0415 32.8357C24.9236 32.8357 24.8281 32.9312 24.8281 33.049C24.8281 33.1668 24.9236 33.2624 25.0415 33.2624Z" fill="white"/>
<path d="M26.2216 33.2624C26.3395 33.2624 26.435 33.1668 26.435 33.049C26.435 32.9312 26.3395 32.8357 26.2216 32.8357C26.1038 32.8357 26.0083 32.9312 26.0083 33.049C26.0083 33.1668 26.1038 33.2624 26.2216 33.2624Z" fill="white"/>
<path d="M24.5435 32.8358C24.5409 33.136 24.6528 33.4259 24.8564 33.6465C24.9514 33.7527 25.0675 33.8379 25.1973 33.8967C25.3271 33.9554 25.4677 33.9865 25.6102 33.9878C25.9088 33.9878 26.1791 33.8456 26.3639 33.6465C26.5675 33.4259 26.6794 33.136 26.6768 32.8358V31.2998H24.5435V32.8358Z" fill="#003399"/>
<path d="M25.0415 32.0963C25.1593 32.0963 25.2548 32.0008 25.2548 31.883C25.2548 31.7652 25.1593 31.6697 25.0415 31.6697C24.9236 31.6697 24.8281 31.7652 24.8281 31.883C24.8281 32.0008 24.9236 32.0963 25.0415 32.0963Z" fill="white"/>
<path d="M26.2216 32.0963C26.3395 32.0963 26.435 32.0008 26.435 31.883C26.435 31.7652 26.3395 31.6697 26.2216 31.6697C26.1038 31.6697 26.0083 31.7652 26.0083 31.883C26.0083 32.0008 26.1038 32.0963 26.2216 32.0963Z" fill="white"/>
<path d="M25.6245 32.6652C25.7423 32.6652 25.8378 32.5697 25.8378 32.4519C25.8378 32.334 25.7423 32.2385 25.6245 32.2385C25.5066 32.2385 25.4111 32.334 25.4111 32.4519C25.4111 32.5697 25.5066 32.6652 25.6245 32.6652Z" fill="white"/>
<path d="M25.0415 33.2624C25.1593 33.2624 25.2548 33.1668 25.2548 33.049C25.2548 32.9312 25.1593 32.8357 25.0415 32.8357C24.9236 32.8357 24.8281 32.9312 24.8281 33.049C24.8281 33.1668 24.9236 33.2624 25.0415 33.2624Z" fill="white"/>
<path d="M26.2216 33.2624C26.3395 33.2624 26.435 33.1668 26.435 33.049C26.435 32.9312 26.3395 32.8357 26.2216 32.8357C26.1038 32.8357 26.0083 32.9312 26.0083 33.049C26.0083 33.1668 26.1038 33.2624 26.2216 33.2624Z" fill="white"/>
<path d="M24.5435 32.8358C24.5409 33.136 24.6528 33.4259 24.8564 33.6465C24.9514 33.7527 25.0675 33.8379 25.1973 33.8967C25.3271 33.9554 25.4677 33.9865 25.6102 33.9878C25.9088 33.9878 26.1791 33.8456 26.3639 33.6465C26.5675 33.4259 26.6794 33.136 26.6768 32.8358V31.2998H24.5435V32.8358Z" fill="#003399"/>
<path d="M25.0415 32.0963C25.1593 32.0963 25.2548 32.0008 25.2548 31.883C25.2548 31.7652 25.1593 31.6697 25.0415 31.6697C24.9236 31.6697 24.8281 31.7652 24.8281 31.883C24.8281 32.0008 24.9236 32.0963 25.0415 32.0963Z" fill="white"/>
<path d="M26.2216 32.0963C26.3395 32.0963 26.435 32.0008 26.435 31.883C26.435 31.7652 26.3395 31.6697 26.2216 31.6697C26.1038 31.6697 26.0083 31.7652 26.0083 31.883C26.0083 32.0008 26.1038 32.0963 26.2216 32.0963Z" fill="white"/>
<path d="M25.6245 32.6652C25.7423 32.6652 25.8378 32.5697 25.8378 32.4519C25.8378 32.334 25.7423 32.2385 25.6245 32.2385C25.5066 32.2385 25.4111 32.334 25.4111 32.4519C25.4111 32.5697 25.5066 32.6652 25.6245 32.6652Z" fill="white"/>
<path d="M25.0415 33.2624C25.1593 33.2624 25.2548 33.1668 25.2548 33.049C25.2548 32.9312 25.1593 32.8357 25.0415 32.8357C24.9236 32.8357 24.8281 32.9312 24.8281 33.049C24.8281 33.1668 24.9236 33.2624 25.0415 33.2624Z" fill="white"/>
<path d="M26.2216 33.2624C26.3395 33.2624 26.435 33.1668 26.435 33.049C26.435 32.9312 26.3395 32.8357 26.2216 32.8357C26.1038 32.8357 26.0083 32.9312 26.0083 33.049C26.0083 33.1668 26.1038 33.2624 26.2216 33.2624Z" fill="white"/>
<path d="M24.5435 32.8358C24.5409 33.136 24.6528 33.4259 24.8564 33.6465C24.9514 33.7527 25.0675 33.8379 25.1973 33.8967C25.3271 33.9554 25.4677 33.9865 25.6102 33.9878C25.9088 33.9878 26.1791 33.8456 26.3639 33.6465C26.5675 33.4259 26.6794 33.136 26.6768 32.8358V31.2998H24.5435V32.8358Z" fill="#003399"/>
<path d="M25.0415 32.0963C25.1593 32.0963 25.2548 32.0008 25.2548 31.883C25.2548 31.7652 25.1593 31.6697 25.0415 31.6697C24.9236 31.6697 24.8281 31.7652 24.8281 31.883C24.8281 32.0008 24.9236 32.0963 25.0415 32.0963Z" fill="white"/>
<path d="M26.2216 32.0963C26.3395 32.0963 26.435 32.0008 26.435 31.883C26.435 31.7652 26.3395 31.6697 26.2216 31.6697C26.1038 31.6697 26.0083 31.7652 26.0083 31.883C26.0083 32.0008 26.1038 32.0963 26.2216 32.0963Z" fill="white"/>
<path d="M25.6245 32.6652C25.7423 32.6652 25.8378 32.5697 25.8378 32.4519C25.8378 32.334 25.7423 32.2385 25.6245 32.2385C25.5066 32.2385 25.4111 32.334 25.4111 32.4519C25.4111 32.5697 25.5066 32.6652 25.6245 32.6652Z" fill="white"/>
<path d="M25.0415 33.2624C25.1593 33.2624 25.2548 33.1668 25.2548 33.049C25.2548 32.9312 25.1593 32.8357 25.0415 32.8357C24.9236 32.8357 24.8281 32.9312 24.8281 33.049C24.8281 33.1668 24.9236 33.2624 25.0415 33.2624Z" fill="white"/>
<path d="M26.2216 33.2624C26.3395 33.2624 26.435 33.1668 26.435 33.049C26.435 32.9312 26.3395 32.8357 26.2216 32.8357C26.1038 32.8357 26.0083 32.9312 26.0083 33.049C26.0083 33.1668 26.1038 33.2624 26.2216 33.2624Z" fill="white"/>
<path d="M24.5435 32.8358C24.5409 33.136 24.6528 33.4259 24.8564 33.6465C24.9514 33.7527 25.0675 33.8379 25.1973 33.8967C25.3271 33.9554 25.4677 33.9865 25.6102 33.9878C25.9088 33.9878 26.1791 33.8456 26.3639 33.6465C26.5675 33.4259 26.6794 33.136 26.6768 32.8358V31.2998H24.5435V32.8358Z" fill="#003399"/>
<path d="M25.0415 32.0963C25.1593 32.0963 25.2548 32.0008 25.2548 31.883C25.2548 31.7652 25.1593 31.6697 25.0415 31.6697C24.9236 31.6697 24.8281 31.7652 24.8281 31.883C24.8281 32.0008 24.9236 32.0963 25.0415 32.0963Z" fill="white"/>
<path d="M26.2216 32.0963C26.3395 32.0963 26.435 32.0008 26.435 31.883C26.435 31.7652 26.3395 31.6697 26.2216 31.6697C26.1038 31.6697 26.0083 31.7652 26.0083 31.883C26.0083 32.0008 26.1038 32.0963 26.2216 32.0963Z" fill="white"/>
<path d="M25.6245 32.6652C25.7423 32.6652 25.8378 32.5697 25.8378 32.4519C25.8378 32.334 25.7423 32.2385 25.6245 32.2385C25.5066 32.2385 25.4111 32.334 25.4111 32.4519C25.4111 32.5697 25.5066 32.6652 25.6245 32.6652Z" fill="white"/>
<path d="M25.0415 33.2624C25.1593 33.2624 25.2548 33.1668 25.2548 33.049C25.2548 32.9312 25.1593 32.8357 25.0415 32.8357C24.9236 32.8357 24.8281 32.9312 24.8281 33.049C24.8281 33.1668 24.9236 33.2624 25.0415 33.2624Z" fill="white"/>
<path d="M26.2216 33.2624C26.3395 33.2624 26.435 33.1668 26.435 33.049C26.435 32.9312 26.3395 32.8357 26.2216 32.8357C26.1038 32.8357 26.0083 32.9312 26.0083 33.049C26.0083 33.1668 26.1038 33.2624 26.2216 33.2624Z" fill="white"/>
</g>
<defs>
<clipPath id="clip0_103_344">
<rect width="64" height="64" fill="white" transform="translate(0 0.5)"/>
</clipPath>
</defs>
</svg>
