<?xml version="1.0" standalone="no"?>
<!DOCTYPE svg PUBLIC "-//W3C//DTD SVG 20010904//EN"
 "http://www.w3.org/TR/2001/REC-SVG-20010904/DTD/svg10.dtd">
<svg version="1.0" xmlns="http://www.w3.org/2000/svg"
 width="800.000000pt" height="800.000000pt" viewBox="0 0 800.000000 800.000000"
 preserveAspectRatio="xMidYMid meet">
<metadata>
Created by potrace 1.14, written by Peter Selinger 2001-2017
</metadata>
<g transform="translate(0.000000,800.000000) scale(0.100000,-0.100000)"
fill="#000000" stroke="none">
<path d="M115 7975 c-58 -28 -101 -87 -110 -149 -3 -22 -4 -1760 -3 -3861 l3
-3820 23 -40 c26 -45 72 -81 123 -95 22 -6 1410 -10 3859 -10 l3826 0 50 25
c57 28 100 87 109 149 3 22 4 1760 3 3861 l-3 3820 -25 43 c-15 27 -42 54 -70
70 l-45 27 -3845 3 -3846 2 -49 -25z"/>
</g>
</svg>
