<svg width="1280" height="455" viewBox="0 0 1280 455" fill="none" xmlns="http://www.w3.org/2000/svg">
<path d="M718.4 0.50401C719.32 0.505786 720.24 0.507562 721.192 0.509394C722.752 0.509484 722.752 0.509484 724.344 0.509577C725.488 0.513665 726.632 0.517817 727.776 0.522057C728.944 0.523545 730.104 0.524689 731.272 0.525489C734.344 0.528545 737.416 0.536449 740.472 0.545249C743.6 0.553409 746.736 0.557089 749.832 0.561089C755.984 0.569649 762.152 0.583329 768.312 0.600129V2.20013C768.858 2.04413 769.408 1.88893 769.968 1.72813C779.648 0.376129 791.168 7.20813 798.688 12.7681C806.336 19.2401 811.488 28.2881 813.088 38.2081C813.265 41.8721 813.236 45.5361 813.238 49.2481C813.248 50.2401 813.258 51.2321 813.268 52.2481C813.277 57.7121 812.882 62.5681 811.492 67.8481C811.078 70.2961 810.706 72.7521 810.34 75.2081C809.89 77.4481 809.172 79.3441 808.292 81.4481C808.01 82.5121 807.742 83.5761 807.492 84.6481C806.02 89.2961 804.38 93.8481 802.692 98.4081C802.393 99.2321 802.393 99.2321 802.088 100.072C800.944 103.136 799.608 105.832 797.888 108.632C797.624 109.292 797.36 109.952 797.088 110.632C795.936 113.512 794.28 116.008 792.64 118.632C791.512 120.592 790.712 122.528 789.888 124.632C785.352 133.512 780.128 142.792 773.888 150.552C772.128 152.752 770.608 155.048 769.056 157.392C767.64 159.376 766.2 161.336 764.752 163.296C764.364 163.823 763.977 164.352 763.576 164.896C761.184 168.144 758.784 171.376 756.344 174.576C755.472 175.752 754.656 176.968 753.848 178.192H752.248C752.034 178.835 751.819 179.48 751.598 180.144C751.285 180.821 750.971 181.496 750.646 182.192C749.854 182.456 749.062 182.72 748.246 182.992C747.7 184.056 747.166 185.12 746.646 186.192C745.27 187.912 743.886 189.584 742.446 191.24C742.049 191.703 741.652 192.168 741.246 192.64C740.463 193.552 739.678 194.464 738.894 195.368C737.646 196.824 736.422 198.304 735.198 199.784C733.758 201.464 732.43 202.696 730.702 204.136C728.134 206.28 726.126 208.584 724.022 211.168C722.59 212.656 721.294 213.304 719.454 214.184C719.19 214.712 718.926 215.24 718.654 215.784C717.646 217.808 716.63 217.992 714.654 218.984C714.45 219.435 714.246 219.888 714.034 220.352C712.658 222.92 710.65 224.744 708.57 226.736C707.658 227.632 706.746 228.528 705.826 229.432C704.394 230.824 702.962 232.224 701.53 233.608C690.33 244.408 690.33 244.408 683.45 258.168C683.186 258.696 682.922 259.224 682.65 259.768C682.583 261.104 682.565 262.44 682.572 263.776C682.575 264.565 682.577 265.352 682.58 266.168C682.587 266.992 682.593 267.824 682.6 268.672C682.606 269.92 682.606 269.92 682.611 271.192C682.621 273.248 682.634 275.312 682.65 277.368H683.45C683.495 278.106 683.495 278.106 683.541 278.856C683.593 279.503 683.646 280.152 683.7 280.816C683.77 281.776 683.77 281.776 683.841 282.76C684.326 284.904 684.929 285.64 686.649 286.968C689.105 287.784 690.953 287.928 693.537 288.024C739.217 290.16 784.737 298.104 829.537 306.744C830.457 306.92 831.377 307.097 832.321 307.279C841.841 309.111 851.281 311.111 860.721 313.439C861.492 313.629 862.265 313.819 863.057 314.015C868.433 315.383 873.617 317.047 878.817 319.079C882.865 320.631 885.961 321.407 890.017 319.607C894.857 315.847 897.913 309.687 899.137 303.767H897.537C897.273 302.975 897.009 302.183 896.737 301.367C895.345 300.642 895.345 300.642 893.625 300.199C892.673 299.907 892.673 299.907 891.705 299.61C890.369 299.22 889.033 298.831 887.697 298.442C884.073 297.33 881.569 296.458 879.137 293.37C881.745 289.01 884.721 285.21 888.177 281.45C893.857 275.378 899.137 269.05 904.017 262.33C904.62 261.498 905.225 260.666 905.849 259.818C907.305 257.138 907.457 255.578 907.169 252.586C890.769 250.994 873.329 260.386 860.769 270.186C860.313 270.651 859.857 271.114 859.385 271.594C858.369 272.586 858.369 272.586 856.769 272.586C856.505 273.378 856.241 274.17 855.969 274.986C853.985 276.834 851.729 278.362 849.521 279.938C848.876 280.399 848.233 280.858 847.569 281.338C830.449 293.338 830.449 293.338 821.569 291.818C820.777 291.29 819.985 290.762 819.169 290.218V288.618C818.377 288.354 817.585 288.09 816.769 287.818C815.569 285.842 814.529 283.938 813.521 281.866C813.235 281.289 812.95 280.714 812.657 280.114C810.601 275.818 809.337 271.714 808.769 266.994C802.849 269.13 797.649 271.906 792.289 275.154C762.689 292.994 762.689 292.994 749.809 289.954C744.665 288.234 742.361 284.41 739.969 279.874C736.697 272.578 738.097 263.794 740.785 256.514C743.729 250.754 747.177 245.074 753.585 242.914C754.913 242.819 756.249 242.774 757.585 242.763C758.278 242.752 758.969 242.741 759.681 242.729C761.585 242.913 761.585 242.913 763.985 244.513V246.113C764.513 246.377 765.041 246.641 765.585 246.913C767.969 250.489 767.673 253.921 767.185 258.113C765.833 260.809 765.833 260.809 763.985 262.913C763.44 263.573 762.897 264.233 762.337 264.913C760.129 266.793 758.153 267.937 755.585 269.265C751.025 271.649 748.065 273.881 746.385 278.945C746.88 279.192 747.377 279.44 747.889 279.695L751.185 281.343C758.081 282.511 764.065 279.839 770.305 277.239C771.889 276.579 773.481 275.943 775.073 275.319C786.673 270.623 804.193 263.159 810.513 251.639C811.015 250.335 811.505 249.031 812.001 247.727C814.081 246.447 815.273 246.087 817.697 246.223C819.809 247.207 820.457 248.063 821.601 250.127C821.666 252.431 821.609 254.503 821.401 256.775C821.358 257.363 821.316 257.951 821.273 258.551C821.066 261.263 820.771 263.919 820.369 266.631C819.993 269.423 819.924 272.079 819.953 274.871C819.964 276.247 819.964 276.247 819.975 277.639C819.984 278.325 819.993 279.007 820.003 279.719H821.603V281.319C836.003 282.783 848.403 272.839 859.043 264.279C861.187 262.519 863.227 260.679 865.259 258.791C873.899 250.991 883.579 246.791 895.019 245.431C900.075 244.822 904.379 243.367 909.019 241.359C912.923 239.727 915.803 239.255 919.979 239.735C921.787 241.303 922.267 242.263 922.667 244.607C921.635 258.607 908.507 271.647 898.747 280.687C896.667 282.711 895.563 284.039 895.147 286.935V289.335C895.708 289.55 896.267 289.764 896.843 289.985C899.147 290.937 899.147 290.937 901.491 292.233C904.235 293.465 905.771 293.777 908.739 293.337C911.771 291.233 913.731 288.977 915.787 285.937C920.387 279.465 925.787 274.577 931.947 269.697C933.987 268.041 935.971 266.345 937.955 264.617C958.595 246.777 958.595 246.777 964.035 247.097C965.483 247.797 965.483 247.797 967.083 250.201C967.399 252.465 967.399 252.465 967.561 255.201C967.625 256.201 967.688 257.201 967.753 258.233C967.812 259.281 967.872 260.329 967.933 261.401C968.058 263.449 968.184 265.505 968.312 267.553C968.401 269.033 968.401 269.033 968.493 270.537C968.752 274.433 969.1 278.313 969.485 282.217H971.085V283.817C975.493 282.849 979.245 281.553 983.245 279.369C983.759 279.09 984.269 278.81 984.805 278.521C992.437 274.281 999.445 269.241 1006.09 263.481C1008.6 261.713 1011.23 260.577 1014.33 260.577C1015.49 258.457 1015.93 257.465 1015.93 254.977C1016.77 253.401 1016.77 253.401 1017.88 251.729C1019.4 249.409 1019.4 249.409 1020.73 246.977H1024.73C1026.12 249.561 1027 252.201 1027.93 254.977C1028.19 255.241 1028.45 255.505 1028.73 255.777C1028.89 257.209 1029.02 258.641 1029.13 260.081C1029.31 262.601 1029.52 264.577 1030.33 266.977C1031.21 282.657 1031.21 282.657 1027.67 288.817C1027.01 289.488 1027.01 289.488 1026.33 290.177H1023.13C1019.47 286.377 1018.93 282.265 1018.97 277.137C1018.97 276.321 1018.97 276.321 1018.97 275.489C1018.98 273.761 1019 272.033 1019.02 270.305C1019.03 269.129 1019.04 267.953 1019.04 266.777C1019.06 263.905 1019.09 261.033 1019.12 258.137C1015.07 261.721 1011.04 265.305 1007.36 269.257C999.417 277.577 986.961 289.257 974.881 290.297C969.849 290.389 967.225 290.083 963.441 286.561C958.785 281.105 959.033 274.401 958.625 267.521C958.436 264.633 958.026 262.321 956.689 259.705C952.465 260.048 950.433 261.377 947.249 264.153C943.193 267.705 943.193 267.705 941.449 267.705C941.143 268.401 941.143 268.401 940.831 269.113C939.751 271.089 938.543 272.425 936.951 274.017C936.386 274.584 935.823 275.153 935.239 275.737C934.649 276.321 934.063 276.905 933.455 277.505C932.865 278.101 932.279 278.697 931.671 279.313C931.106 279.876 930.543 280.441 929.959 281.017C929.441 281.533 928.927 282.049 928.391 282.577C927.063 283.705 927.063 283.705 925.463 283.705C925.249 284.171 925.034 284.641 924.813 285.121C923.853 286.929 922.789 288.353 921.461 289.905C921.049 290.396 920.637 290.889 920.213 291.393C919.061 292.505 919.061 292.505 917.461 292.505C917.247 293.099 917.033 293.697 916.812 294.305C915.9 296.409 914.844 297.897 913.46 299.705C911.396 305.889 912.745 312.185 915.06 318.105C915.324 318.369 915.588 318.633 915.86 318.905C916.908 324.153 916.812 329.385 916.812 334.745C916.811 335.697 916.81 336.657 916.81 337.641C916.771 343.257 916.582 348.841 915.962 354.361C915.899 354.93 915.836 355.497 915.771 356.089C915.384 359.121 914.635 361.657 913.459 364.489C913.211 365.833 912.995 367.185 912.81 368.537C910.81 379.897 904.09 392.377 895.05 399.657C889.85 403.281 884.49 403.457 878.25 402.857C872.602 400.129 869.77 395.609 867.69 389.897C866.61 385.913 866.77 382.153 867.083 378.057C867.131 377.275 867.179 376.497 867.227 375.689C868.571 362.409 873.467 349.049 878.987 337.049C880.179 334.137 880.555 331.593 880.683 328.489C880.136 328.271 879.587 328.051 879.027 327.827C877.403 327.177 875.787 326.515 874.171 325.851C858.011 319.467 840.891 316.251 823.851 313.291C822.851 313.114 821.859 312.937 820.827 312.755C784.747 306.411 748.107 302.675 712.027 299.155C709.203 298.884 706.387 298.605 703.547 298.323C701.971 298.17 700.395 298.018 698.819 297.867C698.171 297.802 697.523 297.738 696.859 297.671C692.107 297.235 687.419 297.206 682.619 297.267C681.603 299.299 681.723 300.691 681.731 302.971C681.733 303.843 681.734 304.707 681.735 305.603C681.74 306.563 681.746 307.515 681.751 308.507C681.755 310.051 681.759 311.595 681.763 313.139C681.767 314.803 681.774 316.467 681.781 318.131C681.796 321.603 681.803 325.083 681.81 328.531C681.829 338.451 681.858 348.291 681.894 358.211C681.914 363.667 681.928 369.091 681.935 374.611C681.94 378.059 681.953 381.499 681.971 384.931C681.982 387.595 681.983 390.267 681.986 392.931C681.993 393.875 682 394.811 682.007 395.779C682 402.019 681.331 407.939 680.215 414.099C679.423 414.363 678.631 414.627 677.815 414.899V412.499C677.023 412.235 676.231 411.971 675.415 411.699C673.143 401.619 673.679 390.739 673.607 380.419C673.59 378.075 673.569 375.731 673.546 373.387C673.491 367.571 673.443 361.787 673.395 355.947C673.354 351.011 673.31 346.107 673.262 341.147C673.241 338.859 673.224 336.579 673.208 334.291C673.409 318.371 673.409 318.371 670.616 302.851C670.294 301.315 670.294 301.315 669.966 299.747C669.278 297.139 669.278 297.139 667.166 296.195C666.102 295.923 666.102 295.923 665.014 295.644C664.371 295.363 663.726 295.083 663.062 294.796C658.542 293.14 653.942 293.108 649.222 293.052C647.854 293.026 646.486 292.999 645.11 292.972C642.974 292.935 640.838 292.899 638.702 292.868C618.702 292.559 618.702 292.559 613.022 289.252C612.126 287.852 612.126 287.852 612.222 286.052C615.454 281.22 619.67 279.044 624.702 276.372C626.366 275.46 628.03 274.54 629.694 273.62C630.526 273.16 631.35 272.7 632.206 272.228C641.486 266.996 650.446 261.108 659.166 255.028C661.798 253.212 664.326 251.556 667.246 250.268C670.206 248.828 671.87 247.956 673.814 245.276C674.95 239.748 675.598 231.276 673.014 226.076C672.877 224.012 672.786 221.956 672.728 219.892C672.707 219.251 672.687 218.612 672.665 217.948C672.62 216.548 672.576 215.148 672.534 213.748C672.466 211.5 672.394 209.252 672.32 207.012C672.164 202.204 672.013 197.412 671.863 192.612C671.039 166.052 671.039 166.052 669.783 139.492C669.75 138.9 669.717 138.308 669.683 137.7C669.227 129.62 668.675 121.54 667.651 113.54C667.375 111.372 667.123 109.196 666.867 107.02C666.669 105.412 666.469 103.804 666.267 102.196C666.135 101.076 666.135 101.076 666 99.9316C665.487 96.0356 664.824 93.4197 662.616 90.0917C662.69 85.6357 663.816 82.3557 665.784 78.4117C668.432 72.3397 668.712 66.2517 669.184 59.6917C669.785 52.1317 669.785 52.1316 671.416 48.4916C673.752 46.6916 674.856 46.0917 677.816 46.0917C681.728 56.5717 682.072 67.0517 682.144 78.1717C682.159 79.5717 682.175 80.9717 682.191 82.3717C682.232 86.0517 682.264 89.7317 682.294 93.4117C682.319 96.3237 682.351 99.2356 682.383 102.132C682.555 117.732 682.626 133.252 682.601 148.852C682.587 158.612 682.704 168.292 683.063 177.972C683.131 179.86 683.197 181.74 683.259 183.628C683.312 185.26 683.371 186.892 683.43 188.516C683.413 190.916 683.413 190.916 682.614 192.516C682.538 193.724 682.512 194.932 682.511 196.148C682.507 197.276 682.507 197.276 682.503 198.428C682.505 199.244 682.507 200.06 682.508 200.9C682.508 201.74 682.507 202.58 682.506 203.444C682.505 205.22 682.507 207.004 682.51 208.78C682.515 211.492 682.51 214.212 682.505 216.94C682.506 218.668 682.507 220.396 682.508 222.124C682.506 223.34 682.506 223.34 682.503 224.58C682.38 231.14 682.38 231.14 684.215 237.3C691.023 231.324 697.735 225.22 703.575 218.34C707.527 213.788 711.895 209.62 716.135 205.38C719.591 201.956 722.919 198.492 726.055 194.82C727.983 192.588 730.007 190.452 732.031 188.3C735.575 184.492 738.959 180.596 742.191 176.54C743.615 174.772 745.047 173.012 746.495 171.268C764.735 149.268 784.735 123.028 794.175 95.7477C794.513 94.7797 794.85 93.8117 795.199 92.8117C795.506 91.9317 795.812 91.0517 796.127 90.1477C796.555 88.9957 796.991 87.8437 797.423 86.6997C803.199 71.1797 808.703 49.5796 801.895 33.4996C800.711 30.9636 799.423 28.4996 798.087 26.0436C796.919 23.7716 796.919 23.7716 796.919 22.1716C796.127 21.9076 795.335 21.6436 794.519 21.3716C794.173 20.2116 794.173 20.2116 793.819 19.0196C793.187 16.4516 793.187 16.4516 791.115 15.6196C790.389 15.4052 789.659 15.1908 788.915 14.97C787.923 14.4004 787.923 14.4004 786.915 13.818C778.035 9.86605 768.115 9.26605 758.595 8.92205C757.699 8.88869 756.811 8.85525 755.891 8.82125C746.131 8.47485 736.371 8.47805 726.611 8.87245C725.919 8.89709 725.227 8.92173 724.515 8.94709C720.611 9.12869 717.011 9.64309 713.235 10.5631C709.115 11.4751 704.915 11.8831 700.675 12.3871C696.331 12.9607 692.931 13.9311 688.995 15.7711C687.419 16.2095 685.835 16.6111 684.243 16.9711C680.331 17.9071 676.731 19.0911 672.963 20.5711C671.363 21.1047 669.763 21.6351 668.163 22.1711C648.563 29.2751 629.523 38.5711 612.163 50.1711C610.371 51.3151 608.571 52.4511 606.763 53.5711C606.303 53.8623 605.843 54.1527 605.363 54.4511C601.947 56.5711 601.947 56.5711 600.163 56.5711C599.767 57.7551 599.767 57.7551 599.363 58.9711C597.963 59.7951 596.563 60.6191 595.131 61.3871C593.659 62.1527 593.659 62.1527 592.363 63.5711C592.033 63.9007 591.703 64.2311 591.363 64.5711H588.963C588.782 65.0495 588.6 65.5311 588.413 66.0191C587.365 67.7711 587.365 67.7711 585.541 68.8591C583.245 70.2431 581.469 71.7871 579.517 73.6191C576.549 76.3471 573.541 78.8271 570.237 81.1391C568.741 82.2431 568.741 82.2431 567.365 84.5711C566.173 84.9671 566.173 84.9671 564.965 85.3711C563.677 86.6431 563.677 86.6431 562.413 88.2191C560.317 90.6831 558.181 93.0591 555.917 95.3711C555.392 95.9071 554.869 96.4431 554.325 96.9951C552.965 98.1711 552.965 98.1711 551.365 98.1711C550.969 99.3551 550.969 99.3551 550.565 100.571C549.253 101.923 547.917 103.251 546.565 104.571C545.855 105.395 545.157 106.227 544.469 107.067C543.085 108.747 541.701 110.235 540.165 111.771C539.637 112.563 539.109 113.355 538.565 114.171H536.965C536.734 114.633 536.503 115.099 536.265 115.571C535.017 118.075 535.017 118.075 533.769 120.571H532.169C531.968 121.136 531.767 121.699 531.559 122.283C530.463 124.819 529.087 126.899 527.519 129.171C523.999 134.363 520.815 139.491 518.559 145.331C518.031 146.123 517.503 146.915 516.959 147.731C516.501 149.171 516.087 150.619 515.711 152.083C515.512 152.841 515.313 153.595 515.108 154.379C514.927 155.089 514.747 155.803 514.561 156.531C514.351 157.29 514.351 157.29 514.135 158.067C513.503 160.883 513.614 163.707 513.611 166.547C513.602 167.161 513.592 167.779 513.582 168.411C513.574 171.531 513.594 173.051 515.358 175.699C515.421 177.563 515.428 179.435 515.358 181.299C512.958 182.099 512.958 182.099 511.054 181.299C507.462 178.563 505.094 175.331 504.158 170.899C503.054 154.739 507.342 143.139 515.358 129.299C515.819 128.501 516.278 127.699 516.758 126.883C520.262 121.131 524.422 115.923 528.678 110.643C529.758 109.299 530.83 107.955 531.894 106.603C532.535 105.803 533.174 104.995 533.838 104.171C534.408 103.455 534.982 102.739 535.566 102.003C536.035 101.497 536.502 100.995 536.99 100.475H538.59C538.797 100.008 539.004 99.5391 539.217 99.0591C540.265 97.1391 541.401 95.8671 542.945 94.3311C543.492 93.7855 544.041 93.2431 544.601 92.6751C545.173 92.1127 545.745 91.5471 546.337 90.9711C546.893 90.4151 547.449 89.8591 548.025 89.2831C557.705 79.6831 557.705 79.6831 560.185 79.6831L560.985 77.2831C562.545 75.9631 564.089 74.7391 565.737 73.5311C566.689 72.8143 567.649 72.0991 568.601 71.3791C569.075 71.0239 569.545 70.6695 570.041 70.3071C571.889 68.9071 573.689 67.4511 575.489 65.9871C578.985 63.1711 582.585 60.5151 586.209 57.9071C587.465 57.0031 588.705 56.0751 589.921 55.1151C591.361 54.0991 591.361 54.0991 592.961 54.0991V52.4991C594.569 51.3471 594.569 51.3471 596.713 50.0991L598.825 48.8511C600.833 47.7711 602.833 46.8991 604.969 46.0991V44.4991C605.596 44.2023 606.225 43.9055 606.873 43.6031C609.921 42.0831 612.801 40.2991 615.673 38.5391C618.721 36.7151 621.825 35.0111 624.953 33.3071C625.857 32.7999 625.857 32.7999 626.777 32.2831C637.737 26.1071 637.737 26.1071 640.937 26.1071V24.5071C647.761 21.1471 654.617 18.2111 661.817 15.7871C665.377 14.5711 668.793 13.2031 672.217 11.6271C677.641 9.21109 683.417 7.87509 689.177 6.49109C691.513 5.92789 693.777 5.33909 696.033 4.51509C699.705 3.38709 703.433 2.97109 707.233 2.48309C708.753 2.28469 710.281 2.08389 711.801 1.87989C712.47 1.79349 713.137 1.70789 713.825 1.61909C715.921 1.23349 715.953 0.547089 718.249 0.435089L718.4 0.50401ZM716.328 1.40001V2.20001H721.128V1.40001H716.328ZM673.928 222.2V226.2H674.728V222.2H673.928ZM654.968 268.92C645.368 276.456 645.368 276.456 641.928 278.2V279.8C640.608 280.328 639.288 280.856 637.928 281.4V283.8C646.488 284.76 654.968 285.56 663.608 285.552C664.285 285.553 664.96 285.553 665.656 285.554C668.336 285.529 670.552 285.454 673.104 284.602C673.904 282.466 674.008 280.434 674.008 278.162C674.009 277.551 674.01 276.938 674.011 276.314C674.006 275.37 674.006 275.37 674.002 274.402C674.005 273.783 674.008 273.162 674.011 272.53C674.004 268.49 673.677 264.61 673.099 260.61C666.331 258.074 659.899 265.002 654.939 268.93L654.968 268.92ZM1009.37 263.008C1009.1 263.536 1008.84 264.064 1008.57 264.608H1010.17C1009.9 264.08 1009.64 263.552 1009.37 263.008ZM898.968 319.328C896.952 321.456 895.52 323.84 894.08 326.376C893.769 326.909 893.459 327.44 893.136 327.992C890.936 331.816 888.984 335.672 887.376 339.752C887.117 340.398 886.858 341.048 886.592 341.712C886.05 343.072 885.512 344.424 884.976 345.784C884.229 347.616 883.416 349.408 882.576 351.2C878.92 359.28 877.048 367.84 875.776 376.56C875.376 378.96 875.376 378.96 874.576 381.36C874.887 383.832 874.887 383.832 875.528 386.512C875.721 387.416 875.913 388.328 876.112 389.256C877.312 392.736 879.256 394.232 882.08 396.456C884.152 397.544 884.152 397.544 886.432 397.106C895.952 392.066 899.632 381.986 902.672 372.226C906.256 360.146 908.336 348.386 908.376 335.746C908.384 334.122 908.409 332.506 908.434 330.89C908.476 323.402 908.476 323.402 905.786 316.57C902.346 316.57 901.466 317.094 898.978 319.322L898.968 319.328Z" fill="white"/>
<path d="M244 38.04C246.096 38.0382 248.184 38.0236 250.28 38.0086C263.24 37.9638 275.24 38.6702 287.08 44.5846V46.1846C287.944 46.4566 287.944 46.4566 288.824 46.735C291.56 48.007 293.144 49.615 295.232 51.783C295.92 52.4926 296.608 53.199 297.32 53.935C298.192 54.847 298.192 54.847 299.088 55.783C299.616 56.311 300.144 56.839 300.688 57.383C304.456 63.335 307.304 69.703 308.688 76.583C308.952 76.847 309.216 77.111 309.488 77.383C309.663 80.631 309.637 83.879 309.636 87.143C309.638 88.775 309.652 90.399 309.667 92.031C309.669 93.063 309.67 94.095 309.672 95.151C309.675 96.095 309.679 97.039 309.682 98.015C309.489 100.559 308.931 102.279 307.89 104.583C307.59 106.527 307.59 106.527 307.49 108.487C307.27 111.911 306.482 114.903 305.49 118.167C305.172 119.295 304.857 120.423 304.546 121.551C304.212 122.727 303.877 123.895 303.546 125.071C303.383 125.661 303.219 126.247 303.051 126.855C302.091 130.183 300.947 132.823 299.099 135.735C298.418 137.439 297.771 139.159 297.147 140.887C295.731 144.671 294.251 147.687 291.899 150.967C291.653 151.587 291.408 152.207 291.155 152.847C290.267 155.039 289.195 156.911 287.947 158.919C286.179 161.815 284.587 164.719 283.099 167.799C280.307 173.183 277.019 178.039 273.499 182.999C272.043 185.143 270.603 187.287 269.275 189.511C268.92 190.101 268.565 190.687 268.203 191.295C267.879 191.845 267.555 192.399 267.219 192.967C266.916 193.373 266.612 193.783 266.299 194.199H264.699C264.452 194.826 264.204 195.455 263.948 196.103C263.1 198.207 263.1 198.207 262.3 199.799H260.7C260.486 200.442 260.272 201.087 260.051 201.751C259.737 202.428 259.424 203.103 259.099 203.799C258.307 204.063 257.515 204.327 256.699 204.599C256.16 205.927 255.627 207.263 255.099 208.599C254.051 209.679 252.979 210.751 251.899 211.799C251.47 212.525 251.043 213.255 250.603 213.999C250.058 214.887 250.058 214.887 249.499 215.799H247.899C247.627 216.663 247.627 216.663 247.348 217.551C246.084 220.263 244.444 221.711 242.3 223.799C240.86 225.343 239.42 226.887 237.996 228.447C237.61 228.869 237.224 229.295 236.828 229.727C234.3 232.503 231.812 235.303 229.348 238.127C228.871 238.675 228.396 239.223 227.9 239.791C227.456 240.306 227.012 240.823 226.556 241.351C220.276 248.487 213.436 255.111 206.716 261.751C204.236 264.207 201.764 266.663 199.292 269.127C198.724 269.689 198.156 270.247 197.572 270.831C196.791 271.609 196.791 271.609 195.996 272.399C195.536 272.854 195.076 273.311 194.604 273.783C193.444 274.935 193.444 274.935 192.724 276.551H191.124C190.924 277.023 190.722 277.495 190.515 277.983C189.403 279.975 188.235 281.015 186.475 282.455C185.331 283.391 184.219 284.359 183.123 285.351C182.437 285.946 181.755 286.543 181.043 287.159C177.795 291.151 178.571 296.359 178.619 301.239C178.615 302.375 178.609 303.511 178.601 304.655C178.589 307.103 178.589 309.559 178.599 312.007C178.615 315.919 178.602 319.831 178.586 323.767C178.565 329.999 178.562 336.247 178.567 342.487C178.577 354.807 178.551 367.207 178.517 379.527C178.512 381.519 178.507 383.503 178.503 385.495C178.455 404.935 178.151 424.375 176.719 443.815C176.632 445.151 176.632 445.151 176.544 446.511C176.485 447.31 176.427 448.111 176.367 448.935C176.318 449.615 176.271 450.295 176.221 450.999C175.919 452.623 175.919 452.623 174.317 454.223C174.202 453.58 174.086 452.935 173.967 452.271C173.723 450.287 173.723 450.287 172.719 449.423C172.462 447.567 172.309 445.711 172.143 443.847C172.086 442.231 172.086 442.231 171.119 441.423C170.917 438.943 170.775 436.487 170.672 434.007C170.638 433.199 170.605 432.383 170.57 431.551C170.131 419.631 170.233 407.631 170.264 395.711C170.272 392.223 170.275 388.743 170.278 385.231C170.287 376.431 170.303 367.631 170.319 358.831C170.337 349.231 170.353 339.711 170.362 330.111C170.366 325.975 170.373 321.871 170.384 317.711C170.39 315.151 170.393 312.591 170.395 310.031C170.396 308.839 170.399 307.655 170.403 306.463C170.409 304.847 170.41 303.223 170.41 301.607C170.411 300.703 170.413 299.791 170.415 298.863C170.418 296.575 170.418 296.575 169.519 294.247C168.671 294.851 167.823 295.455 166.951 296.079C158.631 301.991 150.151 307.759 141.671 313.439C140.519 314.212 139.375 314.991 138.223 315.767C119.663 328.327 119.663 328.327 110.303 328.647L107.903 323.847C110.575 319.959 113.751 317.943 117.663 315.527C119.047 314.671 120.431 313.815 121.807 312.967L124.015 311.615C126.247 310.239 128.471 308.847 130.687 307.447C139.407 301.967 148.127 296.567 156.927 291.287C158.015 290.633 159.095 289.975 160.175 289.319C161.687 288.399 163.207 287.487 164.727 286.583C165.599 286.056 166.479 285.527 167.375 284.983C169.455 283.855 169.455 283.855 171.055 283.855C170.926 283.163 170.798 282.471 170.665 281.759C170.277 279.207 170.127 276.799 170.084 274.215C170.057 272.783 170.057 272.783 170.03 271.327C170.006 269.775 170.006 269.775 169.982 268.191C169.963 267.079 169.943 265.975 169.922 264.863C169.88 262.471 169.838 260.087 169.799 257.695C169.736 253.887 169.666 250.087 169.595 246.255C169.394 235.455 169.199 224.655 169.017 213.775C168.916 207.799 168.808 201.855 168.694 195.855C168.633 192.703 168.576 189.559 168.529 186.415C168.332 173.615 167.905 160.815 166.761 148.095C166.715 147.557 166.669 147.015 166.622 146.463C165.774 135.663 165.774 135.663 159.854 127.023C159.131 125.167 158.894 124.247 159.619 122.367C159.911 121.875 160.203 121.383 160.507 120.879C162.155 117.855 162.923 115.031 163.539 111.679C163.855 110.247 163.855 110.247 164.651 109.447C164.804 108.143 164.91 106.823 164.995 105.511C165.054 104.703 165.113 103.903 165.174 103.071C165.291 101.375 165.404 99.671 165.511 97.967C165.84 93.583 166.118 89.983 168.655 86.207C171.055 84.607 171.055 84.607 173.455 84.607C176.135 87.183 176.287 89.815 176.655 93.407C176.787 94.263 176.919 95.119 177.055 96.007C177.943 102.695 178.375 109.367 178.423 116.087C178.431 116.868 178.439 117.647 178.447 118.455C178.472 121.031 178.492 123.615 178.512 126.191C178.529 128.039 178.546 129.887 178.563 131.735C178.607 136.703 178.647 141.655 178.685 146.615C178.709 149.703 178.734 152.791 178.759 155.895C178.99 183.975 179.143 212.135 179.157 239.895C179.159 242.335 179.162 244.775 179.165 247.215C179.17 251.007 179.17 254.799 179.166 258.575C179.165 259.959 179.166 261.335 179.168 262.719C179.17 264.583 179.167 266.447 179.162 268.311C179.162 269.351 179.161 270.391 179.16 271.463C179.059 273.863 179.059 273.863 178.256 275.463C182.784 274.383 185.096 272.271 188.176 269.015C188.633 268.549 189.088 268.079 189.56 267.599C192.536 264.511 195.2 261.295 197.72 257.839C199.496 255.647 201.568 253.951 203.728 252.151C206.264 249.895 208.424 247.343 210.664 244.791C212.704 242.543 214.832 240.423 217 238.303C220.592 234.759 223.776 231.031 226.92 227.103C228.432 225.279 229.992 223.655 231.704 222.023C236.248 217.607 239.944 212.503 243.784 207.463C244.471 206.575 245.16 205.687 245.84 204.791C247.168 203.071 248.488 201.351 249.808 199.623C251.12 197.911 252.44 196.207 253.776 194.519C258.8 188.119 263.376 181.479 267.776 174.679C268.094 174.194 268.411 173.711 268.736 173.207C278.576 158.087 288.656 141.527 294.176 124.247C294.708 122.879 295.24 121.511 295.776 120.151C297.256 116.143 298.024 112.255 298.584 108.071C298.988 105.831 299.712 103.983 300.576 101.887C302.84 88.527 302.288 75.167 294.976 63.487C289.424 56.007 282.416 49.327 272.896 47.727C264.096 46.487 255.216 46.463 246.336 46.455C245.601 46.4534 244.864 46.4517 244.112 46.4501C229.312 46.4423 214.272 46.8509 199.712 49.8581C198.672 50.0293 197.64 50.2005 196.568 50.3765C195.996 50.4717 195.424 50.5661 194.832 50.6637C193.656 50.8581 192.48 51.0477 191.304 51.2325C187.72 51.8365 184.528 52.7845 181.144 54.1205C179.232 54.8245 177.352 55.1365 175.344 55.4085C171.704 56.0109 168.736 57.0645 165.424 58.6565C163.712 59.4445 162.032 60.0405 160.24 60.6085C147.2 64.8165 134.88 71.3285 122.88 77.8885C121.936 78.3893 121.936 78.3893 120.976 78.9045C112.176 83.6565 103.696 89.0645 95.6963 95.1445C94.0643 96.2645 94.0643 96.2645 92.4643 96.2645L91.6643 98.6645C90.0083 99.8085 90.0083 99.8085 87.9123 100.968C83.9523 103.248 80.7923 105.753 77.3523 108.785C76.8499 109.225 76.3443 109.665 75.8323 110.121C75.3747 110.53 74.9203 110.936 74.4483 111.36C73.2323 112.272 73.2323 112.272 71.6323 112.272C71.2363 113.464 71.2363 113.465 70.8323 114.673C69.5523 115.729 69.5523 115.729 67.9363 116.825C64.8643 119.033 62.5283 121.48 60.1043 124.368C58.4563 126.32 56.6643 128.096 54.8323 129.872C54.1723 130.532 53.5123 131.192 52.8323 131.872C46.8323 137.872 46.8323 137.873 44.8803 139.777C42.8163 141.889 40.9523 144.097 39.0963 146.393C38.7443 146.75 38.3931 147.109 38.0323 147.481H36.4323C36.3674 147.927 36.3027 148.377 36.2355 148.833C35.4355 151.281 34.0835 152.689 32.3795 154.633C28.3635 159.425 25.1875 164.473 22.0595 169.913L20.5555 172.345C17.1155 177.977 14.5715 183.705 12.4755 189.945C12.2771 190.509 12.0795 191.073 11.8755 191.657C9.65952 198.985 10.7315 207.257 11.6755 214.777C8.35552 215.172 7.09952 214.928 4.27552 213.025C0.419524 209.081 0.203526 205.424 0.227526 200.064L0.188488 198.297C0.184816 194.185 1.0365 191.313 2.8765 187.577L3.98849 184.921C5.56449 181.241 7.3005 177.633 9.0205 174.041L10.0285 171.921C10.8445 170.209 11.6525 168.497 12.4685 166.793H14.0685L14.5181 164.889C16.8701 158.969 21.2141 154.009 25.0781 148.969C26.1901 147.489 26.1901 147.489 27.3421 145.425C28.7741 143.121 30.5581 141.465 32.4941 139.577C33.1541 138.785 33.8141 137.992 34.4941 137.176C36.3901 134.904 38.4061 132.865 40.4941 130.777C41.1045 130.017 41.7181 129.257 42.3421 128.473C45.4221 124.705 49.2381 121.681 53.0621 118.713C54.9741 117.217 54.9741 117.217 56.7501 115.345C58.8621 113.265 61.0461 111.409 63.3661 109.561C65.4301 107.905 67.4381 106.296 69.3021 104.416C76.0861 97.6725 84.6621 92.4165 92.5821 87.0565C94.0381 86.0645 95.4861 85.0645 96.9261 84.0485C115.246 71.3285 135.726 61.0885 156.526 53.1685C157.926 52.6045 159.326 52.0405 160.726 51.4725C167.302 48.8565 173.766 46.5445 180.646 44.9445C182.942 44.4005 182.942 44.4005 185.278 43.5605C187.766 42.7605 190.118 42.3365 192.71 41.9765C196.518 41.4269 200.27 40.7765 203.99 39.9445C209.51 38.9605 215.11 38.6005 220.71 38.3285C221.398 38.2951 222.086 38.2615 222.798 38.2269C229.806 37.9101 236.798 37.8197 243.838 37.8205L244 38.04Z" fill="white"/>
<path d="M366.4 191C368.304 193.856 368.224 195.2 368.272 198.6C368.296 199.624 368.319 200.648 368.344 201.704C368.362 202.784 368.38 203.872 368.397 204.952C368.43 207.072 368.473 209.184 368.522 211.296C368.537 212.232 368.552 213.176 368.567 214.144C368.614 216.504 368.614 216.504 369.591 217.96C370.751 220.608 370.679 223.208 370.727 226.04C370.743 226.67 370.759 227.296 370.775 227.952C370.826 230.048 370.865 232.144 370.905 234.232C370.938 235.712 370.971 237.184 371.005 238.664C371.094 242.608 371.173 246.552 371.25 250.504C371.298 252.936 371.349 255.368 371.402 257.792C371.826 277.472 372.197 297.152 372.01 316.832C372.005 317.485 371.999 318.136 371.994 318.808C371.978 320.48 371.956 322.16 371.933 323.832C371.83 326.144 371.83 326.144 372.797 327.8C372.914 328.928 372.986 330.072 373.035 331.208C373.067 331.914 373.099 332.624 373.132 333.344C373.163 334.113 373.194 334.88 373.225 335.672C373.26 336.47 373.294 337.272 373.329 338.088C373.402 339.792 373.473 341.488 373.541 343.192C373.645 345.744 373.756 348.296 373.868 350.848C374.234 359.488 374.477 368.048 374.4 376.688C374.395 384.928 374.516 393.648 377.6 401.328C378.392 401.856 379.184 402.384 380 402.928V404.528C383.752 406.16 385.824 406.336 389.68 404.878C393.072 403.366 395.136 401.678 397.584 398.926H399.184C399.497 398.226 399.497 398.226 399.815 397.51C400.847 395.606 401.983 394.334 403.487 392.774C418.367 376.294 428.927 355.494 439.967 336.374C441.087 334.446 442.207 332.526 443.335 330.598C444.13 329.23 444.919 327.862 445.703 326.494C449.951 319.238 454.583 311.854 461.543 306.974C464.191 306.374 464.191 306.374 466.343 306.174C467.471 307.982 468.567 309.75 469.391 311.726C471.351 316.326 473.855 318.43 478.351 320.606C488.591 324.03 500.351 321.107 510.191 317.798C514.727 316.286 518.351 315.486 523.151 315.806V318.206C512.591 324.246 501.151 326.926 489.231 328.686C485.911 329.502 483.703 330.83 480.751 332.582H479.151C478.93 333.024 478.709 333.462 478.482 333.918C478.175 334.533 477.868 335.15 477.554 335.782C477.23 336.446 476.906 337.11 476.57 337.798C473.49 343.814 470.066 349.078 463.93 352.198C460.146 352.762 457.282 352.43 453.85 350.646C450.97 347.462 449.546 343.694 447.946 339.766C446.442 339.812 446.442 339.812 444.746 340.566C443.106 342.654 443.106 342.654 441.642 345.27C441.364 345.742 441.085 346.214 440.802 346.694C437.73 351.926 434.842 357.254 432.082 362.614C425.05 376.134 416.162 388.054 406.402 399.734C405.627 400.686 405.627 400.686 404.834 401.662C400.242 407.126 393.474 414.062 386.114 415.262C382.538 415.357 380.506 415.256 377.394 413.414C374.682 410.71 372.674 407.302 371.242 403.734V400.534H369.642C369.217 398.99 368.802 397.438 368.394 395.886C368.162 395.022 367.93 394.158 367.691 393.27C367.244 390.934 367.244 390.934 368.044 388.534H366.444V384.534H365.644C365.299 381.414 364.957 378.302 364.62 375.174C364.448 373.598 364.273 372.014 364.098 370.438C363.99 369.438 363.881 368.446 363.77 367.414C363.669 366.494 363.569 365.582 363.465 364.63C363.273 362.438 363.202 360.318 363.245 358.118H362.445C362.197 354.502 361.955 350.886 361.718 347.238C361.637 346.006 361.553 344.774 361.469 343.542C361.347 341.774 361.232 340.006 361.117 338.238C361.078 337.686 361.039 337.134 360.999 336.566C360.754 332.662 360.754 332.662 361.645 330.878C357.429 334.358 353.565 338.134 349.725 341.998C336.525 355.278 336.525 355.278 330.365 355.758C327.405 355.43 325.885 355.042 323.469 353.19C319.109 347.646 315.989 342.55 315.517 335.43C315.428 334.15 315.428 334.15 315.336 332.838C315.277 331.87 315.277 331.87 315.217 330.878H313.617C313.089 332.198 312.561 333.518 312.017 334.878H310.417C310.253 335.555 310.087 336.23 309.917 336.926C308.221 341.158 305.557 344.046 302.013 346.846C299.221 347.958 298.029 347.942 295.213 346.846C289.829 342.086 287.469 334.126 284.813 327.646C280.373 330.03 276.493 332.83 272.573 335.966C256.813 348.206 256.813 348.206 247.373 347.966C244.373 347.444 242.861 345.838 240.829 343.662C240.285 342.79 239.741 341.91 239.181 341.014C237.861 338.734 237.861 338.734 235.781 338.262C231.213 339.534 228.293 343.294 225.381 346.902C221.461 351.518 215.621 355.382 209.621 356.502C205.197 356.633 201.541 355.886 198.101 353.07C194.853 349.542 192.645 345.134 192.445 340.27C193.161 329.63 196.357 319.39 204.045 311.63C209.397 307.406 214.925 305.71 221.725 306.126C225.501 306.626 229.029 307.678 232.045 310.03C232.601 311.086 233.141 312.15 233.645 313.23C234.173 313.494 234.701 313.758 235.245 314.03C235.814 315.342 235.814 315.342 236.349 317.078C236.553 317.726 236.757 318.374 236.968 319.038C237.193 319.76 237.417 320.478 237.649 321.222C238.447 323.662 239.257 326.094 240.081 328.526C240.553 329.926 241.009 331.334 241.449 332.742C242.289 335.302 243.225 337.19 244.953 339.27C248.417 341.006 250.793 340.814 254.473 339.621C266.233 333.677 276.713 324.421 285.513 314.741C288.073 312.093 290.025 311.717 293.673 311.637C296.353 315.605 296.089 318.405 295.545 322.917C294.545 329.493 294.545 329.493 296.873 335.317C297.401 335.68 297.929 336.043 298.473 336.421C303.193 335.173 305.665 331.885 308.073 327.861C311.777 321.389 314.113 315.701 314.937 308.181C315.412 304.965 316.089 303.437 318.457 301.197C321.457 300.897 321.457 300.897 324.057 301.197C325.545 303.733 325.849 305.557 325.817 308.477C325.812 309.285 325.807 310.101 325.801 310.933C325.788 311.805 325.775 312.677 325.761 313.573C325.752 314.917 325.752 314.917 325.743 316.293C325.723 319.157 325.693 322.029 325.661 324.853C325.619 328.629 325.587 332.405 325.561 336.213C325.548 337.085 325.535 337.965 325.521 338.861C325.516 339.669 325.51 340.477 325.505 341.301C325.492 342.365 325.492 342.365 325.48 343.461C325.497 345.349 325.497 345.349 327.264 346.781C332.4 347.278 335.424 345.437 339.424 342.389C344.416 338.205 348.864 333.349 353.344 328.629C355.256 326.757 355.256 326.757 356.808 325.701C359.464 323.773 361.336 322.269 362.24 319.037C362.46 316.421 362.481 313.869 362.433 311.245C362.441 310.253 362.448 309.269 362.456 308.253C362.47 305.549 362.456 302.853 362.43 300.173C362.409 297.325 362.426 294.477 362.438 291.613C362.457 286.205 362.443 280.813 362.418 275.373C362.385 268.093 362.396 260.813 362.406 253.533C362.409 251.765 362.411 249.997 362.413 248.229C362.414 247.654 362.415 247.077 362.416 246.485C362.42 242.581 362.411 238.677 362.397 234.805C362.365 223.285 362.396 211.845 363.245 200.405C363.286 199.755 363.326 199.109 363.368 198.437C363.419 197.797 363.471 197.157 363.524 196.501C363.587 195.637 363.587 195.637 363.652 194.765C364.137 192.853 364.964 192.077 366.444 190.813L366.4 191ZM208.8 319.8C204.52 326.992 200.64 334.44 201.928 343.08C202.328 344.8 202.328 344.8 204.056 346.264C208.856 347.792 212.296 347.472 216.776 345.464C222.008 342.64 226.456 338.136 228.776 332.584C229.531 327.176 226.96 322.584 223.928 318.264C221.816 316.016 220.448 315.088 217.376 314.616C213.216 315.17 211.36 316.552 208.736 319.816L208.8 319.8ZM458.4 323.8C457.83 324.96 457.83 324.96 457.248 326.152C456 328.6 456 328.6 455.2 329.4C454.71 333.96 454.376 337.72 456.952 341.64C459.056 343.144 459.056 343.144 461.256 343.088C464.048 341.8 464.944 340.952 466.408 338.192C466.997 333.944 467.288 329.392 465.112 325.552C463.328 323.504 463.328 323.504 460.616 323.456C459.89 323.555 459.16 323.654 458.416 323.756L458.4 323.8Z" fill="white"/>
<path d="M1108 131C1108.79 131.264 1109.58 131.528 1110.4 131.8C1110.67 133.4 1110.93 135 1111.2 136.6C1111.33 137.332 1111.46 138.064 1111.6 138.816C1112.93 147.376 1112.85 156.016 1112.78 164.656C1112.76 170.112 1112.94 175.536 1113.2 180.976C1113.67 191.936 1113.7 202.896 1113.68 213.856C1113.68 215.888 1113.68 217.928 1113.67 219.96C1113.67 224.704 1113.67 229.48 1113.66 234.2C1113.65 239.616 1113.64 245 1113.64 250.44C1113.63 261.56 1113.62 272.68 1113.6 283.8H1116C1116.19 283.157 1116.38 282.512 1116.57 281.848C1117.85 278.312 1119.53 275.104 1121.3 271.768C1121.65 271.101 1122.01 270.432 1122.37 269.744C1135.81 244.624 1135.81 244.624 1147.17 238.944C1150.68 238.233 1153.71 238.637 1156.77 240.544C1159.99 244.696 1160.48 249.024 1159.97 254.144C1159.84 254.952 1159.72 255.752 1159.59 256.584C1159.04 260.752 1158.82 264.904 1158.62 269.064C1158.55 270.304 1158.55 270.304 1158.47 271.568C1158.44 272.362 1158.4 273.16 1158.36 273.976C1158.32 274.694 1158.29 275.416 1158.25 276.152C1158.38 278.264 1158.89 279.512 1159.97 281.312C1171.57 280.36 1181.25 272.432 1190.37 265.712C1191.89 264.592 1193.42 263.488 1194.95 262.384C1200.89 258.048 1205.11 253.504 1209.27 247.424C1211.14 244.968 1212.5 243.224 1215.51 242.304C1218.58 242.073 1220.68 242.288 1223.25 244.032C1225.83 246.512 1228.01 249.264 1229.58 252.512V254.112L1230.98 254.812C1232.78 255.708 1232.78 255.708 1234.17 256.54C1244.25 260.82 1257.29 254.94 1266.97 251.804C1267.67 251.582 1268.37 251.361 1269.09 251.133C1269.71 250.93 1270.34 250.727 1270.98 250.518C1273.9 249.86 1276.3 250.314 1279.22 250.907C1276.26 254.283 1273.45 255.939 1269.14 257.403C1268.58 257.606 1268.01 257.808 1267.42 258.017C1259.68 260.721 1252.14 262.393 1243.98 262.977C1239.98 263.336 1237.53 264.385 1234.38 266.905C1232.7 269.593 1231.8 272.297 1230.88 275.305C1229.42 279.793 1227.36 282.465 1223.43 285.225C1218.82 286.793 1214.63 287.009 1210.15 284.874C1203.02 278.546 1203.02 278.546 1202.35 273.354C1202.3 271.802 1202.28 270.25 1202.3 268.706C1202.31 267.926 1202.32 267.146 1202.32 266.338C1202.34 265.458 1202.34 265.458 1202.35 264.554C1199.18 265.61 1197.44 266.85 1195.2 269.306C1186.4 278.426 1172.88 290.346 1159.84 291.386C1156.79 290.986 1156.79 290.986 1154.44 289.338C1151.46 285.106 1151.86 279.898 1151.74 274.858C1151.72 274.262 1151.7 273.666 1151.69 273.05C1151.63 271.17 1151.59 269.282 1151.54 267.402C1151.5 266.114 1151.47 264.834 1151.43 263.546C1151.35 260.418 1151.27 257.282 1151.19 254.186C1150.66 253.922 1150.13 253.658 1149.59 253.386C1149.11 251.266 1149 249.154 1148.79 246.986H1145.59C1145.06 248.306 1144.53 249.626 1143.99 250.986H1142.39C1142.22 251.614 1142.06 252.242 1141.89 252.89C1140.97 255.314 1140.04 257.114 1138.69 259.29C1135.55 264.378 1132.97 269.69 1130.37 275.05C1129.72 276.362 1129.05 277.658 1128.37 278.954C1125.75 283.986 1123.54 289.114 1121.42 294.394C1121.14 295.074 1120.87 295.754 1120.59 296.45C1119.43 299.386 1118.35 302.258 1117.58 305.33C1116.81 307.746 1116.81 307.746 1114.42 309.346C1112.55 309.41 1110.68 309.417 1108.82 309.346C1104.76 303.61 1104.27 298.866 1104.43 291.986C1104.43 291.034 1104.44 290.09 1104.44 289.114C1104.46 286.106 1104.51 283.098 1104.57 280.074C1104.59 278.026 1104.6 275.978 1104.62 273.93C1104.66 268.93 1104.73 263.93 1104.82 258.89C1099.54 262.362 1094.34 265.898 1089.22 269.61C1070.34 283.21 1070.34 283.21 1060.82 282.09C1058.65 281.242 1057.13 280.266 1055.22 278.89V277.29C1054.42 277.026 1053.63 276.762 1052.82 276.49C1052.29 275.098 1052.29 275.098 1051.97 273.386C1051.48 270.898 1051.09 269.898 1049.62 267.69C1049.21 265.706 1049.21 265.706 1048.93 263.37C1048.83 262.522 1048.73 261.682 1048.62 260.81C1048.52 259.93 1048.42 259.05 1048.31 258.138C1048.21 257.258 1048.1 256.378 1047.99 255.474C1047.58 252.042 1047.21 248.746 1047.21 245.314C1046.59 246.586 1046.59 246.586 1045.96 247.89C1039.77 260.45 1039.77 260.45 1036.84 264.53H1034.44C1033.49 263.33 1033.49 263.33 1032.84 261.33C1033.49 259.002 1034.21 257.098 1035.24 254.93C1035.56 254.241 1035.89 253.554 1036.22 252.842C1039.44 246.49 1043.65 240.522 1049.66 236.522C1052.03 236.81 1052.74 237.2 1054.46 238.922C1054.74 240.714 1054.74 240.714 1054.86 242.826C1055.01 245.714 1055.01 245.714 1056.04 248.362C1057.04 250.506 1057.26 252.346 1057.52 254.698C1057.62 255.578 1057.72 256.45 1057.82 257.354C1057.92 258.266 1058.02 259.178 1058.12 260.122C1058.31 261.93 1058.52 263.738 1058.72 265.546C1058.8 266.346 1058.89 267.146 1058.98 267.97C1059.32 270.69 1059.32 270.69 1060.07 273.322C1062.29 275.154 1062.29 275.154 1064.66 274.786C1067.65 274.023 1070.28 272.866 1072.98 271.474C1073.53 271.198 1074.08 270.922 1074.64 270.634C1081.06 267.306 1087.2 263.434 1093.2 259.434C1095.24 258.146 1095.24 258.146 1097.49 257.018C1102.08 254.65 1102.08 254.65 1104.84 250.506C1105.15 248.002 1105.17 245.618 1105.1 243.098C1105.1 242.162 1105.11 241.218 1105.12 240.25C1105.13 237.146 1105.09 234.05 1105.04 230.97C1105.04 228.794 1105.04 226.626 1105.05 224.45C1105.06 219.306 1105.03 214.13 1104.98 209.01C1104.92 202.658 1104.91 196.29 1104.91 189.97C1104.91 187.722 1104.91 185.466 1104.9 183.218C1104.9 182.67 1104.9 182.122 1104.9 181.554C1104.9 177.842 1104.88 174.138 1104.85 170.434C1104.78 161.234 1104.78 152.114 1105.08 142.994C1105.11 141.858 1105.11 141.858 1105.14 140.706C1105.3 136.834 1105.57 134.17 1108.03 131.026L1108 131ZM1106.4 135V140.6H1107.2V135H1106.4ZM1219.2 252.6C1213.41 258.456 1211.2 263.08 1211.12 271.4C1211.7 273.976 1211.7 273.976 1214.07 275.2C1217.06 276.328 1218.5 276.296 1221.52 275.4C1223.35 273.912 1223.35 273.912 1223.3 271.56C1223.3 270.632 1223.29 269.696 1223.28 268.744C1223.27 267.736 1223.27 266.736 1223.26 265.696C1223.25 264.64 1223.24 263.584 1223.22 262.496C1223.21 261.424 1223.21 260.352 1223.2 259.28C1223.18 256.648 1223.16 254.024 1223.12 251.392C1220.71 251.143 1220.71 251.143 1219.17 252.624L1219.2 252.6Z" fill="white"/>
<path d="M970.4 220.6C973.072 223.48 973.512 225.824 973.8 229.64C973.527 233.664 972.528 236.864 969.6 239.8C967.752 240.2 967.752 240.2 965.6 239.8C960.896 235.096 960.896 235.096 960.8 231.8C962.608 224 962.608 224 965.952 221.56C968 220.56 968 220.56 970.4 220.56V220.6Z" fill="white"/>
<path d="M819.2 221.4C820.104 221.416 821.016 221.433 821.952 221.45C823.888 227.37 824.184 232.25 821.952 238.25C819.352 239.986 818.568 240.29 815.552 239.85C812.624 237.674 811.464 235.402 810.752 231.85C811.744 227.106 813.976 221.53 819.232 221.37L819.2 221.4Z" fill="white"/>
<path d="M681.6 299H682.4V392.6H681.6V299Z" fill="white"/>
<path d="M682.4 192.6H683.2V231H682.4V192.6Z" fill="white"/>
<path d="M372 290.2H372.8V308.6H372V290.2Z" fill="white"/>
<path d="M1018.4 261.4H1019.2V275.8H1018.4V261.4Z" fill="white"/>
<path d="M368.8 203.8H369.6V216.6H368.8V203.8Z" fill="white"/>
<path d="M375.2 382.2H376V391.8H375.2V382.2Z" fill="white"/>
<path d="M456 329.4H456.8V339H456V329.4Z" fill="white"/>
<path d="M1150.4 254.2H1151.2V263H1150.4V254.2Z" fill="white"/>
<path d="M365.6 187.8H367.2C367.464 188.592 367.728 189.384 368 190.2C367.208 190.464 366.416 190.728 365.6 191V187.8Z" fill="white"/>
<path d="M1013.6 257.4V259.8H1011.2L1013.6 257.4Z" fill="white"/>
<path d="M1108.8 127C1109.33 128.056 1109.86 129.112 1110.4 130.2C1109.61 129.936 1108.82 129.672 1108 129.4C1108.26 128.608 1108.53 127.816 1108.8 127Z" fill="white"/>
<path d="M682.4 259.8H683.2V264.6H682.4V259.8Z" fill="white"/>
<path d="M368 196.6H368.8V201.4H368V196.6Z" fill="white"/>
<path d="M513.6 172.6H515.2C514.936 173.128 514.672 173.656 514.4 174.2C514.136 173.672 513.872 173.144 513.6 172.6Z" fill="white"/>
</svg>
