<svg width="24" height="24" viewBox="0 0 24 24" fill="none" xmlns="http://www.w3.org/2000/svg">
<g clip-path="url(#clip0_1102_580)">
<path d="M10.17 6.93996C9.08932 7.25037 8.14285 7.91184 7.47995 8.81996C7.10674 9.39679 6.85794 10.0451 6.74947 10.7235C6.64099 11.4019 6.67521 12.0955 6.84995 12.76C7.01529 13.4508 7.34805 14.0904 7.81891 14.6223C8.28976 15.1542 8.88425 15.5621 9.54995 15.81C10.4556 16.122 11.4246 16.2045 12.37 16.05C13.2919 15.8879 14.1683 15.5299 14.94 15C15.2492 14.792 15.5372 14.5542 15.8 14.29C15.993 14.0913 16.161 13.8696 16.3 13.63C16.4601 13.3162 16.5682 12.9784 16.62 12.63C16.695 12.1428 16.695 11.6471 16.62 11.16C16.4712 10.2356 16.1082 9.35891 15.56 8.59997C14.9537 7.78744 14.1047 7.18873 13.1359 6.89033C12.167 6.59194 11.1283 6.60932 10.17 6.93996ZM14.88 8.99996C15.3275 9.66628 15.6055 10.4318 15.69 11.23C15.7358 11.5617 15.7358 11.8982 15.69 12.23C15.6613 12.5356 15.5694 12.8319 15.42 13.1C15.2972 13.2952 15.1415 13.4678 14.96 13.61C14.764 13.7817 14.5532 13.9356 14.33 14.07C13.6828 14.501 12.9488 14.7844 12.18 14.9C11.4251 15.0239 10.6511 14.9551 9.92995 14.7C9.44073 14.5126 9.00369 14.2104 8.65564 13.8188C8.30758 13.4272 8.05871 12.9578 7.92995 12.45C7.7677 11.928 7.71416 11.3782 7.77263 10.8347C7.83111 10.2912 8.00037 9.7655 8.26995 9.28996C8.7777 8.52373 9.52766 7.94983 10.4 7.65996C11.184 7.31338 12.0659 7.25793 12.8871 7.50357C13.7084 7.74921 14.415 8.27982 14.88 8.99996Z" fill="black"/>
<path d="M23.9999 10.4699C24.0055 10.2076 23.9786 9.94564 23.9199 9.68994C23.8857 9.53172 23.8137 9.38417 23.7099 9.25994C23.5532 9.07996 23.3486 8.94818 23.1199 8.87994C22.8718 8.81004 22.6171 8.76647 22.3599 8.74994C21.9337 8.77294 21.5076 8.70476 21.1099 8.54994C21.0107 8.49216 20.9258 8.41266 20.8618 8.3174C20.7977 8.22215 20.756 8.11361 20.7399 7.99994L20.5199 6.99994L20.3599 6.37994C20.4499 6.05994 20.8699 5.84994 21.0599 5.55994C21.1436 5.43886 21.1996 5.30079 21.2238 5.15559C21.248 5.01038 21.2398 4.86163 21.1999 4.71994C21.1016 4.44653 20.9406 4.19994 20.7299 3.99994C20.3299 3.57994 19.7299 3.26994 19.3599 2.92994C19.1399 2.73994 18.8899 2.43994 18.6199 2.21994C18.479 2.0998 18.3205 2.002 18.1499 1.92994C18.0011 1.86765 17.8402 1.83979 17.6792 1.84845C17.5181 1.85711 17.3611 1.90206 17.2199 1.97994C16.7999 2.20994 16.4799 2.76994 16.1499 2.97994C16.0437 3.02075 15.9261 3.02075 15.8199 2.97994C15.6404 2.95386 15.4631 2.91373 15.2899 2.85994C14.9884 2.78858 14.6987 2.67406 14.4299 2.51994C14.2927 2.44112 14.1868 2.31755 14.1299 2.16994L13.8199 1.02994C13.8099 0.887271 13.7831 0.746288 13.7399 0.60994C13.7086 0.514706 13.6493 0.431088 13.5699 0.36994C13.4449 0.288478 13.3059 0.230842 13.1599 0.19994C12.9686 0.143806 12.7686 0.123466 12.5699 0.13994C12.5252 0.14388 12.4818 0.156575 12.4421 0.177302C12.4023 0.198028 12.367 0.226379 12.3383 0.260737C12.2801 0.330125 12.2519 0.419766 12.2599 0.50994C12.2678 0.600114 12.3113 0.683433 12.3807 0.74157C12.4501 0.799706 12.5397 0.827897 12.6299 0.81994C12.7294 0.806607 12.8303 0.806607 12.9299 0.81994H13.0999V1.06994L13.4299 2.33994C13.5385 2.62622 13.7344 2.8711 13.9899 3.03994C14.3164 3.23731 14.6702 3.38556 15.0399 3.47994C15.3023 3.56996 15.574 3.63033 15.8499 3.65994C16.092 3.67618 16.3331 3.61677 16.5399 3.48994C16.8199 3.30994 17.0999 2.86994 17.4399 2.60994C17.4892 2.56196 17.5505 2.52824 17.6174 2.51239C17.6844 2.49654 17.7543 2.49915 17.8199 2.51994C17.9528 2.58719 18.0743 2.67493 18.1799 2.77994C18.3999 2.98994 18.6099 3.23994 18.8099 3.40994C19.0099 3.57994 19.5899 3.95994 19.9499 4.28994C20.1436 4.44012 20.2867 4.64602 20.3599 4.87994C20.3599 5.01994 20.2699 5.09994 20.1699 5.19994C20.0699 5.29994 19.8799 5.46994 19.7499 5.61994C19.64 5.75358 19.5553 5.90605 19.4999 6.06994C19.4697 6.21505 19.4697 6.36483 19.4999 6.50994C19.5422 6.73011 19.599 6.94725 19.6699 7.15994L19.8799 8.15994C19.9242 8.37792 20.0116 8.58485 20.1369 8.7686C20.2623 8.95234 20.4231 9.10919 20.6099 9.22994C21.1234 9.45728 21.6783 9.57642 22.2399 9.57994C22.402 9.58501 22.5631 9.60849 22.7199 9.64994C22.8074 9.65732 22.8892 9.69644 22.9499 9.75994L23.0099 10.3599C23.047 10.9061 23.0436 11.4543 22.9999 11.9999C22.9935 12.2246 22.9165 12.4415 22.7799 12.6199L22.3799 12.6999C22.136 12.7689 21.9011 12.8662 21.6799 12.9899C21.5113 13.0847 21.3593 13.2063 21.2299 13.3499C20.9996 13.6084 20.8015 13.8938 20.6399 14.1999C20.4001 14.6197 20.1863 15.0539 19.9999 15.4999C19.8336 15.8886 19.7485 16.3072 19.7499 16.7299C19.7703 17.1754 19.8935 17.61 20.1099 17.9999C20.2199 18.2199 20.4199 18.4999 20.5299 18.7799C20.5299 18.8699 20.6199 18.9499 20.5299 19.0199L18.9999 20.1599L18.5699 20.4399L17.7299 19.8699C17.3588 19.6787 16.9473 19.5793 16.5299 19.5799C15.9621 19.6134 15.4073 19.7631 14.8999 20.0199C14.582 20.1542 14.2829 20.3289 14.0099 20.5399C13.8301 20.6865 13.695 20.8805 13.6199 21.0999L13.3599 22.5499L13.2999 22.6699C13.1037 22.6899 12.9061 22.6899 12.7099 22.6699C12.2799 22.6099 11.8499 22.5099 11.4499 22.4599L10.9999 22.3699C10.9276 22.3678 10.8577 22.3434 10.7999 22.2999C10.4799 22.0199 10.4499 21.5799 10.2199 21.2999C10.0429 21.0591 9.79971 20.8749 9.51989 20.7699L7.99989 20.2799C7.74989 20.1899 7.47989 20.0499 7.20989 19.9699C7.04819 19.9183 6.87963 19.8913 6.70989 19.8899C6.52319 19.8891 6.33867 19.9301 6.16989 20.0099C5.96934 20.1013 5.78388 20.2227 5.61989 20.3699C5.53095 20.4697 5.42622 20.5542 5.30989 20.6199C5.19105 20.5145 5.06759 20.4144 4.93989 20.3199C4.56989 20.0399 4.14989 19.7799 3.78989 19.4699C3.58971 19.3082 3.42033 19.1118 3.28989 18.8899C3.25029 18.8108 3.22967 18.7235 3.22967 18.6349C3.22967 18.5464 3.25029 18.4591 3.28989 18.3799C3.48989 17.8899 3.87989 17.3799 4.00989 16.9599C4.06058 16.7294 4.06058 16.4905 4.00989 16.2599C3.91262 15.8857 3.7821 15.5209 3.61989 15.1699L3.35989 14.6399C3.20197 14.3866 2.96721 14.1904 2.68989 14.0799C2.46536 14.018 2.23263 13.9911 1.99989 13.9999C1.84078 14.0037 1.68308 13.9694 1.53989 13.8999C1.53989 13.8299 1.46989 13.5799 1.42989 13.4699C1.31989 12.9999 1.14989 12.5999 0.99989 12.1799C0.964469 11.9312 0.964469 11.6787 0.99989 11.4299C0.997816 11.3487 1.01378 11.268 1.04663 11.1936C1.07949 11.1193 1.12841 11.0531 1.18989 10.9999C1.62306 10.7974 2.04084 10.5634 2.43989 10.2999C2.53523 10.2132 2.61624 10.112 2.67989 9.99994C2.78989 9.82994 2.86989 9.62994 2.95989 9.46994C3.04989 9.30994 3.31989 8.86994 3.47989 8.56994C3.60122 8.34411 3.69842 8.10613 3.76989 7.85994C3.87328 7.50776 3.84117 7.12965 3.67989 6.79994C3.46173 6.44894 3.21772 6.11468 2.94989 5.79994C2.88497 5.71733 2.83117 5.62656 2.78989 5.52994C2.78989 5.45994 2.71989 5.37994 2.78989 5.30994C2.94386 5.07878 3.12148 4.86429 3.31989 4.66994C3.63455 4.36224 3.96856 4.07499 4.31989 3.80994C4.45223 3.70072 4.59648 3.6068 4.74989 3.52994C4.873 3.46428 5.01037 3.42994 5.14989 3.42994L5.49989 3.70994C5.67359 3.86644 5.86101 4.00701 6.05989 4.12994C6.20771 4.21826 6.36548 4.28875 6.52989 4.33994C6.7615 4.40914 7.00828 4.40914 7.23989 4.33994C7.61418 4.17064 7.9752 3.97341 8.31989 3.74994L8.78989 3.47994L9.15989 3.21994C9.25507 3.14451 9.33418 3.0508 9.39257 2.94431C9.45097 2.83783 9.48745 2.72074 9.49989 2.59994C9.51322 2.39735 9.4895 2.19402 9.42989 1.99994C9.38461 1.84655 9.38461 1.68333 9.42989 1.52994L9.73989 1.37994C9.98626 1.27445 10.245 1.20053 10.5099 1.15994C10.9234 1.0844 11.3407 1.03099 11.7599 0.99994C11.8395 0.99994 11.9158 0.968333 11.972 0.912072C12.0283 0.855811 12.0599 0.779505 12.0599 0.69994C12.0599 0.620375 12.0283 0.544069 11.972 0.487808C11.9158 0.431547 11.8395 0.39994 11.7599 0.39994C11.3025 0.429305 10.8479 0.492815 10.3999 0.58994C10.0825 0.642661 9.77097 0.726395 9.46989 0.83994C9.30848 0.878159 9.15109 0.931736 8.99989 0.99994C8.90485 1.07157 8.83204 1.16865 8.78989 1.27994C8.63989 1.69994 8.87989 2.07994 8.78989 2.43994C8.78515 2.47596 8.77291 2.51059 8.75397 2.5416C8.73502 2.5726 8.70979 2.59929 8.67989 2.61994L8.39989 2.80994L7.99989 3.07994C7.76989 3.18994 7.45989 3.41994 7.13989 3.54994C7.01811 3.61753 6.8783 3.6455 6.73989 3.62994C6.60641 3.5771 6.47901 3.51005 6.35989 3.42994C6.22989 3.33994 6.09989 3.22994 5.97989 3.12994C5.85082 2.99094 5.70659 2.86683 5.54989 2.75994C5.44332 2.69666 5.3235 2.659 5.19989 2.64994C4.98428 2.63858 4.76889 2.67618 4.56989 2.75994C4.31174 2.86193 4.06933 2.99997 3.84989 3.16994C3.46723 3.44985 3.10003 3.75029 2.74989 4.06994C2.50681 4.29577 2.28887 4.54723 2.09989 4.81994C2.03817 4.92252 1.99753 5.03638 1.98036 5.15486C1.96319 5.27334 1.96983 5.39406 1.99989 5.50994C2.04605 5.77859 2.15577 6.0323 2.31989 6.24994C2.55896 6.53434 2.77308 6.83879 2.95989 7.15994C3.01575 7.31163 3.01575 7.47825 2.95989 7.62994C2.89709 7.81876 2.81323 7.9999 2.70989 8.16994C2.54989 8.46994 2.35989 8.74994 2.18989 9.02994L1.84989 9.62994C1.40989 10.0099 0.78989 10.0899 0.42989 10.4499C0.182832 10.6903 0.0362874 11.0156 0.01989 11.3599C-0.00113468 11.6959 0.0292144 12.0331 0.10989 12.3599C0.20989 12.8099 0.37989 13.2499 0.51989 13.6899C0.553475 13.8764 0.60026 14.0602 0.65989 14.2399C0.718173 14.3973 0.82277 14.5333 0.95989 14.6299C1.20248 14.825 1.49223 14.9526 1.79989 14.9999C1.96927 15.0053 2.13729 15.0322 2.29989 15.0799C2.37234 15.1135 2.43197 15.1697 2.46989 15.2399L2.63989 15.5999C2.73468 15.8188 2.81813 16.0425 2.88989 16.2699C2.95442 16.407 2.97869 16.5596 2.95989 16.7099C2.79989 17.2299 2.29989 17.7099 2.14989 18.3199C2.04476 18.7025 2.09133 19.1109 2.27989 19.4599C2.47331 19.8029 2.72744 20.1078 3.02989 20.3599C3.39989 20.6799 3.83989 20.9499 4.21989 21.2499C4.39745 21.4163 4.59183 21.5638 4.79989 21.6899C4.98932 21.7924 5.20677 21.831 5.41989 21.7999C5.58882 21.762 5.75078 21.6979 5.89989 21.6099C6.06543 21.502 6.22255 21.3816 6.36989 21.2499C6.45989 21.1799 6.54989 21.0699 6.66989 21.0699C6.76249 21.0756 6.85362 21.0958 6.93989 21.1299C7.15989 21.2099 7.37989 21.3199 7.58989 21.3999L9.10989 21.8399C9.18115 21.87 9.24324 21.9183 9.28989 21.9799C9.55989 22.3599 9.64989 22.8699 10.0299 23.1999C10.1685 23.3183 10.3278 23.4099 10.4999 23.4699C10.7752 23.5432 11.0562 23.5934 11.3399 23.6199C11.8099 23.6799 12.3399 23.8099 12.8299 23.8499C13.086 23.8747 13.3438 23.8747 13.5999 23.8499C13.7705 23.8265 13.9304 23.7534 14.0599 23.6399C14.2316 23.4761 14.3678 23.2787 14.4599 23.0599C14.5375 22.8742 14.5913 22.6793 14.6199 22.4799C14.6465 22.1441 14.6933 21.8102 14.7599 21.4799C14.7599 21.3899 14.9099 21.3599 15.0099 21.2999C15.1099 21.2399 15.3099 21.1599 15.4199 21.1099C15.734 20.9485 16.0714 20.8372 16.4199 20.7799C16.7109 20.7401 17.0071 20.7888 17.2699 20.9199C17.4999 21.0399 17.8199 21.3499 18.1099 21.4799C18.2513 21.5563 18.4091 21.5975 18.5699 21.5999C18.738 21.6089 18.9059 21.5781 19.0599 21.5099C19.2852 21.4065 19.4968 21.2755 19.6899 21.1199L21.2899 19.8499C21.4237 19.7367 21.5288 19.5934 21.5966 19.4318C21.6644 19.2701 21.6929 19.0947 21.6799 18.9199C21.567 18.4254 21.3672 17.9547 21.0899 17.5299C20.9493 17.2932 20.8703 17.0251 20.8599 16.7499C20.8581 16.4645 20.916 16.1818 21.0299 15.9199C21.1796 15.5068 21.3532 15.1028 21.5499 14.7099C21.6706 14.456 21.8218 14.2176 21.9999 13.9999C22.0765 13.9169 22.1681 13.8491 22.2699 13.7999C22.3951 13.7356 22.5256 13.6821 22.6599 13.6399C22.7899 13.6399 22.9599 13.5899 23.0999 13.5399C23.2205 13.497 23.3323 13.4327 23.4299 13.3499C23.7027 13.0799 23.8815 12.7293 23.9399 12.3499C24.0204 11.7267 24.0405 11.0971 23.9999 10.4699Z" fill="black"/>
</g>
<defs>
<clipPath id="clip0_1102_580">
<rect width="24" height="24" fill="#0A6847"/>
</clipPath>
</defs>
</svg>
