<svg width="24" height="24" viewBox="0 0 24 24" fill="none" xmlns="http://www.w3.org/2000/svg">
<path d="M1.85007 15.3901C1.9946 15.5366 2.18543 15.6284 2.39007 15.6501C2.79969 15.6752 3.21046 15.6752 3.62007 15.6501C4.36007 15.7101 5.09007 15.8001 5.83007 15.8101C6.35354 15.8181 6.8764 15.7712 7.39007 15.6701C7.69963 15.6206 8.00417 15.5436 8.30007 15.4401C8.56537 15.3518 8.80548 15.2009 9.00007 15.0001C9.17988 14.8026 9.29502 14.5549 9.33007 14.2901C9.35042 13.917 9.35042 13.5431 9.33007 13.1701C9.45012 12.0433 9.45012 10.9069 9.33007 9.78008C9.24231 9.19206 8.93942 8.65754 8.48007 8.28008C8.18188 8.09065 7.83309 7.99648 7.48007 8.01008C6.89051 8.03724 6.30293 8.09734 5.72007 8.19008C5.23007 8.19008 4.72007 8.27008 4.23007 8.33008C3.48007 8.41008 2.74007 8.52008 2.01007 8.63008C1.96659 8.63321 1.9243 8.64578 1.88617 8.66692C1.84804 8.68805 1.81497 8.71725 1.78927 8.75246C1.76357 8.78768 1.74585 8.82808 1.73736 8.87085C1.72886 8.91361 1.72979 8.95771 1.74007 9.00008C1.7284 9.03923 1.7284 9.08093 1.74007 9.12008V9.21008C1.66985 9.52322 1.61975 9.84054 1.59007 10.1601C1.51007 10.8801 1.50007 11.6101 1.43007 12.3101C1.3234 13.0083 1.30325 13.717 1.37007 14.4201C1.43265 14.7831 1.59942 15.1201 1.85007 15.3901ZM2.27007 12.3401V10.1801C2.28802 9.88852 2.3214 9.59811 2.37007 9.31008C2.37457 9.27355 2.37457 9.23661 2.37007 9.20008C2.98007 9.14008 3.60007 9.09008 4.22007 9.05008C4.84007 9.01008 5.26007 9.00008 5.74007 9.00008C6.05007 9.00008 6.66007 8.91008 7.20007 8.92008C7.41985 8.88077 7.64638 8.90865 7.85007 9.00008C8.01179 9.18377 8.13567 9.39758 8.21461 9.62924C8.29354 9.8609 8.32599 10.1059 8.31007 10.3501C8.30537 11.2656 8.25196 12.1802 8.15007 13.0901V13.8601V14.1701C8.05266 14.2638 7.93173 14.3294 7.80007 14.3601C7.59007 14.4201 7.36007 14.4601 7.17007 14.5001C6.73277 14.5938 6.28727 14.6441 5.84007 14.6501C5.12007 14.6501 4.41007 14.6501 3.69007 14.5801C3.43007 14.5801 2.31007 14.6701 2.27007 14.4001C2.2216 13.7143 2.2216 13.0259 2.27007 12.3401Z" fill="black"/>
<path d="M22.79 15C22.6314 16.5182 22.0951 17.9724 21.23 19.23C20.3593 20.4769 19.1766 21.4734 17.8 22.12C16.9153 22.5183 15.9677 22.7586 15 22.83C13.6069 22.9123 12.2096 22.8889 10.82 22.76C10.7413 22.7549 10.6675 22.72 10.6136 22.6624C10.5598 22.6049 10.5299 22.5289 10.53 22.45C10.5313 22.4097 10.5406 22.3701 10.5575 22.3335C10.5745 22.2969 10.5986 22.2641 10.6284 22.237C10.6583 22.21 10.6933 22.1892 10.7314 22.176C10.7695 22.1627 10.8098 22.1573 10.85 22.16C12.2055 22.2059 13.5624 22.1525 14.91 22C15.771 21.8969 16.6071 21.643 17.38 21.25C18.5691 20.6165 19.5774 19.6908 20.31 18.56C21.0392 17.4379 21.4947 16.1603 21.64 14.83C21.815 13.4966 21.6593 12.1406 21.1868 10.8816C20.7142 9.62249 19.9392 8.49898 18.93 7.61002C18.2071 6.99355 17.3619 6.53689 16.45 6.27002C15.0165 5.87083 13.5452 5.62281 12.06 5.53002C11.9925 5.52243 11.9284 5.49586 11.8753 5.45339C11.8222 5.41091 11.7823 5.35427 11.76 5.29002C11.7552 5.34658 11.7552 5.40346 11.76 5.46002L12.22 5.94002L13.87 8.06002C13.9271 8.11704 13.9591 8.19438 13.9591 8.27502C13.9591 8.35566 13.9271 8.433 13.87 8.49002C13.813 8.54704 13.7357 8.57908 13.655 8.57908C13.5744 8.57908 13.4971 8.54704 13.44 8.49002L11.44 6.73002C11.2319 6.55927 11.038 6.372 10.86 6.17002C10.7275 6.01056 10.6441 5.816 10.62 5.61002C10.6043 5.20046 10.7048 4.79481 10.91 4.44002C11.1687 4.02969 11.4777 3.65342 11.83 3.32002L12.88 2.32002C12.9455 2.25589 13.0334 2.21997 13.125 2.21997C13.2166 2.21997 13.3046 2.25589 13.37 2.32002C13.4335 2.38375 13.4692 2.47005 13.4692 2.56002C13.4692 2.64999 13.4335 2.73629 13.37 2.80002L12.51 3.94002C12.3111 4.22329 12.1275 4.51705 11.96 4.82002C11.9359 4.86134 11.9158 4.90487 11.9 4.95002C11.9678 4.89611 12.0539 4.87098 12.14 4.88002C13.68 4.92977 15.211 5.13413 16.71 5.49002C17.7515 5.75997 18.7254 6.24354 19.57 6.91002C20.7373 7.88428 21.643 9.13432 22.2053 10.5469C22.7675 11.9596 22.9685 13.4901 22.79 15Z" fill="black"/>
</svg>
