<svg width="24" height="24" viewBox="0 0 24 24" fill="none" xmlns="http://www.w3.org/2000/svg">
<g clip-path="url(#clip0_1095_648)">
<path d="M1.79999 7C2.00255 7.20438 2.25929 7.34663 2.53999 7.41C2.86716 7.48903 3.20364 7.52268 3.53999 7.51C3.98724 7.51849 4.43461 7.5018 4.87999 7.46C5.51999 7.46 6.15999 7.33 6.79999 7.29C7.20068 7.30424 7.60187 7.28752 7.99999 7.24C8.29625 7.19794 8.56673 7.04847 8.75999 6.82C9.02128 6.47968 9.18699 6.07577 9.23999 5.65C9.29358 5.13853 9.31362 4.62409 9.29999 4.11C9.40958 3.08978 9.26174 2.05836 8.86999 1.11C8.66158 0.800654 8.38421 0.543905 8.05971 0.359967C7.73522 0.176029 7.37245 0.0699221 6.99999 0.05L5.76999 0C5.36647 0.0224826 4.96529 0.0759737 4.56999 0.16C3.70999 0.34 2.87999 0.63 1.99999 0.75C1.92263 0.743331 1.84549 0.765014 1.78293 0.811009C1.72038 0.857004 1.67668 0.924173 1.65999 1C1.58157 1.41227 1.53808 1.83042 1.52999 2.25V4.06C1.52999 4.42 1.38999 5.27 1.41999 5.93C1.41608 6.32039 1.55072 6.69952 1.79999 7ZM2.21999 1.44C3.06999 1.35 3.87999 1.12 4.71999 0.99C5.07254 0.919344 5.43053 0.879196 5.78999 0.87L6.78999 0.96C7.03189 0.971053 7.26771 1.03936 7.47806 1.15932C7.68841 1.27927 7.86729 1.44744 7.99999 1.65C8.25629 2.43684 8.31805 3.27407 8.17999 4.09C8.18655 4.55133 8.15981 5.01252 8.09999 5.47C8.09999 5.69 8.01999 6.07 7.87999 6.07H6.75999L3.55999 6.4C3.33375 6.41985 3.10622 6.41985 2.87999 6.4C2.72724 6.39787 2.57952 6.34511 2.45999 6.25C2.32999 6.14 2.32999 5.87 2.31999 5.58V3.99C2.31999 3.4 2.20999 2.8 2.18999 2.21C2.18637 1.943 2.19639 1.67598 2.21999 1.41V1.44Z" fill="black"/>
<path d="M1.84983 15.3901C1.99436 15.5366 2.18518 15.6284 2.38983 15.6501C2.79944 15.6752 3.21021 15.6752 3.61983 15.6501C4.35983 15.7101 5.08983 15.8001 5.82983 15.8101C6.35329 15.8181 6.87616 15.7712 7.38983 15.6701C7.69939 15.6206 8.00392 15.5436 8.29983 15.4401C8.56512 15.3518 8.80524 15.2009 8.99983 15.0001C9.17963 14.8026 9.29478 14.5549 9.32983 14.2901C9.35018 13.917 9.35018 13.5431 9.32983 13.1701C9.44988 12.0433 9.44988 10.9069 9.32983 9.78008C9.24207 9.19206 8.93917 8.65754 8.47983 8.28008C8.18163 8.09065 7.83284 7.99648 7.47983 8.01008C6.89027 8.03724 6.30268 8.09734 5.71983 8.19008C5.22983 8.19008 4.71983 8.27008 4.22983 8.33008C3.47983 8.41008 2.73983 8.52008 2.00983 8.63008C1.96634 8.63321 1.92406 8.64578 1.88593 8.66692C1.84779 8.68805 1.81472 8.71725 1.78902 8.75246C1.76332 8.78768 1.74561 8.82808 1.73711 8.87085C1.72862 8.91361 1.72954 8.95771 1.73983 9.00008C1.72816 9.03923 1.72816 9.08093 1.73983 9.12008V9.21008C1.66961 9.52322 1.61951 9.84054 1.58983 10.1601C1.50983 10.8801 1.49983 11.6101 1.42983 12.3101C1.32316 13.0083 1.30301 13.717 1.36983 14.4201C1.43241 14.7831 1.59918 15.1201 1.84983 15.3901ZM2.26983 12.3401V10.1801C2.28777 9.88852 2.32115 9.59811 2.36983 9.31008C2.37433 9.27355 2.37433 9.23661 2.36983 9.20008C2.97983 9.14008 3.59983 9.09008 4.21983 9.05008C4.83983 9.01008 5.25983 9.00008 5.73983 9.00008C6.04983 9.00008 6.65983 8.91008 7.19983 8.92008C7.41961 8.88077 7.64614 8.90865 7.84983 9.00008C8.01155 9.18377 8.13543 9.39758 8.21436 9.62924C8.2933 9.8609 8.32574 10.1059 8.30983 10.3501C8.30513 11.2656 8.25172 12.1802 8.14983 13.0901V13.8601V14.1701C8.05241 14.2638 7.93149 14.3294 7.79983 14.3601C7.58983 14.4201 7.35983 14.4601 7.16983 14.5001C6.73253 14.5938 6.28702 14.6441 5.83983 14.6501C5.11983 14.6501 4.40983 14.6501 3.68983 14.5801C3.42983 14.5801 2.30983 14.6701 2.26983 14.4001C2.22136 13.7143 2.22136 13.0259 2.26983 12.3401Z" fill="black"/>
<path d="M9.34995 17C9.23549 16.7296 9.0203 16.5144 8.74995 16.4C8.42741 16.295 8.08892 16.2476 7.74995 16.26C7.33548 16.2644 6.92155 16.2911 6.50995 16.34C6.03995 16.34 5.50995 16.43 5.07995 16.49C3.97995 16.64 2.87995 16.84 1.78995 16.99C1.74953 16.9937 1.71027 17.0055 1.67456 17.0248C1.63884 17.0441 1.60741 17.0704 1.58217 17.1022C1.55693 17.134 1.5384 17.1705 1.5277 17.2097C1.51701 17.2489 1.51437 17.2898 1.51995 17.33C1.53114 17.3831 1.55144 17.4338 1.57995 17.48C1.43995 18.32 1.27995 19.09 1.18995 19.89C1.12067 20.4672 1.09726 21.049 1.11995 21.63C1.11867 22.0281 1.16909 22.4248 1.26995 22.81C1.36351 23.1553 1.58057 23.4542 1.87995 23.65C2.04004 23.7364 2.21809 23.7844 2.39995 23.79H3.16995L5.51995 23.89C6.35631 24.0232 7.20518 24.0601 8.04995 24C8.51953 23.9355 8.95325 23.7134 9.27995 23.37C9.40417 23.2151 9.49906 23.0389 9.55995 22.85C9.65267 22.5242 9.70638 22.1885 9.71995 21.85C9.78006 21.2553 9.8001 20.6573 9.77995 20.06C9.77995 19.46 9.70995 18.87 9.63995 18.3C9.60981 17.8544 9.51202 17.4161 9.34995 17ZM8.56995 21.7C8.56995 21.87 8.56995 22.07 8.49995 22.26C8.49426 22.3641 8.45962 22.4645 8.39995 22.55C8.16943 22.7473 7.87319 22.8508 7.56995 22.84C6.91873 22.8493 6.26755 22.8192 5.61995 22.75H4.15995H3.15995L2.38995 22.83C2.24937 22.7227 2.15611 22.5649 2.12995 22.39C2.06587 22.1271 2.0224 21.8596 1.99995 21.59C1.95621 21.0609 1.95621 20.5291 1.99995 20C2.05995 19.2 2.17995 18.42 2.28995 17.58C3.08995 17.51 3.89995 17.41 4.70995 17.34C5.33995 17.28 5.95995 17.24 6.57995 17.23C6.96635 17.2096 7.35355 17.2096 7.73995 17.23C7.95278 17.2355 8.16285 17.2795 8.35995 17.36C8.45995 17.36 8.44995 17.55 8.47995 17.68C8.52168 17.9248 8.5484 18.1719 8.55995 18.42C8.55995 18.97 8.62995 19.53 8.62995 20.1C8.63902 20.6373 8.61899 21.1748 8.56995 21.71V21.7Z" fill="black"/>
<path d="M22.79 15C22.6314 16.5182 22.0951 17.9724 21.23 19.23C20.3593 20.4769 19.1766 21.4734 17.8 22.12C16.9153 22.5183 15.9677 22.7586 15 22.83C13.6069 22.9123 12.2096 22.8889 10.82 22.76C10.7413 22.7549 10.6675 22.72 10.6136 22.6624C10.5598 22.6049 10.5299 22.5289 10.53 22.45C10.5313 22.4097 10.5406 22.3701 10.5575 22.3335C10.5745 22.2969 10.5986 22.2641 10.6284 22.237C10.6583 22.21 10.6933 22.1892 10.7314 22.176C10.7695 22.1627 10.8098 22.1573 10.85 22.16C12.2055 22.2059 13.5624 22.1525 14.91 22C15.771 21.8969 16.6071 21.643 17.38 21.25C18.5691 20.6165 19.5774 19.6908 20.31 18.56C21.0392 17.4379 21.4947 16.1603 21.64 14.83C21.815 13.4966 21.6593 12.1406 21.1868 10.8816C20.7142 9.62249 19.9392 8.49898 18.93 7.61002C18.2071 6.99355 17.3619 6.53689 16.45 6.27002C15.0165 5.87083 13.5452 5.62281 12.06 5.53002C11.9925 5.52243 11.9284 5.49586 11.8753 5.45339C11.8222 5.41091 11.7823 5.35427 11.76 5.29002C11.7552 5.34658 11.7552 5.40346 11.76 5.46002L12.22 5.94002L13.87 8.06002C13.9271 8.11704 13.9591 8.19438 13.9591 8.27502C13.9591 8.35566 13.9271 8.433 13.87 8.49002C13.813 8.54704 13.7357 8.57908 13.655 8.57908C13.5744 8.57908 13.4971 8.54704 13.44 8.49002L11.44 6.73002C11.2319 6.55927 11.038 6.372 10.86 6.17002C10.7275 6.01056 10.6441 5.816 10.62 5.61002C10.6043 5.20046 10.7048 4.79481 10.91 4.44002C11.1687 4.02969 11.4777 3.65342 11.83 3.32002L12.88 2.32002C12.9455 2.25589 13.0334 2.21997 13.125 2.21997C13.2166 2.21997 13.3046 2.25589 13.37 2.32002C13.4335 2.38375 13.4692 2.47005 13.4692 2.56002C13.4692 2.64999 13.4335 2.73629 13.37 2.80002L12.51 3.94002C12.3111 4.22329 12.1275 4.51705 11.96 4.82002C11.9359 4.86134 11.9158 4.90487 11.9 4.95002C11.9678 4.89611 12.0539 4.87098 12.14 4.88002C13.68 4.92977 15.211 5.13413 16.71 5.49002C17.7515 5.75997 18.7254 6.24354 19.57 6.91002C20.7373 7.88428 21.643 9.13432 22.2053 10.5469C22.7675 11.9596 22.9685 13.4901 22.79 15Z" fill="black"/>
</g>
<defs>
<clipPath id="clip0_1095_648">
<rect width="24" height="24" fill="white"/>
</clipPath>
</defs>
</svg>
