<svg width="24" height="24" viewBox="0 0 24 24" fill="none" xmlns="http://www.w3.org/2000/svg">
<g clip-path="url(#clip0_1095_660)">
<path d="M9.34995 17C9.23549 16.7296 9.0203 16.5144 8.74995 16.4C8.42741 16.295 8.08892 16.2476 7.74995 16.26C7.33548 16.2644 6.92155 16.2911 6.50995 16.34C6.03995 16.34 5.50995 16.43 5.07995 16.49C3.97995 16.64 2.87995 16.84 1.78995 16.99C1.74953 16.9937 1.71027 17.0055 1.67456 17.0248C1.63884 17.0441 1.60741 17.0704 1.58217 17.1022C1.55693 17.134 1.5384 17.1705 1.5277 17.2097C1.51701 17.2489 1.51437 17.2898 1.51995 17.33C1.53114 17.3831 1.55144 17.4338 1.57995 17.48C1.43995 18.32 1.27995 19.09 1.18995 19.89C1.12067 20.4672 1.09726 21.049 1.11995 21.63C1.11867 22.0281 1.16909 22.4248 1.26995 22.81C1.36351 23.1553 1.58057 23.4542 1.87995 23.65C2.04004 23.7364 2.21809 23.7844 2.39995 23.79H3.16995L5.51995 23.89C6.35631 24.0232 7.20518 24.0601 8.04995 24C8.51953 23.9355 8.95325 23.7134 9.27995 23.37C9.40417 23.2151 9.49906 23.0389 9.55995 22.85C9.65267 22.5242 9.70638 22.1885 9.71995 21.85C9.78006 21.2553 9.8001 20.6573 9.77995 20.06C9.77995 19.46 9.70995 18.87 9.63995 18.3C9.60981 17.8544 9.51202 17.4161 9.34995 17ZM8.56995 21.7C8.56995 21.87 8.56995 22.07 8.49995 22.26C8.49426 22.3641 8.45962 22.4645 8.39995 22.55C8.16943 22.7473 7.87319 22.8508 7.56995 22.84C6.91873 22.8493 6.26755 22.8192 5.61995 22.75H4.15995H3.15995L2.38995 22.83C2.24937 22.7227 2.15611 22.5649 2.12995 22.39C2.06587 22.1271 2.0224 21.8596 1.99995 21.59C1.95621 21.0609 1.95621 20.5291 1.99995 20C2.05995 19.2 2.17995 18.42 2.28995 17.58C3.08995 17.51 3.89995 17.41 4.70995 17.34C5.33995 17.28 5.95995 17.24 6.57995 17.23C6.96635 17.2096 7.35355 17.2096 7.73995 17.23C7.95278 17.2355 8.16285 17.2795 8.35995 17.36C8.45995 17.36 8.44995 17.55 8.47995 17.68C8.52168 17.9248 8.5484 18.1719 8.55995 18.42C8.55995 18.97 8.62995 19.53 8.62995 20.1C8.63902 20.6373 8.61899 21.1748 8.56995 21.71V21.7Z" fill="black"/>
</g>
<defs>
<clipPath id="clip0_1095_660">
<rect width="24" height="24" fill="white"/>
</clipPath>
</defs>
</svg>
