<svg width="24" height="24" viewBox="0 0 24 24" fill="none" xmlns="http://www.w3.org/2000/svg">
<path d="M1.79999 7C2.00255 7.20438 2.25929 7.34663 2.53999 7.41C2.86716 7.48903 3.20364 7.52268 3.53999 7.51C3.98724 7.51849 4.43461 7.5018 4.87999 7.46C5.51999 7.46 6.15999 7.33 6.79999 7.29C7.20068 7.30424 7.60187 7.28752 7.99999 7.24C8.29625 7.19794 8.56673 7.04847 8.75999 6.82C9.02128 6.47968 9.18699 6.07577 9.23999 5.65C9.29358 5.13853 9.31362 4.62409 9.29999 4.11C9.40958 3.08978 9.26174 2.05836 8.86999 1.11C8.66158 0.800654 8.38421 0.543905 8.05971 0.359967C7.73522 0.176029 7.37245 0.0699221 6.99999 0.05L5.76999 0C5.36647 0.0224826 4.96529 0.0759737 4.56999 0.16C3.70999 0.34 2.87999 0.63 1.99999 0.75C1.92263 0.743331 1.84549 0.765014 1.78293 0.811009C1.72038 0.857004 1.67668 0.924173 1.65999 1C1.58157 1.41227 1.53808 1.83042 1.52999 2.25V4.06C1.52999 4.42 1.38999 5.27 1.41999 5.93C1.41608 6.32039 1.55072 6.69952 1.79999 7ZM2.21999 1.44C3.06999 1.35 3.87999 1.12 4.71999 0.99C5.07254 0.919344 5.43053 0.879196 5.78999 0.87L6.78999 0.96C7.03189 0.971053 7.26771 1.03936 7.47806 1.15932C7.68841 1.27927 7.86729 1.44744 7.99999 1.65C8.25629 2.43684 8.31805 3.27407 8.17999 4.09C8.18655 4.55133 8.15981 5.01252 8.09999 5.47C8.09999 5.69 8.01999 6.07 7.87999 6.07H6.75999L3.55999 6.4C3.33375 6.41985 3.10622 6.41985 2.87999 6.4C2.72724 6.39787 2.57952 6.34511 2.45999 6.25C2.32999 6.14 2.32999 5.87 2.31999 5.58V3.99C2.31999 3.4 2.20999 2.8 2.18999 2.21C2.18637 1.943 2.19639 1.67598 2.21999 1.41V1.44Z" fill="black"/>
</svg>
