<svg width="24" height="24" viewBox="0 0 24 24" fill="none" xmlns="http://www.w3.org/2000/svg">
<g clip-path="url(#clip0_1104_578)">
<path d="M23.5799 5.08994C23.4911 4.55317 23.2438 4.05521 22.8699 3.65994C22.3575 3.44128 21.807 3.32574 21.2499 3.31994C17.2888 3.10503 13.3183 3.12841 9.35995 3.38994C5.33995 3.64994 1.69995 4.17994 0.549949 4.99994C0.357109 5.17852 0.233215 5.41923 0.199949 5.67994C0.0336457 6.97962 -0.0332151 8.29009 -5.14025e-05 9.59994C-0.015925 12.9698 0.150987 16.3381 0.499949 19.6899C0.50635 19.7307 0.520841 19.7699 0.542571 19.805C0.564301 19.8401 0.592832 19.8705 0.626488 19.8945C0.660144 19.9184 0.698245 19.9354 0.738555 19.9444C0.778864 19.9534 0.820569 19.9543 0.861218 19.947C0.901867 19.9396 0.940642 19.9243 0.975264 19.9017C1.00989 19.8792 1.03966 19.85 1.06283 19.8158C1.086 19.7816 1.1021 19.7431 1.1102 19.7026C1.11829 19.6621 1.1182 19.6204 1.10995 19.5799C0.959949 18.6299 0.819949 15.5799 0.799949 12.4699C0.755316 10.4312 0.822082 8.39145 0.999949 6.35994C2.63995 7.45994 5.87995 9.60994 8.52995 11.0499L9.98995 11.7699C10.7744 12.1995 11.6327 12.4777 12.5199 12.5899C12.9235 12.525 13.3107 12.3824 13.6599 12.1699C13.9319 12.0246 14.1956 11.8644 14.4499 11.6899L15.8899 10.6899C16.2299 10.4399 16.5599 10.1999 16.8899 9.91994C18.8326 8.43263 20.6489 6.78701 22.3199 4.99994C22.3199 5.10994 22.3899 5.23994 22.4199 5.37994C22.7115 6.94608 22.8488 8.53701 22.8299 10.1299C22.8816 12.8581 22.7613 15.5869 22.4699 18.2999C22.4699 18.5199 22.3999 18.7499 22.3699 18.8799H21.6799C19.8899 19.0599 16.0799 19.3399 12.1999 19.5799C7.80995 19.8499 3.33995 20.0799 1.63995 20.1199C1.59399 20.1199 1.54847 20.129 1.50601 20.1466C1.46355 20.1642 1.42496 20.19 1.39246 20.2225C1.35996 20.255 1.33418 20.2935 1.31659 20.336C1.299 20.3785 1.28995 20.424 1.28995 20.4699C1.29255 20.5637 1.33163 20.6527 1.39886 20.7181C1.46609 20.7834 1.55618 20.82 1.64995 20.8199C3.91995 20.8199 11.0999 20.5299 16.4799 20.2399C19.0399 20.1099 21.1899 19.9699 22.2099 19.8699C22.505 19.8536 22.7955 19.7894 23.0699 19.6799C23.1807 19.6089 23.265 19.5035 23.3099 19.3799C23.4194 19.0762 23.4933 18.7607 23.5299 18.4399C23.8629 15.6727 24.0199 12.8871 23.9999 10.0999C24.0221 8.42029 23.8815 6.74245 23.5799 5.08994ZM17.2499 8.36994C16.0199 9.28994 14.7699 10.1499 13.8099 10.7299C13.3998 11.0319 12.9393 11.2587 12.4499 11.3999C12.0061 11.3434 11.576 11.208 11.1799 10.9999C10.2799 10.6299 9.11995 10.0599 7.88995 9.40994C5.33995 8.09994 2.51995 6.48994 1.12995 5.67994C2.30995 4.98994 5.69995 4.67994 9.41995 4.47994C13.3303 4.26306 17.2496 4.26306 21.1599 4.47994H21.7799C20.3719 5.89084 18.8575 7.19134 17.2499 8.36994Z" fill="black"/>
<path d="M17.6799 14.4099C18.0199 14.7399 18.3699 15.0599 18.6799 15.3599C19.6799 16.2899 20.6799 17.0999 21.1399 17.5499C21.207 17.6147 21.2966 17.6509 21.3899 17.6509C21.4832 17.6509 21.5728 17.6147 21.6399 17.5499C21.6732 17.5174 21.6996 17.4785 21.7176 17.4355C21.7357 17.3926 21.745 17.3465 21.745 17.2999C21.745 17.2534 21.7357 17.2073 21.7176 17.1644C21.6996 17.1214 21.6732 17.0825 21.6399 17.0499C21.2099 16.5399 20.4099 15.5899 19.4599 14.5599C19.1399 14.2199 18.8066 13.8866 18.4599 13.5599C18.1199 13.2299 17.7699 12.8999 17.4599 12.5599C17.1499 12.2199 16.6499 11.8799 16.2699 11.5599C15.5799 11.0899 15.0699 11.5599 15.5599 12.1499C15.8999 12.5199 16.2699 12.9299 16.6799 13.3499C17.0899 13.7699 17.3399 14.0799 17.6799 14.4099Z" fill="black"/>
<path d="M4.58986 15.35C3.55112 16.3788 2.56964 17.4637 1.64986 18.6C1.61965 18.6348 1.5966 18.6753 1.58201 18.719C1.56742 18.7627 1.56159 18.8088 1.56484 18.8548C1.56809 18.9008 1.58036 18.9456 1.60095 18.9869C1.62155 19.0281 1.65006 19.0648 1.68486 19.095C1.71966 19.1253 1.76007 19.1483 1.80378 19.1629C1.84749 19.1775 1.89364 19.1833 1.93961 19.1801C1.98557 19.1768 2.03045 19.1645 2.07167 19.144C2.11289 19.1234 2.14965 19.0948 2.17986 19.06C2.76986 18.46 3.86986 17.55 5.06986 16.48C5.69986 15.91 6.35986 15.31 6.96986 14.69C7.57986 14.07 8.38986 13.17 8.96986 12.48C9.54986 11.79 8.82986 11.48 8.14986 12.09C7.62986 12.55 7.06986 13.03 6.47986 13.56C5.88986 14.09 5.19986 14.75 4.58986 15.35Z" fill="black"/>
</g>
<defs>
<clipPath id="clip0_1104_578">
<rect width="24" height="24" fill="white"/>
</clipPath>
</defs>
</svg>
