<svg width="24" height="24" viewBox="0 0 24 24" fill="none" xmlns="http://www.w3.org/2000/svg">
<g clip-path="url(#clip0_1094_601)">
<mask id="mask0_1094_601" style="mask-type:luminance" maskUnits="userSpaceOnUse" x="0" y="0" width="24" height="24">
<path d="M24 0H0V24H24V0Z" fill="white"/>
</mask>
<g mask="url(#mask0_1094_601)">
<path fill-rule="evenodd" clip-rule="evenodd" d="M13.08 7.21014C13.0882 7.27408 13.1154 7.33407 13.1583 7.38225C13.2011 7.43043 13.2575 7.46455 13.32 7.48014C13.32 7.48014 13.24 7.57014 13.24 7.64014C13.2284 7.72741 13.2511 7.81578 13.3033 7.88665C13.3555 7.95752 13.4332 8.00538 13.52 8.02014C13.8677 8.18451 14.2291 8.31834 14.6 8.42014C14.7602 8.4603 14.9248 8.48046 15.09 8.48014C15.2532 8.49039 15.4168 8.49039 15.58 8.48014C15.9211 8.4267 16.2561 8.33961 16.58 8.22014C16.6142 8.25854 16.6557 8.2898 16.702 8.31211C16.7484 8.33442 16.7986 8.34735 16.85 8.35014C16.8994 8.35423 16.9491 8.34834 16.9962 8.33283C17.0433 8.31732 17.0868 8.2925 17.1241 8.25985C17.1614 8.22721 17.1918 8.18739 17.2134 8.14278C17.2351 8.09816 17.2475 8.04966 17.25 8.00014L17.38 6.40014C17.3836 6.35689 17.3836 6.3134 17.38 6.27014C17.54 6.27014 17.72 6.34014 17.91 6.38014C18.2999 6.4726 18.6993 6.51958 19.1 6.52014C19.4152 6.50485 19.7154 6.38122 19.95 6.17014C20.0541 6.06558 20.1269 5.93394 20.16 5.79014C20.1896 5.48419 20.1896 5.17609 20.16 4.87014C20.1738 4.39164 20.12 3.91357 20 3.45014C19.9631 3.27365 19.8862 3.10797 19.7752 2.96582C19.6643 2.82367 19.5222 2.70884 19.36 2.63014C19.1416 2.53927 18.9065 2.49499 18.67 2.50014C18.3345 2.51278 18.0003 2.54954 17.67 2.61014H17.31C17.19 2.61014 17.21 2.31014 17.2 2.28014C17.13 1.87014 17.2 1.28014 17.15 0.810146C17 -0.0098545 17.04 -0.189854 14.67 0.0601455C14.1981 0.10235 13.7492 0.283282 13.38 0.580146C13.2314 0.707831 13.1207 0.873866 13.06 1.06014C12.9812 1.31719 12.9309 1.58211 12.91 1.85014C12.8448 2.28413 12.8047 2.72153 12.79 3.16014V4.45014L12.84 5.58014L13.08 7.21014ZM13.84 5.61014L14 4.54014L14.22 2.00014V1.45014C14.3982 1.25665 14.6325 1.12377 14.89 1.07014C15.3983 0.981348 15.9158 0.957825 16.43 1.00014C16.43 1.49014 16.28 2.00014 16.31 2.46014V3.15014C16.3199 3.24641 16.3546 3.33846 16.4107 3.41733C16.4668 3.49619 16.5423 3.55918 16.63 3.60014C16.8261 3.68987 17.0355 3.74728 17.25 3.77014C17.6396 3.79519 18.0304 3.79519 18.42 3.77014C19.19 3.77014 18.83 3.89014 18.83 4.84014C18.83 4.90014 18.92 5.16014 18.93 5.34014C18.7884 5.37133 18.6416 5.37133 18.5 5.34014C18.15 5.34014 17.76 5.26014 17.43 5.26014C17.1824 5.24336 16.934 5.27739 16.7 5.36014C16.6079 5.40218 16.5297 5.46972 16.4748 5.55479C16.4198 5.63986 16.3904 5.73888 16.39 5.84014V6.35014V7.35014C16.09 7.35014 15.79 7.26014 15.48 7.22014C15.2436 7.20526 15.0064 7.20526 14.77 7.22014C14.37 7.22014 14.01 7.33014 13.62 7.37014C13.6604 7.32291 13.6818 7.2623 13.68 7.20014L13.84 5.61014Z" fill="black"/>
</g>
</g>
<defs>
<clipPath id="clip0_1094_601">
<rect width="24" height="24" fill="white"/>
</clipPath>
</defs>
</svg>
