<svg width="24" height="24" viewBox="0 0 24 24" fill="none" xmlns="http://www.w3.org/2000/svg">
<g clip-path="url(#clip0_1094_579)">
<mask id="mask0_1094_579" style="mask-type:luminance" maskUnits="userSpaceOnUse" x="0" y="0" width="24" height="24">
<path d="M24 0H0V24H24V0Z" fill="white"/>
</mask>
<g mask="url(#mask0_1094_579)">
<path fill-rule="evenodd" clip-rule="evenodd" d="M3.57994 8.62998C3.8861 8.65499 4.19378 8.65499 4.49994 8.62998C4.95994 8.62998 5.39994 8.49998 5.84994 8.46998C5.93691 8.47244 6.02209 8.44499 6.09125 8.39221C6.16041 8.33943 6.20937 8.26451 6.22994 8.17998C6.22994 8.17998 6.22994 8.22998 6.31994 8.22998C6.36935 8.23696 6.41965 8.23388 6.46784 8.22092C6.51602 8.20796 6.56109 8.18538 6.60032 8.15456C6.63956 8.12373 6.67215 8.08528 6.69615 8.04153C6.72014 7.99778 6.73504 7.94963 6.73994 7.89998C6.86713 7.18543 6.95393 6.46429 6.99994 5.73998C7.05013 5.23789 7.05013 4.73206 6.99994 4.22998C6.96796 3.86971 6.88374 3.516 6.74994 3.17998C6.62818 2.9042 6.44318 2.66097 6.20994 2.46998C6.06341 2.36384 5.89662 2.28895 5.71994 2.24998C5.33994 2.15998 4.71994 2.13998 4.55994 2.10998C3.96341 1.97377 3.34853 1.93661 2.73994 1.99998C2.54143 2.02352 2.35001 2.08814 2.17784 2.18972C2.00567 2.2913 1.85654 2.42761 1.73994 2.58998C1.62917 2.78947 1.5515 3.00561 1.50994 3.22998C1.48627 3.60627 1.48627 3.98368 1.50994 4.35998L1.55994 7.99998C1.55994 7.99998 1.25994 8.32998 3.57994 8.62998ZM2.57994 4.39998C2.57994 4.19998 2.57994 3.92998 2.64994 3.66998C2.66132 3.52059 2.70941 3.37632 2.78994 3.24998C2.78994 3.24998 2.85994 3.24998 2.89994 3.24998C3.02973 3.23948 3.16015 3.23948 3.28994 3.24998C3.68994 3.24998 4.09994 3.37998 4.34994 3.41998C4.99994 3.50998 5.54994 2.81998 5.92994 4.41998C6.02046 4.85442 6.07067 5.2963 6.07994 5.73998C6.07994 6.41998 6.07994 7.09998 6.00994 7.73998H5.92994C5.46994 7.59998 4.99994 7.48998 4.56994 7.41998L3.99994 7.36998C3.81357 7.35498 3.62631 7.35498 3.43994 7.36998C3.02994 7.36998 2.65994 7.47998 2.25994 7.49998C2.25994 7.05998 2.25994 6.61998 2.34994 6.16998C2.43994 5.71998 2.46994 4.99998 2.55994 4.39998H2.57994Z" fill="black"/>
</g>
</g>
<defs>
<clipPath id="clip0_1094_579">
<rect width="24" height="24" fill="white"/>
</clipPath>
</defs>
</svg>
