<svg width="24" height="24" viewBox="0 0 24 24" fill="none" xmlns="http://www.w3.org/2000/svg">
<g clip-path="url(#clip0_1094_590)">
<mask id="mask0_1094_590" style="mask-type:luminance" maskUnits="userSpaceOnUse" x="0" y="0" width="24" height="24">
<path d="M24 0H0V24H24V0Z" fill="white"/>
</mask>
<g mask="url(#mask0_1094_590)">
<path fill-rule="evenodd" clip-rule="evenodd" d="M22.4199 13.0001C22.4199 12.5501 22.4199 12.2201 22.3699 12.0601C22.3591 11.8909 22.2891 11.731 22.172 11.6084C22.0549 11.4859 21.8984 11.4085 21.7299 11.3901C21.0899 11.3901 20.3299 11.3301 19.7299 11.3901C19.3454 11.4098 18.9729 11.5305 18.6499 11.74C18.5764 11.7908 18.5156 11.8577 18.4722 11.9358C18.4289 12.0138 18.4041 12.1009 18.3999 12.19V14.0901C17.5874 14.2302 16.7591 14.2538 15.9399 14.16L15.6999 14.11C15.6292 13.0179 15.6292 11.9222 15.6999 10.8301C15.7077 10.6262 15.6772 10.4227 15.6099 10.23C15.5625 10.1416 15.4917 10.0678 15.4053 10.0167C15.319 9.96559 15.2203 9.93908 15.1199 9.94005C14.8535 9.92428 14.5863 9.92428 14.3199 9.94005H6.5799C6.52786 9.93736 6.4758 9.94513 6.42682 9.9629C6.37783 9.98067 6.3329 10.0081 6.29468 10.0435C6.25646 10.0789 6.22572 10.1216 6.20429 10.1691C6.18286 10.2166 6.17117 10.268 6.1699 10.32V11.5401V13.0301C5.6999 13.0301 4.8499 13.1401 4.0299 13.1701C3.49054 13.2073 2.94926 13.2073 2.4099 13.1701C2.35955 13.1651 2.30873 13.1706 2.26057 13.186C2.21241 13.2015 2.16794 13.2267 2.1299 13.2601C2.09039 13.2919 2.05766 13.3312 2.03361 13.3759C2.00957 13.4205 1.9947 13.4696 1.9899 13.5201C1.9199 14.3701 1.8799 15.36 1.8499 16.31C1.7799 18.31 1.7899 20.1101 1.7899 20.4901C1.7899 20.6301 1.7199 21.7301 1.7899 22.38C1.78566 22.5919 1.82303 22.8026 1.8999 23.0001C1.99131 23.1073 2.10823 23.1898 2.2399 23.2401C2.67774 23.3652 3.12638 23.4489 3.5799 23.4901C7.70458 23.9275 11.8532 24.0979 15.9999 24.0001C17.8523 24.0233 19.6982 23.7774 21.4799 23.2701C21.666 23.2046 21.8347 23.0976 21.9733 22.9573C22.1119 22.8169 22.2167 22.6469 22.2799 22.46C22.6399 21.05 22.5199 15.3601 22.4199 13.0001ZM20.1899 22.3C18.1545 22.6103 16.0988 22.7674 14.0399 22.7701C10.5241 22.8702 7.00543 22.7767 3.4999 22.4901C3.1799 22.4901 2.8799 22.3201 2.7099 22.3V20.4001C2.7099 20.0301 2.6499 18.1901 2.7099 16.2501C2.7099 15.4401 2.7099 14.6101 2.7699 13.8701H4.1099C7.5799 13.6701 6.9799 14.18 6.9799 10.73C9.5399 10.78 12.7799 10.8401 14.2899 10.8901H14.7199V11.0001C14.7199 11.5601 14.6099 12.4201 14.6099 13.2801C14.6086 13.7117 14.6387 14.1428 14.6999 14.57C14.7331 14.7019 14.802 14.8221 14.899 14.9173C14.9961 15.0126 15.1175 15.0793 15.2499 15.11C16.0017 15.2731 16.7715 15.337 17.5399 15.3001C18.1275 15.3215 18.7114 15.1978 19.2399 14.94C19.3304 14.8707 19.4037 14.7814 19.454 14.679C19.5043 14.5767 19.5303 14.4641 19.5299 14.3501L19.5799 12.6001C19.7562 12.584 19.9336 12.584 20.1099 12.6001H21.2199V13.0501C21.5399 24.0001 21.1299 22.0901 20.1899 22.2901V22.3Z" fill="black"/>
<path fill-rule="evenodd" clip-rule="evenodd" d="M13.08 7.21014C13.0882 7.27408 13.1154 7.33407 13.1583 7.38225C13.2011 7.43043 13.2575 7.46455 13.32 7.48014C13.32 7.48014 13.24 7.57014 13.24 7.64014C13.2284 7.72741 13.2511 7.81578 13.3033 7.88665C13.3555 7.95752 13.4332 8.00538 13.52 8.02014C13.8677 8.18451 14.2291 8.31834 14.6 8.42014C14.7602 8.4603 14.9248 8.48046 15.09 8.48014C15.2532 8.49039 15.4168 8.49039 15.58 8.48014C15.9211 8.4267 16.2561 8.33961 16.58 8.22014C16.6142 8.25854 16.6557 8.2898 16.702 8.31211C16.7484 8.33442 16.7986 8.34735 16.85 8.35014C16.8994 8.35423 16.9491 8.34834 16.9962 8.33283C17.0433 8.31732 17.0868 8.2925 17.1241 8.25985C17.1614 8.22721 17.1918 8.18739 17.2134 8.14278C17.2351 8.09816 17.2475 8.04966 17.25 8.00014L17.38 6.40014C17.3836 6.35689 17.3836 6.3134 17.38 6.27014C17.54 6.27014 17.72 6.34014 17.91 6.38014C18.2999 6.4726 18.6993 6.51958 19.1 6.52014C19.4152 6.50485 19.7154 6.38122 19.95 6.17014C20.0541 6.06558 20.1269 5.93394 20.16 5.79014C20.1896 5.48419 20.1896 5.17609 20.16 4.87014C20.1738 4.39164 20.12 3.91357 20 3.45014C19.9631 3.27365 19.8862 3.10797 19.7752 2.96582C19.6643 2.82367 19.5222 2.70884 19.36 2.63014C19.1416 2.53927 18.9065 2.49499 18.67 2.50014C18.3345 2.51278 18.0003 2.54954 17.67 2.61014H17.31C17.19 2.61014 17.21 2.31014 17.2 2.28014C17.13 1.87014 17.2 1.28014 17.15 0.810146C17 -0.0098545 17.04 -0.189854 14.67 0.0601455C14.1981 0.10235 13.7492 0.283282 13.38 0.580146C13.2314 0.707831 13.1207 0.873866 13.06 1.06014C12.9812 1.31719 12.9309 1.58211 12.91 1.85014C12.8448 2.28413 12.8047 2.72153 12.79 3.16014V4.45014L12.84 5.58014L13.08 7.21014ZM13.84 5.61014L14 4.54014L14.22 2.00014V1.45014C14.3982 1.25665 14.6325 1.12377 14.89 1.07014C15.3983 0.981348 15.9158 0.957825 16.43 1.00014C16.43 1.49014 16.28 2.00014 16.31 2.46014V3.15014C16.3199 3.24641 16.3546 3.33846 16.4107 3.41733C16.4668 3.49619 16.5423 3.55918 16.63 3.60014C16.8261 3.68987 17.0355 3.74728 17.25 3.77014C17.6396 3.79519 18.0304 3.79519 18.42 3.77014C19.19 3.77014 18.83 3.89014 18.83 4.84014C18.83 4.90014 18.92 5.16014 18.93 5.34014C18.7884 5.37133 18.6416 5.37133 18.5 5.34014C18.15 5.34014 17.76 5.26014 17.43 5.26014C17.1824 5.24336 16.934 5.27739 16.7 5.36014C16.6079 5.40218 16.5297 5.46972 16.4748 5.55479C16.4198 5.63986 16.3904 5.73888 16.39 5.84014V6.35014V7.35014C16.09 7.35014 15.79 7.26014 15.48 7.22014C15.2436 7.20526 15.0064 7.20526 14.77 7.22014C14.37 7.22014 14.01 7.33014 13.62 7.37014C13.6604 7.32291 13.6818 7.2623 13.68 7.20014L13.84 5.61014Z" fill="black"/>
<path fill-rule="evenodd" clip-rule="evenodd" d="M6.99999 19.3002C6.74999 19.1302 6.45999 18.9802 6.18999 18.8002L5.99999 18.6202C6.22999 18.4602 6.48999 18.3202 6.67999 18.2002L9.67999 16.4702C9.7207 16.4493 9.75676 16.4203 9.78599 16.385C9.81523 16.3498 9.83704 16.309 9.85011 16.2651C9.86319 16.2212 9.86726 16.1751 9.86208 16.1296C9.85691 16.0841 9.84259 16.0401 9.81999 16.0002C9.78127 15.9223 9.7133 15.8627 9.63088 15.8346C9.54847 15.8065 9.45828 15.8121 9.37999 15.8502C8.60999 16.1302 7.82999 16.3502 7.06999 16.6402C6.72766 16.7694 6.39368 16.9197 6.06999 17.0902C5.79295 17.2323 5.52569 17.3926 5.26999 17.5702C5.05558 17.7196 4.86936 17.9058 4.71999 18.1202C4.62113 18.2595 4.5783 18.4309 4.59999 18.6002C4.68862 18.8462 4.81699 19.0759 4.97999 19.2802C5.12833 19.4294 5.29659 19.5573 5.47999 19.6602C5.80999 19.8502 6.18999 19.9702 6.47999 20.1302L7.74999 20.8202C7.84414 20.8574 7.94919 20.8556 8.04202 20.8153C8.13485 20.7749 8.20786 20.6994 8.24499 20.6052C8.28212 20.5111 8.28033 20.4061 8.24001 20.3132C8.19969 20.2204 8.12414 20.1474 8.02999 20.1102L6.99999 19.3002Z" fill="black"/>
<path fill-rule="evenodd" clip-rule="evenodd" d="M13.0801 14.7702C13.1233 14.6919 13.1339 14.5996 13.1096 14.5135C13.0852 14.4274 13.0279 14.3544 12.9501 14.3102C12.9121 14.289 12.8702 14.2756 12.8269 14.2707C12.7837 14.2658 12.7399 14.2695 12.698 14.2815C12.6562 14.2936 12.6172 14.3139 12.5832 14.3411C12.5492 14.3683 12.521 14.402 12.5001 14.4402L11.2701 16.6502C11.0001 17.2402 10.6701 17.8102 10.4001 18.4102C10.0151 19.3345 9.68123 20.2793 9.40006 21.2402C9.38102 21.2868 9.37135 21.3368 9.37159 21.3871C9.37184 21.4375 9.38201 21.4873 9.40151 21.5337C9.42101 21.5801 9.44946 21.6223 9.48524 21.6577C9.52103 21.6931 9.56344 21.7212 9.61006 21.7402C9.65668 21.7593 9.70659 21.7689 9.75695 21.7687C9.80731 21.7684 9.85712 21.7583 9.90355 21.7388C9.94998 21.7193 9.99211 21.6908 10.0276 21.655C10.063 21.6193 10.0911 21.5768 10.1101 21.5302C10.6201 20.5302 11.2701 19.5302 11.8001 18.5302C12.0301 18.0802 12.2101 17.6102 12.4101 17.1402C12.6101 16.6702 12.7001 16.0102 12.8801 15.4402C12.9288 15.2119 12.9957 14.9879 13.0801 14.7702Z" fill="black"/>
<path fill-rule="evenodd" clip-rule="evenodd" d="M16.4799 18.0501L14.4199 16.7901C14.3832 16.7661 14.3422 16.7496 14.2991 16.7416C14.256 16.7337 14.2118 16.7343 14.1689 16.7437C14.1261 16.753 14.0856 16.7707 14.0497 16.7959C14.0138 16.821 13.9833 16.853 13.9599 16.8901C13.914 16.9649 13.8988 17.0545 13.9174 17.1402C13.9361 17.2259 13.9871 17.3011 14.0599 17.3501L15.6999 18.9401L15.2799 19.2101C14.7199 19.5701 14.1299 19.9001 13.5699 20.2801C13.3171 20.4534 13.0765 20.6438 12.8499 20.8501C12.8105 20.881 12.7776 20.9193 12.753 20.9629C12.7284 21.0065 12.7126 21.0545 12.7066 21.1041C12.7006 21.1538 12.7044 21.2042 12.7178 21.2524C12.7312 21.3006 12.754 21.3457 12.7849 21.3851C12.8158 21.4245 12.8541 21.4574 12.8977 21.482C12.9413 21.5066 12.9893 21.5224 13.0389 21.5284C13.0886 21.5344 13.139 21.5306 13.1872 21.5172C13.2354 21.5038 13.2805 21.481 13.3199 21.4501C13.5464 21.3024 13.7838 21.1721 14.0299 21.0601C14.6299 20.7801 15.2799 20.5601 15.8799 20.3001C16.2041 20.1497 16.5152 19.9724 16.8099 19.7701C16.9947 19.6289 17.1451 19.4477 17.2499 19.2401C17.3113 19.1021 17.3249 18.9475 17.2887 18.8008C17.2525 18.6542 17.1685 18.5237 17.0499 18.4301C16.868 18.2918 16.6776 18.1648 16.4799 18.0501Z" fill="black"/>
<path fill-rule="evenodd" clip-rule="evenodd" d="M3.57994 8.63022C3.8861 8.65523 4.19378 8.65523 4.49994 8.63022C4.95994 8.63022 5.39994 8.50022 5.84994 8.47022C5.93691 8.47268 6.02209 8.44523 6.09125 8.39245C6.16041 8.33967 6.20937 8.26475 6.22994 8.18022C6.22994 8.18022 6.22994 8.23022 6.31994 8.23022C6.36935 8.2372 6.41965 8.23412 6.46784 8.22116C6.51602 8.2082 6.56109 8.18562 6.60032 8.1548C6.63956 8.12397 6.67215 8.08552 6.69615 8.04177C6.72014 7.99802 6.73504 7.94987 6.73994 7.90022C6.86713 7.18567 6.95393 6.46453 6.99994 5.74022C7.05013 5.23813 7.05013 4.7323 6.99994 4.23022C6.96796 3.86995 6.88374 3.51624 6.74994 3.18022C6.62818 2.90444 6.44318 2.66121 6.20994 2.47022C6.06341 2.36408 5.89662 2.28919 5.71994 2.25022C5.33994 2.16022 4.71994 2.14022 4.55994 2.11022C3.96341 1.97401 3.34853 1.93685 2.73994 2.00022C2.54143 2.02376 2.35001 2.08838 2.17784 2.18996C2.00567 2.29154 1.85654 2.42785 1.73994 2.59022C1.62917 2.78971 1.5515 3.00585 1.50994 3.23022C1.48627 3.60651 1.48627 3.98392 1.50994 4.36022L1.55994 8.00022C1.55994 8.00022 1.25994 8.33022 3.57994 8.63022ZM2.57994 4.40022C2.57994 4.20022 2.57994 3.93022 2.64994 3.67022C2.66132 3.52083 2.70941 3.37656 2.78994 3.25022C2.78994 3.25022 2.85994 3.25022 2.89994 3.25022C3.02973 3.23972 3.16015 3.23972 3.28994 3.25022C3.68994 3.25022 4.09994 3.38022 4.34994 3.42022C4.99994 3.51022 5.54994 2.82022 5.92994 4.42022C6.02046 4.85466 6.07067 5.29654 6.07994 5.74022C6.07994 6.42022 6.07994 7.10022 6.00994 7.74022H5.92994C5.46994 7.60022 4.99994 7.49022 4.56994 7.42022L3.99994 7.37022C3.81357 7.35522 3.62631 7.35522 3.43994 7.37022C3.02994 7.37022 2.65994 7.48022 2.25994 7.50022C2.25994 7.06022 2.25994 6.62022 2.34994 6.17022C2.43994 5.72022 2.46994 5.00022 2.55994 4.40022H2.57994Z" fill="black"/>
</g>
</g>
<defs>
<clipPath id="clip0_1094_590">
<rect width="24" height="24" fill="white"/>
</clipPath>
</defs>
</svg>
