<svg width="24" height="24" viewBox="0 0 24 24" fill="none" xmlns="http://www.w3.org/2000/svg">
<g clip-path="url(#clip0_1094_568)">
<mask id="mask0_1094_568" style="mask-type:luminance" maskUnits="userSpaceOnUse" x="0" y="0" width="24" height="24">
<path d="M24 0H0V24H24V0Z" fill="white"/>
</mask>
<g mask="url(#mask0_1094_568)">
<path fill-rule="evenodd" clip-rule="evenodd" d="M22.4199 13.0001C22.4199 12.5501 22.4199 12.2201 22.3699 12.0601C22.3591 11.8909 22.2891 11.731 22.172 11.6084C22.0549 11.4859 21.8984 11.4085 21.7299 11.3901C21.0899 11.3901 20.3299 11.3301 19.7299 11.3901C19.3454 11.4098 18.9729 11.5305 18.6499 11.74C18.5764 11.7908 18.5156 11.8577 18.4722 11.9358C18.4289 12.0138 18.4041 12.1009 18.3999 12.19V14.0901C17.5874 14.2302 16.7591 14.2538 15.9399 14.16L15.6999 14.11C15.6292 13.0179 15.6292 11.9222 15.6999 10.8301C15.7077 10.6262 15.6772 10.4227 15.6099 10.23C15.5625 10.1416 15.4917 10.0678 15.4053 10.0167C15.319 9.96559 15.2203 9.93908 15.1199 9.94005C14.8535 9.92428 14.5863 9.92428 14.3199 9.94005H6.5799C6.52786 9.93736 6.4758 9.94513 6.42682 9.9629C6.37783 9.98067 6.3329 10.0081 6.29468 10.0435C6.25646 10.0789 6.22572 10.1216 6.20429 10.1691C6.18286 10.2166 6.17117 10.268 6.1699 10.32V11.5401V13.0301C5.6999 13.0301 4.8499 13.1401 4.0299 13.1701C3.49054 13.2073 2.94926 13.2073 2.4099 13.1701C2.35955 13.1651 2.30873 13.1706 2.26057 13.186C2.21241 13.2015 2.16794 13.2267 2.1299 13.2601C2.09039 13.2919 2.05766 13.3312 2.03361 13.3759C2.00957 13.4205 1.9947 13.4696 1.9899 13.5201C1.9199 14.3701 1.8799 15.36 1.8499 16.31C1.7799 18.31 1.7899 20.1101 1.7899 20.4901C1.7899 20.6301 1.7199 21.7301 1.7899 22.38C1.78566 22.5919 1.82303 22.8026 1.8999 23.0001C1.99131 23.1073 2.10823 23.1898 2.2399 23.2401C2.67774 23.3652 3.12638 23.4489 3.5799 23.4901C7.70458 23.9275 11.8532 24.0979 15.9999 24.0001C17.8523 24.0233 19.6982 23.7774 21.4799 23.2701C21.666 23.2046 21.8347 23.0976 21.9733 22.9573C22.1119 22.8169 22.2167 22.6469 22.2799 22.46C22.6399 21.05 22.5199 15.3601 22.4199 13.0001ZM20.1899 22.3C18.1545 22.6103 16.0988 22.7674 14.0399 22.7701C10.5241 22.8702 7.00543 22.7767 3.4999 22.4901C3.1799 22.4901 2.8799 22.3201 2.7099 22.3V20.4001C2.7099 20.0301 2.6499 18.1901 2.7099 16.2501C2.7099 15.4401 2.7099 14.6101 2.7699 13.8701H4.1099C7.5799 13.6701 6.9799 14.18 6.9799 10.73C9.5399 10.78 12.7799 10.8401 14.2899 10.8901H14.7199V11.0001C14.7199 11.5601 14.6099 12.4201 14.6099 13.2801C14.6086 13.7117 14.6387 14.1428 14.6999 14.57C14.7331 14.7019 14.802 14.8221 14.899 14.9173C14.9961 15.0126 15.1175 15.0793 15.2499 15.11C16.0017 15.2731 16.7715 15.337 17.5399 15.3001C18.1275 15.3215 18.7114 15.1978 19.2399 14.94C19.3304 14.8707 19.4037 14.7814 19.454 14.679C19.5043 14.5767 19.5303 14.4641 19.5299 14.3501L19.5799 12.6001C19.7562 12.584 19.9336 12.584 20.1099 12.6001H21.2199V13.0501C21.5399 24.0001 21.1299 22.0901 20.1899 22.2901V22.3Z" fill="black"/>
<path fill-rule="evenodd" clip-rule="evenodd" d="M6.99999 19.2999C6.74999 19.1299 6.45999 18.9799 6.18999 18.7999L5.99999 18.6199C6.22999 18.4599 6.48999 18.3199 6.67999 18.1999L9.67999 16.4699C9.7207 16.449 9.75676 16.42 9.78599 16.3847C9.81523 16.3495 9.83704 16.3087 9.85011 16.2648C9.86319 16.2209 9.86726 16.1748 9.86208 16.1293C9.85691 16.0838 9.84259 16.0398 9.81999 15.9999C9.78127 15.922 9.7133 15.8624 9.63088 15.8343C9.54847 15.8062 9.45828 15.8118 9.37999 15.8499C8.60999 16.1299 7.82999 16.3499 7.06999 16.6399C6.72766 16.7691 6.39368 16.9194 6.06999 17.0899C5.79295 17.232 5.52569 17.3923 5.26999 17.5699C5.05558 17.7193 4.86936 17.9055 4.71999 18.1199C4.62113 18.2592 4.5783 18.4306 4.59999 18.5999C4.68862 18.8459 4.81699 19.0756 4.97999 19.2799C5.12833 19.4291 5.29659 19.557 5.47999 19.6599C5.80999 19.8499 6.18999 19.9699 6.47999 20.1299L7.74999 20.8199C7.84414 20.8571 7.94919 20.8553 8.04202 20.815C8.13485 20.7746 8.20786 20.6991 8.24499 20.6049C8.28212 20.5108 8.28033 20.4058 8.24001 20.3129C8.19969 20.2201 8.12414 20.1471 8.02999 20.1099L6.99999 19.2999Z" fill="black"/>
<path fill-rule="evenodd" clip-rule="evenodd" d="M13.0798 14.7699C13.123 14.6916 13.1336 14.5993 13.1093 14.5132C13.0849 14.4271 13.0276 14.3541 12.9498 14.3099C12.9118 14.2887 12.8699 14.2753 12.8266 14.2704C12.7834 14.2655 12.7396 14.2692 12.6977 14.2812C12.6559 14.2933 12.6169 14.3136 12.5829 14.3408C12.5489 14.368 12.5207 14.4017 12.4998 14.4399L11.2698 16.6499C10.9998 17.2399 10.6698 17.8099 10.3998 18.4099C10.0148 19.3342 9.68098 20.279 9.39981 21.2399C9.38077 21.2865 9.3711 21.3365 9.37134 21.3868C9.37159 21.4372 9.38176 21.487 9.40126 21.5334C9.42076 21.5798 9.44921 21.622 9.48499 21.6574C9.52078 21.6928 9.56319 21.7209 9.60981 21.7399C9.65643 21.759 9.70634 21.7686 9.7567 21.7684C9.80706 21.7681 9.85687 21.758 9.9033 21.7385C9.94973 21.719 9.99186 21.6905 10.0273 21.6547C10.0627 21.619 10.0908 21.5765 10.1098 21.5299C10.6198 20.5299 11.2698 19.5299 11.7998 18.5299C12.0298 18.0799 12.2098 17.6099 12.4098 17.1399C12.6098 16.6699 12.6998 16.0099 12.8798 15.4399C12.9285 15.2116 12.9954 14.9876 13.0798 14.7699Z" fill="black"/>
<path fill-rule="evenodd" clip-rule="evenodd" d="M16.4799 18.0501L14.4199 16.7901C14.3832 16.7661 14.3422 16.7496 14.2991 16.7416C14.256 16.7337 14.2118 16.7343 14.1689 16.7437C14.1261 16.753 14.0856 16.7707 14.0497 16.7959C14.0138 16.821 13.9833 16.853 13.9599 16.8901C13.914 16.9649 13.8988 17.0545 13.9174 17.1402C13.9361 17.2259 13.9871 17.3011 14.0599 17.3501L15.6999 18.9401L15.2799 19.2101C14.7199 19.5701 14.1299 19.9001 13.5699 20.2801C13.3171 20.4534 13.0765 20.6438 12.8499 20.8501C12.8105 20.881 12.7776 20.9193 12.753 20.9629C12.7284 21.0065 12.7126 21.0545 12.7066 21.1041C12.7006 21.1538 12.7044 21.2042 12.7178 21.2524C12.7312 21.3006 12.754 21.3457 12.7849 21.3851C12.8158 21.4245 12.8541 21.4574 12.8977 21.482C12.9413 21.5066 12.9893 21.5224 13.0389 21.5284C13.0886 21.5344 13.139 21.5306 13.1872 21.5172C13.2354 21.5038 13.2805 21.481 13.3199 21.4501C13.5464 21.3024 13.7838 21.1721 14.0299 21.0601C14.6299 20.7801 15.2799 20.5601 15.8799 20.3001C16.2041 20.1497 16.5152 19.9724 16.8099 19.7701C16.9947 19.6289 17.1451 19.4477 17.2499 19.2401C17.3113 19.1021 17.3249 18.9475 17.2887 18.8008C17.2525 18.6542 17.1685 18.5237 17.0499 18.4301C16.868 18.2918 16.6776 18.1648 16.4799 18.0501Z" fill="black"/>
</g>
</g>
<defs>
<clipPath id="clip0_1094_568">
<rect width="24" height="24" fill="white"/>
</clipPath>
</defs>
</svg>
