<svg width="24" height="24" viewBox="0 0 24 24" fill="none" xmlns="http://www.w3.org/2000/svg">
<path d="M21.3701 16.71C21.2671 16.1131 21.0347 15.546 20.6892 15.0484C20.3437 14.5509 19.8934 14.135 19.3701 13.83C18.9398 13.6071 18.4777 13.452 18.0001 13.37C17.2999 13.2528 16.589 13.2126 15.8801 13.25C15.7201 13.25 15.2301 13.42 14.8801 13.46L14.4101 11.46C14.2422 10.7424 14.0147 10.0399 13.7301 9.36004C13.4372 8.66808 13.0575 8.01618 12.6001 7.42004C12.3209 7.03663 11.9835 6.69922 11.6001 6.42004C11.295 6.18016 10.9267 6.03423 10.5401 6.00004C10.1832 5.95346 9.82095 6.02629 9.50982 6.20718C9.19868 6.38808 8.95616 6.66686 8.82008 7.00004C8.58103 7.79683 8.51288 8.63511 8.62008 9.46004C8.67583 10.2981 8.77597 11.1326 8.92008 11.96C9.06083 12.7916 9.25456 13.6132 9.50008 14.42C9.59008 14.69 9.67008 14.97 9.75008 15.24C9.31726 15.4147 8.92611 15.6786 8.60217 16.0146C8.27823 16.3506 8.02878 16.7511 7.87008 17.19C7.67905 17.6732 7.59051 18.1908 7.61008 18.71C7.63192 19.2493 7.78649 19.7748 8.06008 20.24C8.26421 20.5609 8.52117 20.8449 8.82008 21.08C9.23609 21.3786 9.68587 21.6269 10.1601 21.82L10.9701 22.05C11.122 22.1556 11.2568 22.2838 11.3701 22.43C11.6901 22.87 11.9001 23.43 12.2501 23.81C12.2767 23.8465 12.3104 23.8773 12.3491 23.9005C12.3878 23.9238 12.4307 23.9392 12.4754 23.9457C12.5201 23.9522 12.5656 23.9498 12.6093 23.9385C12.6531 23.9272 12.6941 23.9074 12.7301 23.88C12.7677 23.8543 12.7995 23.821 12.8237 23.7824C12.8478 23.7437 12.8636 23.7005 12.8702 23.6554C12.8768 23.6103 12.8739 23.5643 12.8619 23.5204C12.8498 23.4764 12.8288 23.4355 12.8001 23.4C12.5001 22.96 12.3501 22.4 12.0801 21.96C11.9373 21.715 11.7548 21.4953 11.5401 21.31C11.4275 21.2226 11.3029 21.1519 11.1701 21.1C10.9901 21.02 10.7801 20.98 10.6001 20.88C10.2234 20.688 9.86812 20.4567 9.54008 20.19C9.34862 20.0339 9.18322 19.8482 9.05008 19.64C8.85989 19.3176 8.73781 18.9595 8.69138 18.588C8.64494 18.2165 8.67513 17.8394 8.78008 17.48C8.87016 17.1523 9.02437 16.8456 9.23379 16.5778C9.4432 16.31 9.70366 16.0865 10.0001 15.92C10.0901 16.2 10.1801 16.49 10.2801 16.76C10.4677 17.2722 10.6847 17.773 10.9301 18.26C10.9666 18.3323 11.03 18.3874 11.1066 18.4136C11.1832 18.4397 11.267 18.4349 11.3401 18.4C11.3759 18.3821 11.4078 18.3571 11.4339 18.3266C11.4599 18.2961 11.4796 18.2607 11.4917 18.2225C11.5038 18.1843 11.5081 18.144 11.5044 18.1041C11.5007 18.0642 11.489 18.0254 11.4701 17.99C11.2542 17.5219 11.0671 17.041 10.9101 16.55C10.6701 15.8 10.4801 15.04 10.2801 14.26C10.0767 13.4772 9.92303 12.6823 9.82008 11.88C9.71925 11.0768 9.65585 10.2692 9.63008 9.46004C9.5475 8.7868 9.61582 8.10361 9.83008 7.46004C9.88816 7.33143 9.98773 7.22604 10.1128 7.16076C10.238 7.09548 10.3814 7.0741 10.5201 7.10004C10.7522 7.12575 10.968 7.23188 11.1301 7.40004C11.3565 7.59822 11.558 7.82321 11.7301 8.07004C12.1363 8.59778 12.4724 9.17593 12.7301 9.79004C12.9907 10.4157 13.2014 11.0611 13.3601 11.72L13.8401 14C13.8667 14.1374 13.9362 14.2627 14.0386 14.358C14.1411 14.4533 14.2712 14.5135 14.4101 14.53C14.9097 14.5241 15.4081 14.4772 15.9001 14.39C16.5318 14.3259 17.1684 14.3259 17.8001 14.39C18.1922 14.4378 18.5739 14.5493 18.9301 14.72C19.3374 14.95 19.6898 15.2659 19.9627 15.6458C20.2355 16.0258 20.4223 16.4606 20.5101 16.92C20.7946 18.4402 20.7946 19.9999 20.5101 21.52L20.1901 23.07C20.1796 23.114 20.1778 23.1597 20.185 23.2043C20.1921 23.249 20.208 23.2918 20.2316 23.3304C20.2795 23.4082 20.3562 23.4638 20.4451 23.485C20.5339 23.5063 20.6276 23.4913 20.7054 23.4435C20.7439 23.4198 20.7774 23.3888 20.804 23.3522C20.8305 23.3155 20.8496 23.274 20.8601 23.23L21.2301 21.64C21.5851 20.02 21.6326 18.3476 21.3701 16.71Z" fill="black"/>
</svg>
