<svg width="24" height="24" viewBox="0 0 24 24" fill="none" xmlns="http://www.w3.org/2000/svg">
<g clip-path="url(#clip0_1106_626)">
<path d="M24 14.0501C23.1268 12.5919 22.1226 11.2162 21 9.94009C20.66 9.55342 20.31 9.17342 19.95 8.80009C19.95 8.42009 19.95 8.05009 20.02 7.67009C20.09 6.88009 20.19 6.09009 20.28 5.32009C20.3039 4.88016 20.2972 4.43909 20.26 4.00009C20.2613 3.62124 20.1721 3.24755 20 2.91009C19.8742 2.69413 19.6809 2.52548 19.45 2.43009C19.225 2.36136 18.9939 2.31447 18.76 2.29009C18.3817 2.24518 18.0009 2.22514 17.62 2.23009C17.2338 2.23536 16.8489 2.27552 16.47 2.35009C16.2722 2.38602 16.0781 2.43957 15.89 2.51009C15.7237 2.57787 15.5738 2.68011 15.45 2.81009C15.285 3.03212 15.2003 3.30363 15.21 3.58009V3.93009L13.48 2.00009C13.2647 1.7625 13.0193 1.55407 12.75 1.38009C12.5026 1.22286 12.2127 1.14601 11.92 1.16009C11.6743 1.16592 11.4393 1.26204 11.26 1.43009C11.0437 1.64703 10.8494 1.88485 10.68 2.14009L8.55996 4.54009C7.70996 5.54009 6.83995 6.54009 5.95995 7.54009C5.07995 8.54009 4.17995 9.54009 3.24995 10.4501C2.48995 11.2401 1.65995 11.9001 0.939955 12.6901C0.613615 13.0424 0.315998 13.4203 0.0499549 13.8201C0.00682262 13.887 -0.00892833 13.9679 0.00596437 14.0461C0.0208571 14.1243 0.0652523 14.1937 0.129955 14.2401C0.198035 14.2822 0.279779 14.2964 0.358068 14.2796C0.436358 14.2628 0.50512 14.2164 0.549955 14.1501C0.898073 13.6747 1.29342 13.2358 1.72995 12.8401C2.39995 12.2101 3.11995 11.6601 3.80995 11.0101C4.80995 10.0901 5.72995 9.16009 6.66995 8.20009C7.60995 7.24009 8.50995 6.27009 9.39995 5.27009C9.39995 5.27009 11.99 2.32009 11.97 2.32009C11.95 2.32009 14.87 5.23009 14.87 5.23009C16.32 6.65009 17.81 8.00009 19.23 9.44009L19.29 9.51009C19.63 9.84009 19.96 10.1701 20.29 10.5101C21.4365 11.7134 22.4708 13.0188 23.38 14.4101C23.4036 14.4482 23.4345 14.4812 23.4709 14.5074C23.5073 14.5335 23.5485 14.5522 23.5922 14.5624C23.6358 14.5726 23.681 14.5742 23.7253 14.5669C23.7695 14.5596 23.8119 14.5437 23.85 14.5201C23.888 14.4964 23.9211 14.4655 23.9472 14.4291C23.9734 14.3927 23.9921 14.3515 24.0023 14.3079C24.0125 14.2642 24.014 14.219 24.0068 14.1748C23.9995 14.1305 23.9836 14.0882 23.96 14.0501H24ZM16 4.71009V3.80009C16 3.48009 16 3.45009 16.1 3.38009L16.67 3.27009C16.9297 3.2551 17.1902 3.2551 17.45 3.27009C17.8528 3.29419 18.2536 3.3443 18.65 3.42009L19 3.50009C19.0942 3.67199 19.1457 3.86408 19.15 4.06009C19.175 4.45636 19.175 4.85382 19.15 5.25009V7.64009V7.99009C18 6.89009 17 5.81009 15.91 4.71009H16Z" fill="black"/>
<path d="M11.4399 10.5902C11.7021 10.6614 11.9761 10.6785 12.2451 10.6404C12.5141 10.6023 12.7726 10.5098 13.0046 10.3685C13.2367 10.2272 13.4376 10.0401 13.5949 9.81856C13.7523 9.59706 13.8629 9.34582 13.9199 9.08017C14.3599 7.46017 12.9999 6.08017 10.9199 6.88017C10.5029 7.05703 10.1528 7.36165 9.91993 7.75017C9.7629 8.03282 9.68726 8.35345 9.70138 8.67648C9.7155 8.99951 9.81884 9.31231 9.99993 9.58017C10.3363 10.0855 10.8502 10.446 11.4399 10.5902ZM10.7999 8.18017C10.9447 7.87243 11.2026 7.63242 11.5199 7.51017C12.5199 7.06017 13.3999 7.76017 13.0099 8.79017C12.9737 8.92192 12.9108 9.04484 12.8252 9.15134C12.7395 9.25784 12.633 9.34566 12.5121 9.40938C12.3912 9.4731 12.2586 9.51137 12.1223 9.52183C11.9861 9.53228 11.8491 9.5147 11.7199 9.47017C11.4256 9.38264 11.171 9.19521 10.9999 8.94017C10.9005 8.84374 10.8293 8.72198 10.7941 8.58803C10.7588 8.45408 10.7608 8.31305 10.7999 8.18017Z" fill="black"/>
<path d="M20.6299 14.14V12.14C20.6299 12.0954 20.6211 12.0512 20.604 12.0099C20.587 11.9687 20.5619 11.9312 20.5303 11.8996C20.4988 11.8681 20.4613 11.843 20.42 11.8259C20.3788 11.8088 20.3346 11.8 20.2899 11.8C20.2453 11.8 20.2011 11.8088 20.1598 11.8259C20.1186 11.843 20.0811 11.8681 20.0495 11.8996C20.0179 11.9312 19.9929 11.9687 19.9758 12.0099C19.9587 12.0512 19.9499 12.0954 19.9499 12.14V14.14C19.8799 15.71 19.7299 17.28 19.6999 18.84C19.7388 19.4694 19.7388 20.1006 19.6999 20.73C19.6758 21.0705 19.5543 21.3967 19.3499 21.67C19.2599 21.77 19.0699 21.67 18.8899 21.67C18.5499 21.67 18.1999 21.6 17.9999 21.59C17.2999 21.59 13.4999 21.32 12.9299 21.32H11.3699H11.2899H9.98993H9.28993C8.62993 21.32 7.95993 21.39 7.28993 21.47C6.79993 21.53 6.20993 21.67 5.64993 21.7C5.35702 21.7253 5.0623 21.6807 4.78993 21.57C4.63993 21.5 4.58993 21.3 4.53993 21.1C4.45779 20.6376 4.41099 20.1696 4.39993 19.7C4.30993 18.7 4.24993 17.77 4.20993 16.81C4.20993 15.35 4.14993 13.9 4.13993 12.44C4.14127 12.4006 4.13482 12.3614 4.12097 12.3245C4.10711 12.2875 4.08612 12.2537 4.05919 12.2249C4.03225 12.1961 3.99991 12.1729 3.964 12.1567C3.9281 12.1404 3.88933 12.1313 3.84993 12.13C3.8097 12.1287 3.76961 12.1355 3.73205 12.1499C3.69449 12.1644 3.66023 12.1863 3.63131 12.2143C3.60238 12.2423 3.57938 12.2758 3.56369 12.3129C3.54799 12.35 3.53991 12.3898 3.53993 12.43C3.48993 13.9 3.43993 15.36 3.42993 16.82C3.42993 17.82 3.42993 18.82 3.49993 19.77C3.4858 20.3813 3.54285 20.992 3.66993 21.59C3.76481 21.9592 4.00215 22.2756 4.32993 22.47C4.64235 22.6247 4.98213 22.7164 5.32993 22.74C6.01991 22.7356 6.70856 22.6788 7.38993 22.57C8.10993 22.5 8.83993 22.47 9.57993 22.45H12.9099L17.9099 22.63C18.3657 22.6716 18.8242 22.6716 19.2799 22.63C19.5896 22.5996 19.8775 22.4574 20.0899 22.23C20.3409 21.9064 20.506 21.5246 20.5699 21.12C20.644 20.3318 20.644 19.5383 20.5699 18.75C20.5299 17.27 20.6099 15.7 20.6299 14.14Z" fill="black"/>
<path d="M9.7499 20.8701C9.7499 20.3501 9.6099 19.8001 9.6499 19.2501C9.71145 18.3787 9.98989 17.5364 10.4599 16.8001C10.6249 16.5443 10.8537 16.336 11.1237 16.1957C11.3938 16.0554 11.6958 15.988 11.9999 16.0001C12.317 15.9931 12.6317 16.0558 12.922 16.1837C13.2123 16.3115 13.471 16.5014 13.6799 16.7401C14.1292 17.2557 14.4055 17.8992 14.4699 18.5801C14.5335 19.3383 14.5569 20.0994 14.5399 20.8601C14.5399 21.1501 15.1599 21.3101 15.2899 20.8601C15.4096 19.8469 15.4096 18.8232 15.2899 17.8101C15.179 17.1493 14.904 16.5269 14.4899 16.0001C14.1866 15.633 13.8064 15.337 13.3761 15.1331C12.9459 14.9292 12.476 14.8223 11.9999 14.8201C11.5049 14.8197 11.0185 14.9487 10.5887 15.1943C10.159 15.4398 9.80086 15.7934 9.5499 16.2201C9.06692 17.1457 8.81963 18.1761 8.8299 19.2201C8.83586 19.7922 8.91997 20.3608 9.0799 20.9101C9.1999 21.2001 9.7199 21.2001 9.7499 20.8701Z" fill="black"/>
</g>
<defs>
<clipPath id="clip0_1106_626">
<rect width="24" height="24" fill="white"/>
</clipPath>
</defs>
</svg>
