<svg width="24" height="24" viewBox="0 0 24 24" fill="none" xmlns="http://www.w3.org/2000/svg">
<g clip-path="url(#clip0_1097_700)">
<path fill-rule="evenodd" clip-rule="evenodd" d="M11.9365 12.378C11.867 12.4051 11.8111 12.4587 11.7811 12.5271C11.7511 12.5955 11.7495 12.6729 11.7766 12.7425C11.8037 12.812 11.8574 12.868 11.9257 12.898C11.9941 12.9279 12.0716 12.9296 12.1411 12.9024C12.4181 12.7949 12.6704 12.6325 12.8828 12.4248C13.0953 12.2171 13.2635 11.9686 13.3773 11.6942C13.5051 11.3972 13.559 11.0738 13.5344 10.7515C13.5098 10.4291 13.4074 10.1176 13.2361 9.84349C13.024 9.52691 12.733 9.27114 12.3918 9.10144C12.0507 8.93175 11.6711 8.854 11.2907 8.87589C10.9245 8.88941 10.5661 8.98594 10.2426 9.15819C9.9191 9.33045 9.63896 9.57393 9.4233 9.87026C9.3762 9.94124 9.35746 10.0273 9.37078 10.1114C9.38411 10.1956 9.42853 10.2716 9.49526 10.3246C9.5645 10.3713 9.64887 10.39 9.73135 10.3769C9.81383 10.3638 9.88829 10.32 9.93972 10.2542C10.1137 10.0858 10.3217 9.95646 10.5498 9.87494C10.7779 9.79343 11.0207 9.76157 11.2621 9.78152C11.4768 9.79388 11.6853 9.85772 11.8701 9.96766C12.055 10.0776 12.2106 10.2304 12.3239 10.4132C12.4326 10.549 12.5079 10.7084 12.5436 10.8786C12.5794 11.0488 12.5746 11.225 12.5298 11.3931C12.5005 11.5882 12.4331 11.7756 12.3313 11.9446C12.2295 12.1136 12.0953 12.2609 11.9365 12.378Z" fill="black"/>
<path fill-rule="evenodd" clip-rule="evenodd" d="M10.3601 10.0001C10.4331 9.98416 10.4967 9.93993 10.537 9.8771C10.5773 9.81428 10.5911 9.73801 10.5751 9.66507C10.5592 9.59214 10.515 9.52851 10.4522 9.48819C10.3893 9.44787 10.3131 9.43416 10.2401 9.45007C9.94977 9.51292 9.67514 9.63392 9.43281 9.80579C9.19048 9.97765 8.98547 10.1968 8.83014 10.4501C8.65749 10.7234 8.55366 11.0344 8.52754 11.3566C8.50141 11.6788 8.55378 12.0025 8.68014 12.3001C8.84006 12.6459 9.08745 12.9441 9.39787 13.165C9.70829 13.386 10.071 13.5222 10.4501 13.5601C10.814 13.604 11.1831 13.5647 11.5295 13.4452C11.876 13.3257 12.1908 13.129 12.4501 12.8701C12.5078 12.8073 12.5397 12.7253 12.5397 12.6401C12.5397 12.5549 12.5078 12.4728 12.4501 12.4101C12.3891 12.3531 12.3086 12.3215 12.2251 12.3215C12.1416 12.3215 12.0612 12.3531 12.0001 12.4101C11.8019 12.5492 11.5762 12.6444 11.3382 12.6892C11.1002 12.7341 10.8554 12.7275 10.6201 12.6701C10.41 12.6243 10.214 12.5286 10.0487 12.3911C9.8833 12.2536 9.75348 12.0783 9.67014 11.8801C9.58405 11.729 9.53467 11.5597 9.52598 11.386C9.5173 11.2123 9.54955 11.039 9.62014 10.8801C9.67955 10.6919 9.77549 10.5174 9.90247 10.3664C10.0295 10.2154 10.185 10.0909 10.3601 10.0001Z" fill="black"/>
<path fill-rule="evenodd" clip-rule="evenodd" d="M11.88 8.07016C11.8857 8.03334 11.8839 7.99576 11.8749 7.95963C11.8658 7.9235 11.8496 7.88954 11.8273 7.85973C11.8049 7.82993 11.7768 7.80489 11.7447 7.78608C11.7125 7.76726 11.677 7.75505 11.64 7.75016C11.2645 7.70958 10.8856 7.70958 10.51 7.75016C10.1241 7.77786 9.74388 7.85862 9.38003 7.99016C8.57366 8.27802 7.86462 8.78711 7.33407 9.45914C6.80352 10.1312 6.47289 10.939 6.38003 11.7902C6.2776 12.6781 6.50094 13.573 7.00856 14.3087C7.51617 15.0444 8.27356 15.5708 9.14003 15.7902C10.1799 16.0964 11.2897 16.0681 12.3125 15.7092C13.3354 15.3503 14.2195 14.679 14.84 13.7902C15.274 13.2799 15.561 12.6611 15.67 12.0002C15.7055 11.6384 15.6642 11.2732 15.5488 10.9286C15.4333 10.5839 15.2463 10.2675 15 10.0002C14.9745 9.96656 14.9426 9.93834 14.9061 9.91713C14.8696 9.89591 14.8293 9.88212 14.7875 9.87654C14.7457 9.87097 14.7032 9.87372 14.6624 9.88463C14.6217 9.89555 14.5835 9.91442 14.55 9.94016C14.5168 9.96477 14.4887 9.9958 14.4677 10.0314C14.4466 10.067 14.4328 10.1065 14.4272 10.1475C14.4216 10.1885 14.4243 10.2302 14.4351 10.2702C14.4459 10.3101 14.4646 10.3475 14.49 10.3802C14.6715 10.5811 14.8102 10.8167 14.8979 11.0728C14.9855 11.329 15.0203 11.6002 15 11.8702C14.8843 12.3969 14.6366 12.8855 14.28 13.2902C13.7201 13.9841 12.9638 14.493 12.11 14.7502C11.2712 15.0202 10.3688 15.0202 9.53003 14.7502C8.89303 14.5946 8.33332 14.2149 7.95323 13.6806C7.57314 13.1462 7.39807 12.493 7.46003 11.8402C7.49064 11.1507 7.70893 10.4827 8.09134 9.90816C8.47376 9.33366 9.00579 8.87448 9.63003 8.58016C9.93455 8.45607 10.2539 8.37204 10.58 8.33016C10.9117 8.28351 11.2483 8.28351 11.58 8.33016C11.6168 8.33288 11.6538 8.32831 11.6888 8.3167C11.7238 8.30509 11.7562 8.28668 11.7841 8.26252C11.812 8.23836 11.8348 8.20892 11.8512 8.17591C11.8677 8.1429 11.8775 8.10696 11.88 8.07016Z" fill="black"/>
<path fill-rule="evenodd" clip-rule="evenodd" d="M17.34 14.0901C17.2932 14.0203 16.5823 12.0168 16.5 12C16.5705 11.9542 16.4177 11.9832 16.5 12C16.3826 12.0763 16.024 11.9655 16 12C15.976 12.0345 16.7691 14.1597 16.7607 14.2008C16.7523 14.242 16.7523 14.2844 16.7608 14.3255C16.7692 14.3667 16.786 14.4056 16.81 14.4401C17.3426 15.3009 17.7659 16.2246 18.07 17.1901C18.2996 17.761 18.3587 18.3863 18.24 18.9901C18.0541 19.3916 17.7461 19.724 17.36 19.9401C16.7062 20.3173 16.0118 20.6192 15.29 20.8401L11.77 22.0401C10.7552 22.4733 9.68484 22.7628 8.59 22.9001C7.90299 22.9644 7.21146 22.8399 6.59 22.5401C6.51247 22.4873 6.45035 22.4148 6.41 22.3301C6.3 22.1601 6.23 21.9801 6.15 21.8301C5.93 21.4101 5.72 20.9801 5.52 20.5401C5.32 20.1001 5.14 19.6601 4.96 19.2101C4.08 17.0101 3.05 14.5901 2.26 12.1501C1.73497 10.5729 1.36325 8.94869 1.15 7.30011C1.14626 7.26326 1.13525 7.22751 1.11761 7.19495C1.09996 7.16238 1.07603 7.13364 1.0472 7.11038C1.01836 7.08713 0.985202 7.06983 0.949636 7.05948C0.91407 7.04914 0.876804 7.04595 0.839998 7.05011C0.766627 7.0601 0.699856 7.09777 0.653372 7.15541C0.606889 7.21305 0.584214 7.28629 0.589998 7.36011C0.770565 9.05372 1.10529 10.7273 1.59 12.3601C2.3 14.8401 3.24 17.3601 4.05 19.5701C4.22 20.0401 4.4 20.5001 4.61 20.9601C4.82 21.4201 5.02 21.8701 5.25 22.3101C5.37591 22.6031 5.53352 22.8814 5.72 23.1401C5.84462 23.2954 6.0016 23.4217 6.18 23.5101C6.95302 23.8879 7.81146 24.0569 8.67 24.0001C9.86414 23.8289 11.0286 23.4924 12.13 23.0001L15.6 21.7001C16.378 21.4325 17.1228 21.0768 17.82 20.6401C18.3523 20.3199 18.7664 19.8357 19 19.2601C19.1475 18.5006 19.0675 17.7144 18.77 17.0001C18.4134 15.9756 17.9332 14.9984 17.34 14.0901Z" fill="black"/>
<path fill-rule="evenodd" clip-rule="evenodd" d="M0.890072 6.87009C0.95062 6.83266 0.995289 6.77428 1.01557 6.70605C1.03586 6.63782 1.03034 6.56451 1.00007 6.50009C0.953023 6.35967 0.94303 6.20949 0.971061 6.06407C0.999093 5.91866 1.0642 5.78295 1.16007 5.67009C1.35857 5.40949 1.59841 5.18316 1.87007 5.00009C1.87007 5.36009 1.97007 5.71009 2.04007 6.07009C2.24007 7.07009 2.50007 8.12009 2.70007 9.14009C2.88007 9.99009 3.06007 10.8501 3.28007 11.7101C3.62007 13.0001 4.00007 14.2801 4.45007 15.5201C5.15655 17.5005 6.00889 19.4257 7.00007 21.2801C6.92684 21.2856 6.8533 21.2856 6.78007 21.2801C6.70489 21.2877 6.63564 21.3244 6.58708 21.3823C6.53852 21.4402 6.51448 21.5147 6.52007 21.5901C6.52261 21.6269 6.53239 21.6628 6.54886 21.6958C6.56532 21.7289 6.58815 21.7583 6.61603 21.7824C6.64391 21.8066 6.67628 21.825 6.7113 21.8366C6.74632 21.8482 6.78328 21.8528 6.82007 21.8501C8.02485 21.8219 9.22113 21.6404 10.3801 21.3101C10.8401 21.1801 11.2901 21.0401 11.7401 20.8801C12.4001 20.6401 13.0501 20.3601 13.7401 20.1001C14.5801 19.7201 15.4201 19.3601 16.2401 18.9701C16.8001 18.7001 17.3401 18.4301 17.8801 18.1201C17.9523 18.0798 18.0062 18.013 18.0303 17.9339C18.0544 17.8547 18.0469 17.7693 18.0094 17.6955C17.9718 17.6218 17.9072 17.5654 17.829 17.5383C17.7509 17.5112 17.6652 17.5154 17.5901 17.5501C17.0401 17.8001 16.4901 18.0201 15.9301 18.2301C15.0801 18.5401 14.2201 18.8301 13.3501 19.1201L11.0501 20.0001C10.3001 20.2901 9.56007 20.6001 8.79007 20.8301C8.43007 20.9401 8.06007 21.0401 7.68007 21.1201C6.98348 19.5759 6.36602 17.9971 5.83007 16.3901C5.41007 15.2001 5.00007 14.0001 4.67007 12.7101C4.34007 11.4201 3.91007 10.2001 3.58007 9.00009C3.30007 8.00009 3.00007 7.00009 2.68007 6.00009C2.57007 5.58009 2.47007 5.16009 2.39007 4.74009C2.66007 4.58009 2.95007 4.43009 3.27007 4.27009L3.66007 4.11009L4.34007 5.00009C4.42007 5.11009 4.50007 5.27009 4.58007 5.40009C4.64367 5.48879 4.72137 5.56649 4.81007 5.63009C4.94387 5.73359 5.11145 5.78351 5.28007 5.77009C5.59569 5.75663 5.90988 5.71987 6.22007 5.66009C6.53139 5.62182 6.83907 5.55828 7.14007 5.47009C7.78007 5.27009 8.40007 5.00009 9.05007 4.85009C9.3391 4.79185 9.62326 4.71161 9.90007 4.61009C10.0611 4.55358 10.2007 4.44883 10.3001 4.31009C10.3776 4.16788 10.4252 4.01135 10.4401 3.85009C10.4401 3.61009 10.4401 3.31009 10.4901 3.13009C10.5308 2.83644 10.5909 2.5458 10.6701 2.26009C10.6701 2.12009 10.7501 2.00009 10.7901 1.86009L11.7901 1.68009C12.0401 1.68009 12.2401 1.90009 12.4301 2.17009C12.7701 2.6808 13.0455 3.23166 13.2501 3.81009C13.2754 3.89089 15.925 11.9606 16 12C16.075 12.0394 16.4191 12.025 16.5 12C16.461 12.0743 16.5793 11.9725 16.5 12C16.539 11.9257 13.8825 3.70096 13.8601 3.62009C13.6425 2.84884 13.305 2.11658 12.8601 1.45009C12.7349 1.26243 12.5654 1.10856 12.3666 1.00215C12.1677 0.895733 11.9456 0.840066 11.7201 0.840088C11.3601 0.840088 10.9701 0.920088 10.5801 0.980088H10.5001C9.37688 1.14107 8.26475 1.37151 7.17007 1.67009C6.27485 1.92088 5.39642 2.22816 4.54007 2.59009C3.96451 2.83782 3.4036 3.11828 2.86007 3.43009C1.05007 4.48009 7.18087e-05 5.69009 0.520072 6.72009C0.550797 6.78772 0.606306 6.84099 0.67515 6.8689C0.743993 6.89681 0.820923 6.89723 0.890072 6.87009ZM4.89007 3.56009C5.69007 3.26009 6.56007 2.98009 7.43007 2.72009C8.30007 2.46009 9.13007 2.24009 9.94007 2.05009C9.83007 2.35009 9.73007 2.66009 9.65007 2.97009C9.50007 3.65009 9.65007 3.63009 8.78007 3.84009L6.03007 4.64009C5.10007 4.89009 5.30007 4.89009 4.90007 4.49009L4.28007 3.80009L4.89007 3.56009Z" fill="black"/>
</g>
<defs>
<clipPath id="clip0_1097_700">
<rect width="24" height="24" fill="white"/>
</clipPath>
</defs>
</svg>
