<svg width="24" height="24" viewBox="0 0 24 24" fill="none" xmlns="http://www.w3.org/2000/svg">
<g clip-path="url(#clip0_1097_679)">
<path fill-rule="evenodd" clip-rule="evenodd" d="M23.56 3.93996C23.5405 3.88889 23.511 3.84224 23.4733 3.80274C23.4355 3.76324 23.3902 3.73169 23.34 3.70996C23.27 3.70996 23.11 3.70996 23.04 3.64996L22.53 3.50996L21 3.12996H20.9C20.9885 2.88124 21.0619 2.62745 21.12 2.36996C21.2083 1.99229 21.2618 1.60736 21.28 1.21996C21.304 0.97053 21.304 0.719381 21.28 0.469956C21.2482 0.341689 21.1826 0.224289 21.09 0.129956C21.0086 0.0599845 20.9091 0.014416 20.803 -0.00150593C20.6968 -0.0174278 20.5884 -0.00305602 20.49 0.0399556C20.17 0.139956 19.42 0.489956 19.35 0.519956C18.76 0.789956 18.16 1.04996 17.6 1.34996C17.2075 1.56411 16.83 1.80466 16.47 2.06996C16.2086 2.22879 15.961 2.40943 15.73 2.60996C15.6107 2.70263 15.5205 2.82756 15.47 2.96996C15.3643 3.30284 15.3137 3.65075 15.32 3.99996C15.32 4.55996 15.41 5.17996 15.46 5.69996L15 6.07996C14.5546 6.47707 14.1306 6.89767 13.73 7.33996C12.8195 8.37278 11.9745 9.46157 11.2 10.6C11.1505 10.6684 11.1292 10.7532 11.1403 10.8369C11.1515 10.9206 11.1943 10.9969 11.26 11.05C11.2935 11.0757 11.3317 11.0946 11.3724 11.1055C11.4132 11.1164 11.4557 11.1191 11.4975 11.1136C11.5393 11.108 11.5796 11.0942 11.6161 11.073C11.6526 11.0518 11.6845 11.0236 11.71 10.99C12.6117 9.94191 13.5662 8.94061 14.57 7.98996C14.98 7.58996 15.42 7.21996 15.86 6.83996H15.95C16.31 6.83996 16.67 6.95996 17.03 7.03996C17.3687 7.12119 17.7026 7.22135 18.03 7.33996C18.2606 7.4342 18.498 7.51108 18.74 7.56996C18.9338 7.59973 19.132 7.57191 19.31 7.48996C19.6365 7.3195 19.9419 7.11142 20.22 6.86996C20.7382 6.344 21.2966 5.8592 21.89 5.41996C22.11 5.26996 22.6 5.06996 22.96 4.83996C23.1773 4.71874 23.3625 4.5473 23.5 4.33996C23.5405 4.28259 23.5671 4.21653 23.5775 4.14708C23.5879 4.07762 23.5819 4.00669 23.56 3.93996ZM16.12 4.07996C16.23 3.19996 16.56 3.21996 17.04 2.91996C17.3784 2.69424 17.7289 2.48726 18.09 2.29996C18.64 1.99996 19.2 1.72996 19.77 1.44996L20.41 1.09996C20.4126 1.14325 20.4126 1.18666 20.41 1.22996C20.4388 1.56267 20.4388 1.89724 20.41 2.22996C20.3688 2.49967 20.312 2.76678 20.24 3.02996C20.24 3.02996 20.24 3.02996 20.16 3.02996C18.8397 3.52922 17.5867 4.19098 16.43 4.99996L16.08 5.27996C16.0718 4.87953 16.0851 4.47895 16.12 4.07996ZM21.38 4.54996C21.163 4.66903 20.9587 4.80974 20.77 4.96996C20.42 5.24996 20.1 5.57996 19.77 5.89996C18.64 7.02996 18.86 6.66996 18.3 6.53996C17.9205 6.45307 17.5366 6.38632 17.15 6.33996L16.47 6.26996L16.61 6.14996C20.54 2.87996 20.5 3.53996 22.21 4.19996C21.89 4.32996 21.56 4.44996 21.38 4.54996Z" fill="black"/>
<path fill-rule="evenodd" clip-rule="evenodd" d="M10.3601 10.0001C10.4331 9.98416 10.4967 9.93993 10.537 9.8771C10.5773 9.81428 10.5911 9.73801 10.5751 9.66507C10.5592 9.59214 10.515 9.52851 10.4522 9.48819C10.3893 9.44787 10.3131 9.43416 10.2401 9.45007C9.94977 9.51292 9.67514 9.63392 9.43281 9.80579C9.19048 9.97765 8.98547 10.1968 8.83014 10.4501C8.65749 10.7234 8.55366 11.0344 8.52754 11.3566C8.50141 11.6788 8.55378 12.0025 8.68014 12.3001C8.84006 12.6459 9.08745 12.9441 9.39787 13.165C9.70829 13.386 10.071 13.5222 10.4501 13.5601C10.814 13.604 11.1831 13.5647 11.5295 13.4452C11.876 13.3257 12.1908 13.129 12.4501 12.8701C12.5078 12.8073 12.5397 12.7253 12.5397 12.6401C12.5397 12.5549 12.5078 12.4728 12.4501 12.4101C12.3891 12.3531 12.3086 12.3215 12.2251 12.3215C12.1416 12.3215 12.0612 12.3531 12.0001 12.4101C11.8019 12.5492 11.5762 12.6444 11.3382 12.6892C11.1002 12.7341 10.8554 12.7275 10.6201 12.6701C10.41 12.6243 10.214 12.5286 10.0487 12.3911C9.8833 12.2536 9.75348 12.0783 9.67014 11.8801C9.58405 11.729 9.53467 11.5597 9.52598 11.386C9.5173 11.2123 9.54955 11.039 9.62014 10.8801C9.67955 10.6919 9.77549 10.5174 9.90247 10.3664C10.0295 10.2154 10.185 10.0909 10.3601 10.0001Z" fill="black"/>
<path fill-rule="evenodd" clip-rule="evenodd" d="M11.88 8.06991C11.8857 8.03309 11.8839 7.99552 11.8749 7.95938C11.8658 7.92325 11.8496 7.88929 11.8273 7.85949C11.8049 7.82969 11.7768 7.80465 11.7447 7.78583C11.7125 7.76702 11.677 7.75481 11.64 7.74992C11.2645 7.70934 10.8856 7.70934 10.51 7.74992C10.1241 7.77761 9.74388 7.85837 9.38003 7.98991C8.57366 8.27778 7.86462 8.78686 7.33407 9.45889C6.80352 10.1309 6.47289 10.9387 6.38003 11.7899C6.2776 12.6778 6.50094 13.5728 7.00856 14.3084C7.51617 15.0441 8.27356 15.5705 9.14003 15.7899C10.1799 16.0962 11.2897 16.0679 12.3125 15.709C13.3354 15.3501 14.2195 14.6788 14.84 13.7899C15.274 13.2796 15.561 12.6609 15.67 11.9999C15.7055 11.6382 15.6642 11.273 15.5488 10.9283C15.4333 10.5837 15.2463 10.2673 15 9.99992C14.9745 9.96632 14.9426 9.9381 14.9061 9.91688C14.8696 9.89567 14.8293 9.88188 14.7875 9.8763C14.7457 9.87072 14.7032 9.87347 14.6624 9.88439C14.6217 9.89531 14.5835 9.91418 14.55 9.93991C14.5168 9.96453 14.4887 9.99555 14.4677 10.0312C14.4466 10.0668 14.4328 10.1063 14.4272 10.1473C14.4216 10.1883 14.4243 10.23 14.4351 10.2699C14.4459 10.3099 14.4646 10.3473 14.49 10.3799C14.6715 10.5808 14.8102 10.8165 14.8979 11.0726C14.9855 11.3287 15.0203 11.6 15 11.8699C14.8843 12.3966 14.6366 12.8853 14.28 13.2899C13.7201 13.9839 12.9638 14.4927 12.11 14.7499C11.2712 15.0199 10.3688 15.0199 9.53003 14.7499C8.89303 14.5943 8.33332 14.2147 7.95323 13.6803C7.57314 13.146 7.39807 12.4927 7.46003 11.8399C7.49064 11.1504 7.70893 10.4824 8.09134 9.90792C8.47376 9.33341 9.00579 8.87423 9.63003 8.57991C9.93455 8.45583 10.2539 8.37179 10.58 8.32991C10.9117 8.28326 11.2483 8.28326 11.58 8.32991C11.6168 8.33264 11.6538 8.32806 11.6888 8.31645C11.7238 8.30485 11.7562 8.28643 11.7841 8.26227C11.812 8.23811 11.8348 8.20868 11.8512 8.17567C11.8677 8.14266 11.8775 8.10672 11.88 8.06991Z" fill="black"/>
<path fill-rule="evenodd" clip-rule="evenodd" d="M17.34 14.0899C17.2932 14.0201 17.2208 13.9716 17.1384 13.9547C17.0561 13.9379 16.9705 13.9541 16.9 13.9999C16.8644 14.0221 16.8337 14.0514 16.8097 14.0859C16.7858 14.1204 16.7691 14.1594 16.7607 14.2006C16.7523 14.2417 16.7523 14.2841 16.7608 14.3253C16.7692 14.3664 16.786 14.4054 16.81 14.4399C17.3426 15.3006 17.7659 16.2244 18.07 17.1899C18.2996 17.7608 18.3587 18.3861 18.24 18.9899C18.0541 19.3913 17.7461 19.7238 17.36 19.9399C16.7062 20.317 16.0118 20.6189 15.29 20.8399L11.77 22.0399C10.7552 22.4731 9.68484 22.7625 8.59 22.8999C7.90299 22.9642 7.21146 22.8397 6.59 22.5399C6.51247 22.487 6.45035 22.4146 6.41 22.3299C6.3 22.1599 6.23 21.9799 6.15 21.8299C5.93 21.4099 5.72 20.9799 5.52 20.5399C5.32 20.0999 5.14 19.6599 4.96 19.2099C4.08 17.0099 3.05 14.5899 2.26 12.1499C1.73497 10.5726 1.36325 8.94845 1.15 7.29987C1.14626 7.26301 1.13525 7.22727 1.11761 7.1947C1.09996 7.16213 1.07603 7.13339 1.0472 7.11014C1.01836 7.08689 0.985202 7.06959 0.949636 7.05924C0.91407 7.04889 0.876804 7.04571 0.839998 7.04987C0.766627 7.05985 0.699856 7.09753 0.653372 7.15517C0.606889 7.21281 0.584214 7.28604 0.589998 7.35986C0.770565 9.05348 1.10529 10.7271 1.59 12.3599C2.3 14.8399 3.24 17.3599 4.05 19.5699C4.22 20.0399 4.4 20.4999 4.61 20.9599C4.82 21.4199 5.02 21.8699 5.25 22.3099C5.37591 22.6029 5.53352 22.8812 5.72 23.1399C5.84462 23.2952 6.0016 23.4214 6.18 23.5099C6.95302 23.8877 7.81146 24.0566 8.67 23.9999C9.86414 23.8287 11.0286 23.4921 12.13 22.9999L15.6 21.6999C16.378 21.4322 17.1228 21.0766 17.82 20.6399C18.3523 20.3197 18.7664 19.8354 19 19.2599C19.1475 18.5003 19.0675 17.7141 18.77 16.9999C18.4134 15.9753 17.9332 14.9981 17.34 14.0899Z" fill="black"/>
<path fill-rule="evenodd" clip-rule="evenodd" d="M0.890072 6.86984C0.95062 6.83242 0.995289 6.77403 1.01557 6.7058C1.03586 6.63757 1.03034 6.56427 1.00007 6.49984C0.953023 6.35943 0.94303 6.20924 0.971061 6.06383C0.999093 5.91842 1.0642 5.78271 1.16007 5.66984C1.35857 5.40924 1.59841 5.18291 1.87007 4.99984C1.87007 5.35984 1.97007 5.70984 2.04007 6.06984C2.24007 7.06984 2.50007 8.11984 2.70007 9.13984C2.88007 9.98984 3.06007 10.8498 3.28007 11.7098C3.62007 12.9998 4.00007 14.2798 4.45007 15.5198C5.15655 17.5002 6.00889 19.4255 7.00007 21.2798C6.92684 21.2854 6.8533 21.2854 6.78007 21.2798C6.70489 21.2875 6.63564 21.3241 6.58708 21.382C6.53852 21.4399 6.51448 21.5145 6.52007 21.5898C6.52261 21.6266 6.53239 21.6626 6.54886 21.6956C6.56532 21.7286 6.58815 21.758 6.61603 21.7822C6.64391 21.8064 6.67628 21.8248 6.7113 21.8364C6.74632 21.848 6.78328 21.8526 6.82007 21.8498C8.02485 21.8216 9.22113 21.6402 10.3801 21.3098C10.8401 21.1798 11.2901 21.0398 11.7401 20.8798C12.4001 20.6398 13.0501 20.3598 13.7401 20.0998C14.5801 19.7198 15.4201 19.3598 16.2401 18.9698C16.8001 18.6998 17.3401 18.4298 17.8801 18.1198C17.9523 18.0795 18.0062 18.0128 18.0303 17.9336C18.0544 17.8545 18.0469 17.769 18.0094 17.6953C17.9718 17.6215 17.9072 17.5652 17.829 17.5381C17.7509 17.511 17.6652 17.5152 17.5901 17.5498C17.0401 17.7998 16.4901 18.0198 15.9301 18.2298C15.0801 18.5398 14.2201 18.8298 13.3501 19.1198L11.0501 19.9998C10.3001 20.2898 9.56007 20.5998 8.79007 20.8298C8.43007 20.9398 8.06007 21.0398 7.68007 21.1198C6.98348 19.5756 6.36602 17.9969 5.83007 16.3898C5.41007 15.1998 5.00007 13.9998 4.67007 12.7098C4.34007 11.4198 3.91007 10.1998 3.58007 8.99984C3.30007 7.99984 3.00007 6.99984 2.68007 5.99984C2.57007 5.57984 2.47007 5.15984 2.39007 4.73984C2.66007 4.57984 2.95007 4.42984 3.27007 4.26984L3.66007 4.10984L4.34007 4.99984C4.42007 5.10984 4.50007 5.26984 4.58007 5.39984C4.64367 5.48855 4.72137 5.56624 4.81007 5.62984C4.94387 5.73335 5.11145 5.78326 5.28007 5.76984C5.59569 5.75639 5.90988 5.71962 6.22007 5.65984C6.53139 5.62158 6.83907 5.55803 7.14007 5.46984C7.78007 5.26984 8.40007 4.99984 9.05007 4.84984C9.3391 4.7916 9.62326 4.71137 9.90007 4.60984C10.0611 4.55334 10.2007 4.44858 10.3001 4.30984C10.3776 4.16763 10.4252 4.01111 10.4401 3.84984C10.4401 3.60984 10.4401 3.30984 10.4901 3.12984C10.5308 2.83619 10.5909 2.54556 10.6701 2.25984C10.6701 2.11984 10.7501 1.99984 10.7901 1.85984L11.7901 1.67984C12.0401 1.67984 12.2401 1.89984 12.4301 2.16984C12.7701 2.68056 13.0455 3.23142 13.2501 3.80984C13.2754 3.89065 13.3317 3.95812 13.4067 3.99749C13.4817 4.03685 13.5692 4.04489 13.6501 4.01984C13.7294 3.99238 13.7952 3.93572 13.8343 3.86141C13.8733 3.7871 13.8825 3.70072 13.8601 3.61984C13.6425 2.8486 13.305 2.11634 12.8601 1.44984C12.7349 1.26218 12.5654 1.10831 12.3666 1.0019C12.1677 0.895489 11.9456 0.839822 11.7201 0.839844C11.3601 0.839844 10.9701 0.919844 10.5801 0.979844H10.5001C9.37688 1.14082 8.26475 1.37127 7.17007 1.66984C6.27485 1.92063 5.39642 2.22792 4.54007 2.58984C3.96451 2.83758 3.4036 3.11804 2.86007 3.42984C1.05007 4.47984 7.18087e-05 5.68984 0.520072 6.71984C0.550797 6.78748 0.606306 6.84074 0.67515 6.86865C0.743993 6.89656 0.820923 6.89699 0.890072 6.86984ZM4.89007 3.55984C5.69007 3.25984 6.56007 2.97984 7.43007 2.71984C8.30007 2.45984 9.13007 2.23984 9.94007 2.04984C9.83007 2.34984 9.73007 2.65984 9.65007 2.96984C9.50007 3.64984 9.65007 3.62984 8.78007 3.83984L6.03007 4.63984C5.10007 4.88984 5.30007 4.88984 4.90007 4.48984L4.28007 3.79984L4.89007 3.55984Z" fill="black"/>
</g>
<defs>
<clipPath id="clip0_1097_679">
<rect width="24" height="24" fill="white"/>
</clipPath>
</defs>
</svg>
