<svg width="24" height="24" viewBox="0 0 24 24" fill="none" xmlns="http://www.w3.org/2000/svg">
<g clip-path="url(#clip0_1097_686)">
<path fill-rule="evenodd" clip-rule="evenodd" d="M23.56 3.93996C23.5405 3.88889 23.511 3.84224 23.4733 3.80274C23.4355 3.76324 23.3902 3.73169 23.34 3.70996C23.27 3.70996 23.11 3.70996 23.04 3.64996L22.53 3.50996L21 3.12996H20.9C20.9885 2.88124 21.0619 2.62745 21.12 2.36996C21.2083 1.99229 21.2618 1.60736 21.28 1.21996C21.304 0.97053 21.304 0.719381 21.28 0.469956C21.2482 0.341689 21.1826 0.224289 21.09 0.129956C21.0086 0.0599845 20.9091 0.014416 20.803 -0.00150593C20.6968 -0.0174278 20.5884 -0.00305602 20.49 0.0399556C20.17 0.139956 19.42 0.489956 19.35 0.519956C18.76 0.789956 18.16 1.04996 17.6 1.34996C17.2075 1.56411 16.83 1.80466 16.47 2.06996C16.2086 2.22879 15.961 2.40943 15.73 2.60996C15.6107 2.70263 15.5205 2.82756 15.47 2.96996C15.3643 3.30284 15.3137 3.65075 15.32 3.99996C15.32 4.55996 15.41 5.17996 15.46 5.69996L15 6.07996C14.5546 6.47707 14.1306 6.89767 13.73 7.33996C12.8195 8.37278 11.9745 9.46157 11.2 10.6C11.1505 10.6684 11.1292 10.7532 11.1403 10.8369C11.1515 10.9206 11.1943 10.9969 11.26 11.05C11.2935 11.0757 11.3317 11.0946 11.3724 11.1055C11.4132 11.1164 11.4557 11.1191 11.4975 11.1136C11.5393 11.108 11.5796 11.0942 11.6161 11.073C11.6526 11.0518 11.6845 11.0236 11.71 10.99C12.6117 9.94191 13.5662 8.94061 14.57 7.98996C14.98 7.58996 15.42 7.21996 15.86 6.83996H15.95C16.31 6.83996 16.67 6.95996 17.03 7.03996C17.3687 7.12119 17.7026 7.22135 18.03 7.33996C18.2606 7.4342 18.498 7.51108 18.74 7.56996C18.9338 7.59973 19.132 7.57191 19.31 7.48996C19.6365 7.3195 19.9419 7.11142 20.22 6.86996C20.7382 6.344 21.2966 5.8592 21.89 5.41996C22.11 5.26996 22.6 5.06996 22.96 4.83996C23.1773 4.71874 23.3625 4.5473 23.5 4.33996C23.5405 4.28259 23.5671 4.21653 23.5775 4.14708C23.5879 4.07762 23.5819 4.00669 23.56 3.93996ZM16.12 4.07996C16.23 3.19996 16.56 3.21996 17.04 2.91996C17.3784 2.69424 17.7289 2.48726 18.09 2.29996C18.64 1.99996 19.2 1.72996 19.77 1.44996L20.41 1.09996C20.4126 1.14325 20.4126 1.18666 20.41 1.22996C20.4388 1.56267 20.4388 1.89724 20.41 2.22996C20.3688 2.49967 20.312 2.76678 20.24 3.02996C20.24 3.02996 20.24 3.02996 20.16 3.02996C18.8397 3.52922 17.5867 4.19098 16.43 4.99996L16.08 5.27996C16.0718 4.87953 16.0851 4.47895 16.12 4.07996ZM21.38 4.54996C21.163 4.66903 20.9587 4.80974 20.77 4.96996C20.42 5.24996 20.1 5.57996 19.77 5.89996C18.64 7.02996 18.86 6.66996 18.3 6.53996C17.9205 6.45307 17.5366 6.38632 17.15 6.33996L16.47 6.26996L16.61 6.14996C20.54 2.87996 20.5 3.53996 22.21 4.19996C21.89 4.32996 21.56 4.44996 21.38 4.54996Z" fill="black"/>
</g>
<defs>
<clipPath id="clip0_1097_686">
<rect width="24" height="24" fill="white"/>
</clipPath>
</defs>
</svg>
