<svg width="24" height="24" viewBox="0 0 24 24" fill="none" xmlns="http://www.w3.org/2000/svg">
<g clip-path="url(#clip0_1105_611)">
<path fill-rule="evenodd" clip-rule="evenodd" d="M23.6101 6.05993C23.421 5.38994 23.131 4.75264 22.7501 4.16993C22.3695 3.56228 21.8694 3.03834 21.2801 2.62993C18.5701 0.888318 15.4113 -0.0256236 12.1901 -7.10887e-05C8.95794 -0.0310271 5.80926 1.02558 3.25006 2.99993C2.36846 3.71851 1.63486 4.60154 1.09006 5.59993C0.534538 6.61186 0.216513 7.73692 0.160062 8.88993C0.115266 9.3455 0.115266 9.80436 0.160062 10.2599C0.168983 10.4049 0.209389 10.5462 0.278468 10.674C0.347546 10.8018 0.44364 10.913 0.560062 10.9999C1.01257 11.2579 1.53003 11.3794 2.05006 11.3499C3.09329 11.2138 4.1282 11.0202 5.15006 10.7699C5.20179 10.7663 5.25178 10.7497 5.29546 10.7218C5.33913 10.6938 5.3751 10.6554 5.40006 10.6099H5.49006C5.52948 10.6126 5.56904 10.6075 5.60648 10.5949C5.64392 10.5823 5.6785 10.5624 5.70823 10.5364C5.73797 10.5104 5.76227 10.4788 5.77974 10.4433C5.79722 10.4079 5.80752 10.3694 5.81006 10.3299C5.81006 9.93993 5.91006 9.15993 6.00006 8.47993C6.02611 8.11509 6.08637 7.7535 6.18006 7.39993C6.31395 7.24336 6.4975 7.13747 6.70006 7.09993C7.09316 7.03276 7.49127 6.9993 7.89006 6.99993C8.97472 6.89471 10.0617 6.81469 11.1501 6.75993H13.3001L16.4501 6.83993H17.2701C17.3631 6.84229 17.4548 6.86267 17.5401 6.89993C17.547 7.03651 17.547 7.17335 17.5401 7.30993C17.4682 7.95078 17.4315 8.59507 17.4301 9.23993C17.45 9.4383 17.512 9.63013 17.612 9.80259C17.7121 9.97505 17.8478 10.1242 18.0101 10.2399C18.2772 10.4113 18.5713 10.5364 18.8801 10.6099C19.2801 10.7099 19.7001 10.7499 20.0801 10.8099C20.4601 10.8699 21.1401 11.0199 21.7101 11.0499C22.0097 11.0755 22.3116 11.045 22.6001 10.9599C22.8907 10.8584 23.1355 10.6562 23.2901 10.3899C23.454 10.107 23.5721 9.79982 23.6401 9.47993C23.7881 8.91233 23.8521 8.3261 23.8301 7.73993C23.8147 7.17385 23.741 6.61087 23.6101 6.05993ZM22.6101 9.22993C22.5686 9.40788 22.5117 9.58187 22.4401 9.74993C22.4401 9.82993 22.3701 9.90993 22.2901 9.93993C22.0658 9.98656 21.8343 9.98656 21.6101 9.93993C21.1201 9.93993 20.6101 9.78993 20.2601 9.74993C19.8972 9.72315 19.5365 9.67305 19.1801 9.59993C18.983 9.56165 18.7937 9.49067 18.6201 9.38993C18.4601 9.28993 18.4601 9.06993 18.4601 8.83993C18.4601 8.26993 18.5801 7.60993 18.5501 7.21993C18.5512 6.97566 18.5141 6.73272 18.4401 6.49993C18.3768 6.32879 18.2614 6.18186 18.1101 6.07993C17.9292 5.97351 17.7284 5.90543 17.5201 5.87993C17.167 5.85949 16.8131 5.85949 16.4601 5.87993H13.3201C12.5801 5.87993 11.8401 5.87993 11.1001 5.94993C10.0001 5.99993 8.91006 6.15993 7.82006 6.28993C7.29689 6.31718 6.77935 6.41128 6.28006 6.56993C6.01852 6.6733 5.79269 6.85049 5.63006 7.07993C5.51236 7.41914 5.43843 7.77199 5.41006 8.12993C5.33006 8.78993 5.26006 9.63993 5.22006 10.1299C5.17062 10.1194 5.11951 10.1194 5.07006 10.1299C4.31006 10.2199 3.35006 10.5299 2.45006 10.6199C1.9535 10.7077 1.44186 10.623 1.00006 10.3799C1.00006 10.3799 1.00006 10.3299 1.00006 10.2899C0.978181 10.1374 0.978181 9.98248 1.00006 9.82993V8.92993C1.05405 7.90347 1.33769 6.90221 1.83006 5.99993C2.34317 5.11218 3.02216 4.33134 3.83006 3.69993C6.24468 1.90228 9.19051 0.962571 12.2001 1.02993C15.207 1.03769 18.1479 1.91267 20.6701 3.54993C21.1225 3.87116 21.5066 4.27906 21.8001 4.74993C22.1148 5.22849 22.3574 5.75075 22.5201 6.29993C22.6412 6.77854 22.7182 7.26725 22.7501 7.75993C22.7742 8.25468 22.7236 8.75025 22.6001 9.22993H22.6101Z" fill="black"/>
<path fill-rule="evenodd" clip-rule="evenodd" d="M22.2102 15.2699C21.7651 14.1673 21.0204 13.2112 20.0602 12.5099C19.6065 12.207 19.1113 11.9712 18.5902 11.8099C17.8641 11.5944 17.1262 11.4207 16.3802 11.2899C15.9249 11.1919 15.464 11.1217 15.0002 11.0799C15.0002 10.8699 15.0802 10.6499 15.1102 10.4199C15.1417 10.2349 15.1584 10.0476 15.1602 9.85991C15.1702 9.67004 15.1702 9.47978 15.1602 9.28991C15.1602 8.79991 15.0202 8.35991 14.9702 7.95991C14.9702 7.92052 14.9624 7.8815 14.9473 7.84511C14.9323 7.80871 14.9102 7.77564 14.8823 7.74778C14.8544 7.71992 14.8214 7.69782 14.785 7.68275C14.7486 7.66767 14.7096 7.65991 14.6702 7.65991C14.6308 7.65991 14.5918 7.66767 14.5554 7.68275C14.519 7.69782 14.4859 7.71992 14.458 7.74778C14.4302 7.77564 14.4081 7.80871 14.393 7.84511C14.3779 7.8815 14.3702 7.92052 14.3702 7.95991C14.2802 8.33991 14.1502 8.77991 14.0702 9.26991C14.0603 9.45978 14.0603 9.65004 14.0702 9.83991V10.4099C14.0702 10.5999 14.0702 10.8599 14.1402 11.0599H13.5002C12.2438 11.1001 10.9912 11.2203 9.75017 11.4199C9.82017 11.1399 9.89017 10.8399 9.94017 10.5099C9.95543 10.3236 9.95543 10.1363 9.94017 9.94991C9.96032 9.76713 9.96032 9.58269 9.94017 9.39991C9.87974 8.96166 9.77932 8.52986 9.64017 8.10991C9.64817 8.06663 9.64655 8.02211 9.63543 7.97953C9.6243 7.93694 9.60394 7.89732 9.57578 7.86349C9.54763 7.82965 9.51238 7.80243 9.47252 7.78374C9.43267 7.76505 9.38919 7.75537 9.34517 7.75537C9.30115 7.75537 9.25768 7.76505 9.21782 7.78374C9.17797 7.80243 9.14271 7.82965 9.11456 7.86349C9.08641 7.89732 9.06604 7.93694 9.05492 7.97953C9.04379 8.02211 9.04217 8.06663 9.05017 8.10991C9.05017 8.46991 8.91017 8.87991 8.86017 9.35991C8.84994 9.53643 8.84994 9.71339 8.86017 9.88991V10.4199C8.86017 10.8099 8.93017 11.1699 8.95017 11.4899C7.64436 11.6341 6.36713 11.9711 5.16017 12.4899C4.27908 12.9095 3.51362 13.5376 2.93017 14.3199C2.63067 14.7299 2.37273 15.1688 2.16017 15.6299C1.86062 16.3136 1.61324 17.0189 1.42017 17.7399C1.19017 18.6199 0.970172 19.5599 0.810172 20.5099C0.633223 21.4448 0.516317 22.3901 0.460172 23.3399C0.457257 23.4189 0.484618 23.496 0.536662 23.5555C0.588707 23.615 0.661504 23.6523 0.740172 23.6599C0.802004 23.6533 0.860237 23.6275 0.906817 23.5863C0.953396 23.5451 0.986019 23.4905 1.00017 23.4299C1.06978 22.5057 1.20006 21.587 1.39017 20.6799C1.58017 19.7599 1.81017 18.8399 2.06017 17.9799C2.22055 17.4163 2.42106 16.8649 2.66017 16.3299C2.88448 15.806 3.17338 15.3122 3.52017 14.8599C4.04908 14.1938 4.73677 13.6712 5.52017 13.3399C6.73296 12.8461 8.01473 12.5425 9.32017 12.4399C10.7007 12.2311 12.094 12.1175 13.4902 12.0999C14.3944 12.0935 15.2966 12.1874 16.1802 12.3799C16.8902 12.5399 17.6002 12.6599 18.2802 12.8799C18.6939 13.0167 19.0874 13.2084 19.4502 13.4499C20.2383 14.0306 20.848 14.8204 21.2102 15.7299C21.7759 17.192 22.149 18.7215 22.3202 20.2799C22.4638 21.0949 22.5141 21.9236 22.4702 22.7499C22.2842 22.8462 22.0794 22.9008 21.8702 22.9099C21.374 22.9399 20.8764 22.9399 20.3802 22.9099H16.1302C13.1802 22.9099 10.2302 22.8399 7.27017 22.9099C5.27017 22.9099 3.30351 22.9932 1.37017 23.1599C1.32133 23.1514 1.27123 23.1538 1.22338 23.1667C1.17553 23.1796 1.13109 23.2029 1.09316 23.2348C1.05524 23.2667 1.02475 23.3065 1.00383 23.3514C0.982915 23.3964 0.972077 23.4453 0.972077 23.4949C0.972077 23.5445 0.982915 23.5934 1.00383 23.6384C1.02475 23.6833 1.05524 23.7231 1.09316 23.7551C1.13109 23.787 1.17553 23.8102 1.22338 23.8231C1.27123 23.8361 1.32133 23.8384 1.37017 23.8299C3.32017 23.7299 5.28017 23.6899 7.24017 23.6899C10.1802 23.6899 13.1302 23.7799 16.0602 23.8799L20.3302 23.9899C20.9657 24.0448 21.6047 24.0448 22.2402 23.9899C22.603 23.9406 22.9472 23.7995 23.2402 23.5799C23.4734 23.3226 23.6018 22.9872 23.6002 22.6399C23.6168 21.8102 23.5633 20.9806 23.4402 20.1599C23.2474 18.4828 22.8338 16.8386 22.2102 15.2699Z" fill="black"/>
<path fill-rule="evenodd" clip-rule="evenodd" d="M9.26017 21.6998C9.66464 21.8623 10.088 21.9732 10.5202 22.0298C11.1354 22.0895 11.7549 22.0895 12.3702 22.0298C13.7228 21.9261 14.9802 21.2938 15.8702 20.2698C16.3124 19.7564 16.6235 19.1433 16.7768 18.4832C16.93 17.8231 16.9209 17.1356 16.7502 16.4798C16.5784 15.8349 16.2755 15.2323 15.8602 14.7098C15.4576 14.2087 14.9823 13.7705 14.4502 13.4098C14.1481 13.1961 13.809 13.0402 13.4502 12.9498C13.1806 12.8853 12.8997 12.8853 12.6302 12.9498C12.5946 12.9221 12.5538 12.9017 12.5102 12.8898C12.1613 12.8102 11.799 12.8102 11.4502 12.8898C10.9503 12.9806 10.4677 13.1493 10.0202 13.3898C9.63366 13.5875 9.27126 13.8291 8.94017 14.1098C8.59941 14.4012 8.29999 14.7376 8.05017 15.1098C7.64177 15.7296 7.36378 16.426 7.23312 17.1567C7.10246 17.8873 7.12187 18.6369 7.29017 19.3598C7.40918 19.8783 7.64993 20.3609 7.9925 20.7678C8.33507 21.1747 8.76961 21.4942 9.26017 21.6998ZM8.75017 15.5498C8.93996 15.2301 9.17205 14.9375 9.44017 14.6798C9.71956 14.4257 10.0245 14.2012 10.3502 14.0098C10.6663 13.8241 11.0015 13.6732 11.3502 13.5598C11.673 13.4553 12.0171 13.4347 12.3502 13.4998H12.4202C12.4615 13.5534 12.5177 13.5934 12.5819 13.6147C12.646 13.6361 12.715 13.6379 12.7802 13.6198C12.9837 13.5924 13.1909 13.6201 13.3802 13.6998C13.6034 13.7868 13.815 13.901 14.0102 14.0398C14.4622 14.377 14.863 14.7778 15.2002 15.2298C15.5221 15.6711 15.7471 16.1755 15.8602 16.7098C15.9734 17.2211 15.9607 17.7521 15.823 18.2573C15.6854 18.7625 15.427 19.2267 15.0702 19.6098C14.3492 20.3972 13.3465 20.868 12.2802 20.9198C11.8277 20.9597 11.3726 20.9597 10.9202 20.9198C10.4963 20.8879 10.0789 20.7971 9.68017 20.6498C9.25099 20.464 8.88174 20.1628 8.61341 19.7797C8.34509 19.3966 8.1882 18.9467 8.16017 18.4798C8.03278 17.465 8.23993 16.4363 8.75017 15.5498Z" fill="black"/>
</g>
<defs>
<clipPath id="clip0_1105_611">
<rect width="24" height="24" fill="white"/>
</clipPath>
</defs>
</svg>
