<svg width="24" height="24" viewBox="0 0 24 24" fill="none" xmlns="http://www.w3.org/2000/svg">
<g clip-path="url(#clip0_1105_621)">
<path fill-rule="evenodd" clip-rule="evenodd" d="M22.2099 15.2699C21.7649 14.1673 21.0201 13.2112 20.0599 12.5099C19.6062 12.207 19.1111 11.9712 18.5899 11.8099C17.8638 11.5944 17.126 11.4207 16.3799 11.2899C15.9246 11.1919 15.4638 11.1217 14.9999 11.0799C14.9999 10.8699 15.0799 10.6499 15.1099 10.4199C15.1415 10.2349 15.1582 10.0476 15.1599 9.85991C15.1699 9.67004 15.1699 9.47978 15.1599 9.28991C15.1599 8.79991 15.0199 8.35991 14.9699 7.95991C14.9699 7.92052 14.9622 7.8815 14.9471 7.84511C14.932 7.80871 14.9099 7.77564 14.8821 7.74778C14.8542 7.71992 14.8211 7.69782 14.7847 7.68275C14.7483 7.66767 14.7093 7.65991 14.6699 7.65991C14.6305 7.65991 14.5915 7.66767 14.5551 7.68275C14.5187 7.69782 14.4857 7.71992 14.4578 7.74778C14.4299 7.77564 14.4078 7.80871 14.3928 7.84511C14.3777 7.8815 14.3699 7.92052 14.3699 7.95991C14.2799 8.33991 14.1499 8.77991 14.0699 9.26991C14.06 9.45978 14.06 9.65004 14.0699 9.83991V10.4099C14.0699 10.5999 14.0699 10.8599 14.1399 11.0599H13.4999C12.2435 11.1001 10.991 11.2203 9.74993 11.4199C9.81993 11.1399 9.88993 10.8399 9.93993 10.5099C9.95519 10.3236 9.95519 10.1363 9.93993 9.94991C9.96007 9.76713 9.96007 9.58269 9.93993 9.39991C9.87949 8.96166 9.77908 8.52986 9.63993 8.10991C9.64793 8.06663 9.64631 8.02211 9.63518 7.97953C9.62405 7.93694 9.60369 7.89732 9.57554 7.86349C9.54739 7.82965 9.51213 7.80243 9.47228 7.78374C9.43242 7.76505 9.38894 7.75537 9.34493 7.75537C9.30091 7.75537 9.25743 7.76505 9.21758 7.78374C9.17772 7.80243 9.14247 7.82965 9.11432 7.86349C9.08616 7.89732 9.0658 7.93694 9.05467 7.97953C9.04354 8.02211 9.04192 8.06663 9.04993 8.10991C9.04993 8.46991 8.90993 8.87991 8.85993 9.35991C8.8497 9.53643 8.8497 9.71339 8.85993 9.88991V10.4199C8.85993 10.8099 8.92993 11.1699 8.94993 11.4899C7.64411 11.6341 6.36689 11.9711 5.15993 12.4899C4.27883 12.9095 3.51338 13.5376 2.92993 14.3199C2.63042 14.7299 2.37248 15.1688 2.15993 15.6299C1.86037 16.3136 1.613 17.0189 1.41993 17.7399C1.18993 18.6199 0.969928 19.5599 0.809928 20.5099C0.632979 21.4448 0.516073 22.3901 0.459928 23.3399C0.457013 23.4189 0.484374 23.496 0.536418 23.5555C0.588463 23.615 0.66126 23.6523 0.739928 23.6599C0.801759 23.6533 0.859993 23.6275 0.906572 23.5863C0.953152 23.5451 0.985775 23.4905 0.999928 23.4299C1.06953 22.5057 1.19981 21.587 1.38993 20.6799C1.57993 19.7599 1.80993 18.8399 2.05993 17.9799C2.2203 17.4163 2.42082 16.8649 2.65993 16.3299C2.88423 15.806 3.17314 15.3122 3.51993 14.8599C4.04883 14.1938 4.73653 13.6712 5.51993 13.3399C6.73272 12.8461 8.01449 12.5425 9.31993 12.4399C10.7005 12.2311 12.0938 12.1175 13.4899 12.0999C14.3942 12.0935 15.2964 12.1874 16.1799 12.3799C16.8899 12.5399 17.5999 12.6599 18.2799 12.8799C18.6937 13.0167 19.0872 13.2084 19.4499 13.4499C20.2381 14.0306 20.8478 14.8204 21.2099 15.7299C21.7756 17.192 22.1488 18.7215 22.3199 20.2799C22.4635 21.0949 22.5138 21.9236 22.4699 22.7499C22.2839 22.8462 22.0792 22.9008 21.8699 22.9099C21.3737 22.9399 20.8761 22.9399 20.3799 22.9099H16.1299C13.1799 22.9099 10.2299 22.8399 7.26993 22.9099C5.26993 22.9099 3.30326 22.9932 1.36993 23.1599C1.32109 23.1514 1.27099 23.1538 1.22314 23.1667C1.17529 23.1796 1.13084 23.2029 1.09292 23.2348C1.05499 23.2667 1.0245 23.3065 1.00359 23.3514C0.982671 23.3964 0.971833 23.4453 0.971833 23.4949C0.971833 23.5445 0.982671 23.5934 1.00359 23.6384C1.0245 23.6833 1.05499 23.7231 1.09292 23.7551C1.13084 23.787 1.17529 23.8102 1.22314 23.8231C1.27099 23.8361 1.32109 23.8384 1.36993 23.8299C3.31993 23.7299 5.27993 23.6899 7.23993 23.6899C10.1799 23.6899 13.1299 23.7799 16.0599 23.8799L20.3299 23.9899C20.9654 24.0448 21.6044 24.0448 22.2399 23.9899C22.6027 23.9406 22.9469 23.7995 23.2399 23.5799C23.4731 23.3226 23.6016 22.9872 23.5999 22.6399C23.6166 21.8102 23.5631 20.9806 23.4399 20.1599C23.2471 18.4828 22.8336 16.8386 22.2099 15.2699Z" fill="black"/>
<path fill-rule="evenodd" clip-rule="evenodd" d="M9.25992 21.6998C9.6644 21.8623 10.0877 21.9732 10.5199 22.0298C11.1352 22.0895 11.7547 22.0895 12.3699 22.0298C13.7226 21.9261 14.98 21.2938 15.8699 20.2698C16.3122 19.7564 16.6232 19.1433 16.7765 18.4832C16.9298 17.8231 16.9207 17.1356 16.7499 16.4798C16.5782 15.8349 16.2752 15.2323 15.8599 14.7098C15.4573 14.2087 14.9821 13.7705 14.4499 13.4098C14.1478 13.1961 13.8088 13.0402 13.4499 12.9498C13.1804 12.8853 12.8994 12.8853 12.6299 12.9498C12.5943 12.9221 12.5535 12.9017 12.5099 12.8898C12.1611 12.8102 11.7988 12.8102 11.4499 12.8898C10.95 12.9806 10.4675 13.1493 10.0199 13.3898C9.63342 13.5875 9.27102 13.8291 8.93992 14.1098C8.59917 14.4012 8.29974 14.7376 8.04992 15.1098C7.64153 15.7296 7.36353 16.426 7.23288 17.1567C7.10222 17.8873 7.12163 18.6369 7.28992 19.3598C7.40894 19.8783 7.64969 20.3609 7.99226 20.7678C8.33483 21.1747 8.76937 21.4942 9.25992 21.6998ZM8.74992 15.5498C8.93971 15.2301 9.17181 14.9375 9.43992 14.6798C9.71931 14.4257 10.0243 14.2012 10.3499 14.0098C10.666 13.8241 11.0013 13.6732 11.3499 13.5598C11.6728 13.4553 12.0169 13.4347 12.3499 13.4998H12.4199C12.4612 13.5534 12.5175 13.5934 12.5816 13.6147C12.6457 13.6361 12.7148 13.6379 12.7799 13.6198C12.9835 13.5924 13.1907 13.6201 13.3799 13.6998C13.6031 13.7868 13.8147 13.901 14.0099 14.0398C14.462 14.377 14.8628 14.7778 15.1999 15.2298C15.5219 15.6711 15.7468 16.1755 15.8599 16.7098C15.9732 17.2211 15.9604 17.7521 15.8228 18.2573C15.6852 18.7625 15.4268 19.2267 15.0699 19.6098C14.3489 20.3972 13.3462 20.868 12.2799 20.9198C11.8275 20.9597 11.3724 20.9597 10.9199 20.9198C10.496 20.8879 10.0787 20.7971 9.67992 20.6498C9.25075 20.464 8.88149 20.1628 8.61317 19.7797C8.34484 19.3966 8.18795 18.9467 8.15992 18.4798C8.03254 17.465 8.23968 16.4363 8.74992 15.5498Z" fill="black"/>
</g>
<defs>
<clipPath id="clip0_1105_621">
<rect width="24" height="24" fill="white"/>
</clipPath>
</defs>
</svg>
