<svg width="24" height="24" viewBox="0 0 24 24" fill="none" xmlns="http://www.w3.org/2000/svg">
<g clip-path="url(#clip0_1105_616)">
<path fill-rule="evenodd" clip-rule="evenodd" d="M23.6101 6.05993C23.421 5.38994 23.131 4.75264 22.7501 4.16993C22.3695 3.56228 21.8694 3.03834 21.2801 2.62993C18.5701 0.888318 15.4113 -0.0256236 12.1901 -7.10887e-05C8.95794 -0.0310271 5.80926 1.02558 3.25006 2.99993C2.36846 3.71851 1.63486 4.60154 1.09006 5.59993C0.534538 6.61186 0.216513 7.73692 0.160062 8.88993C0.115266 9.3455 0.115266 9.80436 0.160062 10.2599C0.168983 10.4049 0.209389 10.5462 0.278468 10.674C0.347546 10.8018 0.44364 10.913 0.560062 10.9999C1.01257 11.2579 1.53003 11.3794 2.05006 11.3499C3.09329 11.2138 4.1282 11.0202 5.15006 10.7699C5.20179 10.7663 5.25178 10.7497 5.29546 10.7218C5.33913 10.6938 5.3751 10.6554 5.40006 10.6099H5.49006C5.52948 10.6126 5.56904 10.6075 5.60648 10.5949C5.64392 10.5823 5.6785 10.5624 5.70823 10.5364C5.73797 10.5104 5.76227 10.4788 5.77974 10.4433C5.79722 10.4079 5.80752 10.3694 5.81006 10.3299C5.81006 9.93993 5.91006 9.15993 6.00006 8.47993C6.02611 8.11509 6.08637 7.7535 6.18006 7.39993C6.31395 7.24336 6.4975 7.13747 6.70006 7.09993C7.09316 7.03276 7.49127 6.9993 7.89006 6.99993C8.97472 6.89471 10.0617 6.81469 11.1501 6.75993H13.3001L16.4501 6.83993H17.2701C17.3631 6.84229 17.4548 6.86267 17.5401 6.89993C17.547 7.03651 17.547 7.17335 17.5401 7.30993C17.4682 7.95078 17.4315 8.59507 17.4301 9.23993C17.45 9.4383 17.512 9.63013 17.612 9.80259C17.7121 9.97505 17.8478 10.1242 18.0101 10.2399C18.2772 10.4113 18.5713 10.5364 18.8801 10.6099C19.2801 10.7099 19.7001 10.7499 20.0801 10.8099C20.4601 10.8699 21.1401 11.0199 21.7101 11.0499C22.0097 11.0755 22.3116 11.045 22.6001 10.9599C22.8907 10.8584 23.1355 10.6562 23.2901 10.3899C23.454 10.107 23.5721 9.79982 23.6401 9.47993C23.7881 8.91233 23.8521 8.3261 23.8301 7.73993C23.8147 7.17385 23.741 6.61087 23.6101 6.05993ZM22.6101 9.22993C22.5686 9.40788 22.5117 9.58187 22.4401 9.74993C22.4401 9.82993 22.3701 9.90993 22.2901 9.93993C22.0658 9.98656 21.8343 9.98656 21.6101 9.93993C21.1201 9.93993 20.6101 9.78993 20.2601 9.74993C19.8972 9.72315 19.5365 9.67305 19.1801 9.59993C18.983 9.56165 18.7937 9.49067 18.6201 9.38993C18.4601 9.28993 18.4601 9.06993 18.4601 8.83993C18.4601 8.26993 18.5801 7.60993 18.5501 7.21993C18.5512 6.97566 18.5141 6.73272 18.4401 6.49993C18.3768 6.32879 18.2614 6.18186 18.1101 6.07993C17.9292 5.97351 17.7284 5.90543 17.5201 5.87993C17.167 5.85949 16.8131 5.85949 16.4601 5.87993H13.3201C12.5801 5.87993 11.8401 5.87993 11.1001 5.94993C10.0001 5.99993 8.91006 6.15993 7.82006 6.28993C7.29689 6.31718 6.77935 6.41128 6.28006 6.56993C6.01852 6.6733 5.79269 6.85049 5.63006 7.07993C5.51236 7.41914 5.43843 7.77199 5.41006 8.12993C5.33006 8.78993 5.26006 9.63993 5.22006 10.1299C5.17062 10.1194 5.11951 10.1194 5.07006 10.1299C4.31006 10.2199 3.35006 10.5299 2.45006 10.6199C1.9535 10.7077 1.44186 10.623 1.00006 10.3799C1.00006 10.3799 1.00006 10.3299 1.00006 10.2899C0.978181 10.1374 0.978181 9.98248 1.00006 9.82993V8.92993C1.05405 7.90347 1.33769 6.90221 1.83006 5.99993C2.34317 5.11218 3.02216 4.33134 3.83006 3.69993C6.24468 1.90228 9.19051 0.962571 12.2001 1.02993C15.207 1.03769 18.1479 1.91267 20.6701 3.54993C21.1225 3.87116 21.5066 4.27906 21.8001 4.74993C22.1148 5.22849 22.3574 5.75075 22.5201 6.29993C22.6412 6.77854 22.7182 7.26725 22.7501 7.75993C22.7742 8.25468 22.7236 8.75025 22.6001 9.22993H22.6101Z" fill="black"/>
</g>
<defs>
<clipPath id="clip0_1105_616">
<rect width="24" height="24" fill="white"/>
</clipPath>
</defs>
</svg>
