<svg width="24" height="24" viewBox="0 0 24 24" fill="none" xmlns="http://www.w3.org/2000/svg">
<path fill-rule="evenodd" clip-rule="evenodd" d="M4.19992 11.51C4.23261 11.5469 4.27363 11.5756 4.31959 11.5934C4.36555 11.6113 4.41511 11.618 4.46416 11.6129C4.51321 11.6078 4.56034 11.5911 4.60163 11.5641C4.64292 11.5371 4.67717 11.5007 4.70155 11.4578C4.72593 11.4149 4.73972 11.3669 4.74179 11.3176C4.74387 11.2683 4.73415 11.2193 4.71346 11.1745C4.69276 11.1297 4.66169 11.0905 4.62281 11.0602C4.58393 11.0299 4.53837 11.0092 4.48992 11C3.87908 10.5899 3.36956 10.0462 2.99992 9.41002C1.99992 8.04002 1.60992 6.79002 2.59992 5.41002C2.94723 4.96796 3.38645 4.60666 3.88717 4.35112C4.3879 4.09557 4.93818 3.95189 5.49992 3.93002C7.40992 3.71002 8.76992 4.08002 14.3099 4.86002C14.3901 4.86837 14.4712 4.85989 14.548 4.83514C14.6247 4.81039 14.6955 4.7699 14.7557 4.71626C14.8159 4.66262 14.8643 4.59701 14.8978 4.52361C14.9312 4.45022 14.949 4.37066 14.9499 4.29002C14.9499 3.63002 15.1599 1.62002 15.7399 1.29002C16.0599 1.11002 16.1799 1.51002 16.7399 1.97002C17.2999 2.43002 18.0799 3.23002 18.8399 4.00002C20.8399 6.00002 20.6199 5.82002 20.5299 5.94002C19.268 7.56915 17.7358 8.96949 15.9999 10.08C15.8585 10.1596 15.7072 10.2201 15.5499 10.26C15.5499 10.16 15.4799 10.01 15.4799 9.90002C15.5326 9.33605 15.4178 8.76908 15.1499 8.27002C14.9699 7.91002 14.3499 7.87002 13.6599 7.73002C12.2033 7.45352 10.7223 7.32619 9.23992 7.35002C8.10023 7.27517 6.95629 7.29524 5.81992 7.41002C4.37992 7.65002 4.06992 8.74002 4.63992 10C4.65831 10.0427 4.68492 10.0813 4.71824 10.1137C4.75156 10.1461 4.79093 10.1716 4.83411 10.1888C4.87729 10.206 4.92343 10.2145 4.96989 10.2139C5.01636 10.2132 5.06224 10.2034 5.10492 10.185C5.1476 10.1666 5.18624 10.14 5.21864 10.1067C5.25103 10.0734 5.27655 10.034 5.29373 9.99083C5.31091 9.94765 5.31941 9.90151 5.31876 9.85505C5.31811 9.80858 5.30831 9.7627 5.28992 9.72002C4.47992 7.83002 6.11992 8.00002 9.18992 8.19002C10.625 8.20085 12.0554 8.35495 13.4599 8.65002C13.5399 8.65002 14.1699 9.03002 14.3799 8.94002C14.5899 9.51002 14.3299 10.46 14.6299 10.94C15.7199 12.59 19.6899 8.67002 21.0399 7.16002C21.5099 6.62002 22.0399 6.16002 21.8399 5.63002C21.5499 4.89002 18.1599 1.68002 17.4499 1.06002C16.9199 0.590017 16.3099 -0.449983 15.1099 0.220017C14.1099 0.760017 13.8699 2.48002 13.7899 3.60002L10.9999 3.28002C7.82992 2.84002 3.65992 2.20002 1.87992 4.92002C0.749922 6.64002 1.13992 8.20002 2.40992 9.82002C2.86568 10.516 3.47888 11.095 4.19992 11.51Z" fill="black"/>
</svg>
