<svg width="24" height="24" viewBox="0 0 24 24" fill="none" xmlns="http://www.w3.org/2000/svg">
<path fill-rule="evenodd" clip-rule="evenodd" d="M22.7401 17.32C22.2817 15.6723 21.2359 14.2494 19.8001 13.32C19.7282 13.2973 19.6506 13.3006 19.5809 13.3295C19.5113 13.3584 19.4541 13.411 19.4194 13.4779C19.3847 13.5449 19.3748 13.622 19.3914 13.6955C19.408 13.7691 19.45 13.8344 19.5101 13.88C20.1347 14.2728 20.6614 14.8029 21.0501 15.43C22.0501 16.82 22.4301 18.06 21.4501 19.43C21.1033 19.8726 20.6642 20.2342 20.1633 20.4898C19.6625 20.7454 19.112 20.8888 18.5501 20.91C16.6401 21.13 15.2301 20.76 9.75012 19.98C9.66912 19.9702 9.58696 19.9775 9.509 20.0016C9.43104 20.0256 9.35903 20.0659 9.29768 20.1197C9.23634 20.1735 9.18703 20.2396 9.15299 20.3138C9.11895 20.3879 9.10093 20.4684 9.10012 20.55C9.04012 21.45 9.03012 22.45 8.48012 22.81C6.53584 22.1978 4.80312 21.0507 3.48012 19.5C3.18012 19.05 3.17012 18.9 3.48012 18.34C4.78803 16.6901 6.34704 15.256 8.10012 14.09C8.31012 13.95 8.59012 13.87 8.72012 13.79C8.72012 14.79 8.48012 15.79 8.86012 16.56C9.05012 16.92 9.64012 16.95 10.3501 17.1C11.8068 17.3761 13.2877 17.5034 14.7701 17.48C15.9098 17.555 17.0538 17.5349 18.1901 17.42C19.6101 17.18 19.9401 16.11 19.3601 14.79C19.323 14.7038 19.2531 14.6359 19.1659 14.6012C19.0787 14.5665 18.9813 14.5679 18.8951 14.605C18.8089 14.6421 18.741 14.712 18.7063 14.7992C18.6716 14.8864 18.673 14.9838 18.7101 15.07C19.5201 17 17.8801 16.81 14.8101 16.64C13.3781 16.6336 11.9505 16.4794 10.5501 16.18C10.4701 16.18 9.89012 15.84 9.65012 15.88C9.48012 14.67 10.3901 12.51 8.65012 12.64C7.76012 12.7 2.12012 17 2.11012 19C2.10012 21 7.73012 24.61 9.00012 23.91C10.0001 23.35 10.1401 22.36 10.2201 21.22L12.9801 21.55C16.2001 21.99 20.3501 22.63 22.1301 19.91C22.6655 19.1602 22.8846 18.2299 22.7401 17.32Z" fill="black"/>
</svg>
