<svg width="24" height="24" viewBox="0 0 24 24" fill="none" xmlns="http://www.w3.org/2000/svg">
<path fill-rule="evenodd" clip-rule="evenodd" d="M4.19992 11.51C4.23261 11.5469 4.27363 11.5756 4.31959 11.5934C4.36555 11.6113 4.41511 11.618 4.46416 11.6129C4.51321 11.6078 4.56034 11.5911 4.60163 11.5641C4.64292 11.5371 4.67717 11.5007 4.70155 11.4578C4.72593 11.4149 4.73972 11.3669 4.74179 11.3176C4.74387 11.2683 4.73415 11.2193 4.71346 11.1745C4.69276 11.1297 4.66169 11.0905 4.62281 11.0602C4.58393 11.0299 4.53837 11.0092 4.48992 11C3.87908 10.5899 3.36956 10.0462 2.99992 9.41002C1.99992 8.04002 1.60992 6.79002 2.59992 5.41002C2.94723 4.96796 3.38645 4.60666 3.88717 4.35112C4.3879 4.09557 4.93818 3.95189 5.49992 3.93002C7.40992 3.71002 8.76992 4.08002 14.3099 4.86002C14.3901 4.86837 14.4712 4.85989 14.548 4.83514C14.6247 4.81039 14.6955 4.7699 14.7557 4.71626C14.8159 4.66262 14.8643 4.59701 14.8978 4.52361C14.9312 4.45022 14.949 4.37066 14.9499 4.29002C14.9499 3.63002 15.1599 1.62002 15.7399 1.29002C16.0599 1.11002 16.1799 1.51002 16.7399 1.97002C17.2999 2.43002 18.0799 3.23002 18.8399 4.00002C20.8399 6.00002 20.6199 5.82002 20.5299 5.94002C19.268 7.56915 17.7358 8.96949 15.9999 10.08C15.8585 10.1596 15.7072 10.2201 15.5499 10.26C15.5499 10.16 15.4799 10.01 15.4799 9.90002C15.5326 9.33605 15.4178 8.76908 15.1499 8.27002C14.9699 7.91002 14.3499 7.87002 13.6599 7.73002C12.2033 7.45352 10.7223 7.32619 9.23992 7.35002C8.10023 7.27517 6.95629 7.29524 5.81992 7.41002C4.37992 7.65002 4.06992 8.74002 4.63992 10C4.65831 10.0427 4.68492 10.0813 4.71824 10.1137C4.75156 10.1461 4.79093 10.1716 4.83411 10.1888C4.87729 10.206 4.92343 10.2145 4.96989 10.2139C5.01636 10.2132 5.06224 10.2034 5.10492 10.185C5.1476 10.1666 5.18624 10.14 5.21864 10.1067C5.25103 10.0734 5.27655 10.034 5.29373 9.99083C5.31091 9.94765 5.31941 9.90151 5.31876 9.85505C5.31811 9.80858 5.30831 9.7627 5.28992 9.72002C4.47992 7.83002 6.11992 8.00002 9.18992 8.19002C10.625 8.20085 12.0554 8.35495 13.4599 8.65002C13.5399 8.65002 14.1699 9.03002 14.3799 8.94002C14.5899 9.51002 14.3299 10.46 14.6299 10.94C15.7199 12.59 19.6899 8.67002 21.0399 7.16002C21.5099 6.62002 22.0399 6.16002 21.8399 5.63002C21.5499 4.89002 18.1599 1.68002 17.4499 1.06002C16.9199 0.590017 16.3099 -0.449983 15.1099 0.220017C14.1099 0.760017 13.8699 2.48002 13.7899 3.60002L10.9999 3.28002C7.82992 2.84002 3.65992 2.20002 1.87992 4.92002C0.749922 6.64002 1.13992 8.20002 2.40992 9.82002C2.86568 10.516 3.47888 11.095 4.19992 11.51Z" fill="black"/>
<path fill-rule="evenodd" clip-rule="evenodd" d="M22.7399 17.32C22.2814 15.6723 21.2356 14.2494 19.7999 13.32C19.728 13.2973 19.6504 13.3006 19.5807 13.3295C19.511 13.3584 19.4538 13.411 19.4192 13.4779C19.3845 13.5449 19.3746 13.622 19.3912 13.6955C19.4078 13.7691 19.4498 13.8344 19.5099 13.88C20.1344 14.2728 20.6611 14.8029 21.0499 15.43C22.0499 16.82 22.4299 18.06 21.4499 19.43C21.103 19.8726 20.6639 20.2342 20.1631 20.4898C19.6623 20.7454 19.1118 20.8888 18.5499 20.91C16.6399 21.13 15.2299 20.76 9.74988 19.98C9.66888 19.9702 9.58672 19.9775 9.50876 20.0016C9.43079 20.0256 9.35879 20.0659 9.29744 20.1197C9.23609 20.1735 9.18679 20.2396 9.15274 20.3138C9.1187 20.3879 9.10069 20.4684 9.09988 20.55C9.03988 21.45 9.02988 22.45 8.47988 22.81C6.5356 22.1978 4.80288 21.0507 3.47988 19.5C3.17988 19.05 3.16988 18.9 3.47988 18.34C4.78779 16.6901 6.34679 15.256 8.09988 14.09C8.30988 13.95 8.58988 13.87 8.71988 13.79C8.71988 14.79 8.47988 15.79 8.85988 16.56C9.04988 16.92 9.63988 16.95 10.3499 17.1C11.8065 17.3761 13.2875 17.5034 14.7699 17.48C15.9096 17.555 17.0535 17.5349 18.1899 17.42C19.6099 17.18 19.9399 16.11 19.3599 14.79C19.3227 14.7038 19.2529 14.6359 19.1657 14.6012C19.0785 14.5665 18.9811 14.5679 18.8949 14.605C18.8087 14.6421 18.7408 14.712 18.7061 14.7992C18.6714 14.8864 18.6727 14.9838 18.7099 15.07C19.5199 17 17.8799 16.81 14.8099 16.64C13.3778 16.6336 11.9503 16.4794 10.5499 16.18C10.4699 16.18 9.88988 15.84 9.64988 15.88C9.47988 14.67 10.3899 12.51 8.64988 12.64C7.75988 12.7 2.11988 17 2.10988 19C2.09988 21 7.72988 24.61 8.99988 23.91C9.99988 23.35 10.1399 22.36 10.2199 21.22L12.9799 21.55C16.1999 21.99 20.3499 22.63 22.1299 19.91C22.6652 19.1602 22.8843 18.2299 22.7399 17.32Z" fill="black"/>
</svg>
